{"glyphs":{"0":{"ha":864,"x_min":104,"x_max":760,"o":"m 760 486 q 760 235 760 486 q 432 -17 760 -17 q 104 486 104 -17 q 432 989 104 989 q 760 486 760 989 m 303 75 q 330 58 303 75 q 432 42 357 42 q 560 75 507 42 q 643 171 614 108 q 685 310 672 233 q 697 486 697 386 q 432 931 697 931 q 167 486 167 931 q 179 310 167 386 q 221 171 192 233 q 303 75 250 108 z "},"1":{"ha":614,"x_min":78,"x_max":574,"o":"m 78 0 l 78 56 l 299 56 l 299 847 l 300 896 l 297 896 q 246 836 288 878 l 131 721 l 89 761 l 299 972 l 358 972 l 358 56 l 574 56 l 574 0 l 78 0 z "},"2":{"ha":774,"x_min":88,"x_max":683,"o":"m 92 0 q 88 51 88 28 q 116 178 88 119 q 190 281 144 238 q 291 363 236 324 q 401 441 346 403 q 503 519 457 479 q 577 610 549 558 q 606 722 606 663 q 544 872 606 813 q 379 931 482 931 q 296 916 336 931 q 228 881 256 901 q 181 841 201 861 q 153 806 161 821 l 143 792 l 99 822 q 110 840 103 829 q 142 880 117 851 q 197 931 168 908 q 276 971 226 953 q 381 989 326 989 q 592 911 517 989 q 668 722 668 833 q 630 578 668 644 q 534 467 592 511 q 410 374 476 422 q 285 285 343 326 q 190 183 228 243 q 151 56 151 124 l 683 56 l 683 0 l 92 0 z "},"3":{"ha":772,"x_min":68,"x_max":679,"o":"m 68 118 l 113 163 q 124 149 117 157 q 158 121 132 142 q 213 84 185 100 q 285 55 242 68 q 374 42 329 42 q 544 109 471 42 q 617 281 617 176 q 540 451 617 389 q 357 513 463 513 l 290 513 l 274 554 l 546 872 l 589 917 l 589 919 q 514 917 563 917 l 115 917 l 115 972 l 672 972 l 672 931 l 358 568 q 459 555 408 568 q 562 511 510 542 q 647 421 614 481 q 679 281 679 361 q 588 70 679 157 q 371 -17 497 -17 q 269 -3 319 -17 q 183 31 218 11 q 122 71 149 51 q 81 104 94 90 l 68 118 z "},"4":{"ha":817,"x_min":50,"x_max":754,"o":"m 50 278 l 50 319 l 554 972 l 610 972 l 610 333 l 754 333 l 754 278 l 610 278 l 610 0 l 550 0 l 550 278 l 50 278 m 133 333 l 550 333 l 550 789 l 554 876 l 551 876 q 503 810 528 842 l 133 336 l 133 333 z "},"5":{"ha":769,"x_min":82,"x_max":688,"o":"m 82 124 l 131 161 q 139 149 133 157 q 165 119 144 140 q 208 83 185 99 q 272 55 232 68 q 356 42 311 42 q 547 115 469 42 q 625 296 625 188 q 547 479 625 406 q 356 553 469 553 q 258 538 306 553 q 189 508 211 524 l 167 494 l 122 510 l 178 972 l 629 972 l 629 917 l 231 917 l 196 626 l 186 567 l 189 567 q 356 611 257 611 q 591 519 494 611 q 688 296 688 428 q 590 74 688 165 q 356 -17 493 -17 q 255 -2 303 -17 q 177 33 207 13 q 124 74 147 53 q 92 108 101 94 l 82 124 z "},"6":{"ha":822,"x_min":99,"x_max":738,"o":"m 439 -17 q 190 114 282 -17 q 99 438 99 244 q 123 625 99 532 q 194 801 147 718 q 326 937 242 885 q 517 989 410 989 q 603 979 561 989 q 667 960 646 969 l 686 950 l 657 896 q 514 931 597 931 q 326 862 407 931 q 207 695 246 793 q 161 483 168 597 l 164 483 q 278 581 204 544 q 439 617 353 617 q 653 532 569 617 q 738 307 738 447 q 651 69 738 156 q 439 -17 565 -17 m 438 42 q 611 115 547 42 q 675 307 675 189 q 609 490 675 422 q 436 558 543 558 q 247 497 328 558 q 167 365 167 435 q 244 147 167 253 q 438 42 322 42 z "},"7":{"ha":704,"x_min":54,"x_max":669,"o":"m 146 0 l 551 826 l 603 917 l 603 919 q 526 917 575 917 l 54 917 l 54 972 l 669 972 l 669 931 l 208 0 l 146 0 z "},"8":{"ha":835,"x_min":96,"x_max":731,"o":"m 96 278 q 114 374 96 328 q 158 452 132 421 q 208 507 183 483 q 251 542 233 531 l 269 553 q 143 751 143 629 q 219 919 143 850 q 429 989 294 989 q 640 921 563 989 q 718 743 718 853 q 588 468 718 599 q 731 260 731 388 q 640 64 731 144 q 418 -17 549 -17 q 192 63 289 -17 q 96 278 96 142 m 668 258 q 649 333 668 300 q 590 394 631 367 q 514 438 549 421 q 418 480 479 454 q 326 521 357 506 q 291 499 313 514 q 236 453 269 483 q 181 376 203 422 q 158 278 158 329 q 236 106 158 171 q 418 42 314 42 q 592 103 515 42 q 668 258 668 165 m 206 751 q 223 677 206 710 q 280 618 240 644 q 351 576 319 592 q 444 534 382 560 q 532 496 506 508 q 656 743 656 610 q 592 879 656 828 q 429 931 529 931 q 266 879 326 931 q 206 751 206 828 z "},"9":{"ha":822,"x_min":85,"x_max":724,"o":"m 306 -17 q 219 -7 261 -17 q 156 13 176 3 l 136 22 l 165 76 q 308 42 225 42 q 496 110 415 42 q 615 277 576 179 q 661 489 654 375 l 658 489 q 544 392 618 428 q 383 356 469 356 q 169 440 253 356 q 85 665 85 525 q 171 903 85 817 q 383 989 257 989 q 632 858 540 989 q 724 535 724 728 q 699 347 724 440 q 628 171 675 254 q 497 35 581 88 q 306 -17 413 -17 m 386 414 q 575 476 494 414 q 656 607 656 538 q 578 825 656 719 q 385 931 500 931 q 211 857 275 931 q 147 665 147 783 q 213 482 147 550 q 386 414 279 414 z "}," ":{"ha":385,"x_min":0,"x_max":0,"o":""},"!":{"ha":410,"x_min":165,"x_max":247,"o":"m 175 243 l 175 972 l 235 972 l 235 243 l 175 243 m 165 0 l 165 85 l 247 85 l 247 0 l 165 0 z "},"\"":{"ha":404,"x_min":100,"x_max":304,"o":"m 244 775 l 244 985 l 304 985 l 304 775 l 244 775 m 100 775 l 100 985 l 160 985 l 160 775 l 100 775 z "},"#":{"ha":1018,"x_min":72,"x_max":946,"o":"m 235 0 l 283 276 l 72 276 l 82 332 l 293 332 l 347 639 l 136 639 l 146 694 l 357 694 l 406 972 l 465 972 l 417 694 l 679 694 l 728 972 l 788 972 l 739 694 l 946 694 l 936 639 l 729 639 l 675 332 l 882 332 l 872 276 l 665 276 l 617 0 l 557 0 l 606 276 l 343 276 l 294 0 l 235 0 m 353 332 l 615 332 l 669 639 l 407 639 l 353 332 z "},"$":{"ha":761,"x_min":92,"x_max":671,"o":"m 92 104 l 132 150 q 144 138 136 146 q 177 112 151 131 q 231 79 203 93 q 303 53 258 65 q 392 42 347 42 q 547 94 485 42 q 608 233 608 147 q 581 330 608 288 q 509 399 553 372 q 411 451 465 426 q 303 500 357 475 q 206 554 250 525 q 135 631 163 583 q 107 738 107 678 q 177 902 107 831 q 360 986 247 974 l 360 1118 l 419 1118 l 419 988 q 541 963 485 985 q 622 919 597 940 l 646 899 l 613 847 q 585 871 603 857 q 513 908 568 885 q 400 931 457 931 q 233 872 297 931 q 169 739 169 814 q 221 623 169 671 q 346 544 272 575 q 494 480 419 514 q 619 385 568 446 q 671 236 671 324 q 602 65 671 135 q 419 -15 533 -6 l 419 -144 l 360 -144 l 360 -15 q 215 20 282 -10 q 119 78 149 50 l 92 104 z "},"%":{"ha":975,"x_min":85,"x_max":894,"o":"m 397 679 q 370 653 397 679 q 268 626 343 626 q 140 679 193 626 q 88 807 88 732 q 140 935 88 882 q 268 989 193 989 q 397 935 343 989 q 450 807 450 882 q 397 679 450 732 m 85 0 l 822 972 l 894 972 l 157 0 l 85 0 m 182 718 q 199 700 182 718 q 268 682 217 682 q 355 718 319 682 q 390 807 390 754 q 355 897 390 860 q 268 933 319 933 q 182 897 217 933 q 147 807 147 860 q 182 718 147 754 m 579 36 q 553 63 579 36 q 526 164 526 89 q 579 292 526 239 q 707 346 632 346 q 835 292 782 346 q 889 164 889 239 q 835 36 889 89 q 707 -17 782 -17 q 579 36 632 -17 m 621 253 q 603 235 621 253 q 586 164 586 217 q 621 75 586 111 q 707 39 656 39 q 794 75 758 39 q 829 164 829 111 q 794 253 829 217 q 707 290 758 290 q 621 253 656 290 z "},"&":{"ha":925,"x_min":90,"x_max":854,"o":"m 90 265 q 139 429 90 356 q 274 526 188 503 l 274 529 q 258 535 268 531 q 224 555 249 539 q 182 593 200 571 q 149 656 164 615 q 133 747 133 697 q 209 922 133 854 q 417 989 285 989 q 460 985 435 989 q 503 978 486 982 l 519 975 l 500 922 q 413 933 449 933 q 258 883 319 933 q 196 749 196 832 q 204 688 196 717 q 235 626 213 658 q 308 573 257 593 q 433 553 358 553 l 660 553 l 660 694 l 719 694 l 719 553 l 854 553 l 854 497 l 719 497 l 719 342 q 637 73 719 163 q 410 -17 554 -17 q 180 63 269 -17 q 90 265 90 143 m 153 268 q 222 106 153 171 q 410 42 292 42 q 660 342 660 42 l 660 497 l 436 497 q 224 435 296 497 q 153 268 153 374 z "},"'":{"ha":260,"x_min":100,"x_max":160,"o":"m 100 775 l 100 985 l 160 985 l 160 775 l 100 775 z "},"(":{"ha":385,"x_min":115,"x_max":329,"o":"m 268 -132 q 115 465 115 136 q 268 1007 115 754 l 329 1007 q 172 464 172 743 q 329 -132 172 143 l 268 -132 z "},")":{"ha":385,"x_min":56,"x_max":269,"o":"m 117 -132 l 56 -132 q 213 464 213 143 q 56 1007 213 743 l 117 1007 q 269 465 269 754 q 117 -132 269 136 z "},"*":{"ha":653,"x_min":67,"x_max":588,"o":"m 196 478 l 146 513 l 283 693 l 283 696 l 67 761 l 85 819 l 300 744 l 293 972 l 358 972 l 351 744 l 568 818 l 588 761 l 369 696 l 369 693 l 506 513 l 457 476 l 328 663 l 325 663 l 196 478 z "},"+":{"ha":953,"x_min":118,"x_max":835,"o":"m 118 365 l 118 421 l 447 421 l 447 786 l 507 786 l 507 421 l 835 421 l 835 365 l 507 365 l 507 0 l 447 0 l 447 365 l 118 365 z "},",":{"ha":335,"x_min":63,"x_max":214,"o":"m 63 -131 l 136 85 l 214 85 l 121 -131 l 63 -131 z "},"-":{"ha":494,"x_min":56,"x_max":439,"o":"m 56 365 l 56 421 l 439 421 l 439 365 l 56 365 z "},".":{"ha":329,"x_min":122,"x_max":207,"o":"m 122 0 l 122 88 l 207 88 l 207 0 l 122 0 z "},"/":{"ha":533,"x_min":65,"x_max":478,"o":"m 65 -58 l 417 1028 l 478 1028 l 126 -58 l 65 -58 z "},":":{"ha":407,"x_min":164,"x_max":243,"o":"m 164 613 l 164 694 l 243 694 l 243 613 l 164 613 m 164 0 l 164 82 l 243 82 l 243 0 l 164 0 z "},";":{"ha":407,"x_min":106,"x_max":247,"o":"m 168 613 l 168 694 l 247 694 l 247 613 l 168 613 m 106 -131 l 168 85 l 240 85 l 163 -131 l 106 -131 z "},"<":{"ha":782,"x_min":75,"x_max":685,"o":"m 75 368 l 75 418 l 685 692 l 685 625 l 161 394 l 161 392 l 685 161 l 685 94 l 75 368 z "},"=":{"ha":978,"x_min":172,"x_max":806,"o":"m 172 476 l 172 532 l 806 532 l 806 476 l 172 476 m 172 254 l 172 310 l 806 310 l 806 254 l 172 254 z "},">":{"ha":782,"x_min":97,"x_max":707,"o":"m 97 94 l 97 161 l 621 392 l 621 394 l 97 625 l 97 692 l 707 418 l 707 368 l 97 94 z "},"?":{"ha":651,"x_min":63,"x_max":536,"o":"m 225 243 l 225 304 q 251 417 225 367 q 313 503 276 468 q 386 572 350 538 q 448 651 422 606 q 474 751 474 696 q 417 879 474 828 q 271 931 360 931 q 182 916 226 931 q 117 886 138 901 l 94 872 l 63 919 q 89 939 72 928 q 160 969 106 950 q 269 989 214 989 q 462 921 388 989 q 536 750 536 853 q 510 635 536 686 q 448 550 485 585 q 374 482 411 515 q 310 403 336 449 q 285 304 285 358 l 285 243 l 225 243 m 214 0 l 214 85 l 296 85 l 296 0 l 214 0 z "},"@":{"ha":1094,"x_min":97,"x_max":997,"o":"m 97 338 q 239 696 97 547 q 578 844 381 844 q 822 774 744 844 q 900 599 900 703 l 900 121 l 997 121 l 997 65 l 629 65 q 440 144 518 65 q 361 335 361 224 q 440 527 361 447 q 629 607 518 607 l 838 607 q 774 738 833 686 q 586 789 714 789 q 283 658 407 789 q 160 338 160 526 q 283 19 160 149 q 586 -111 406 -111 l 586 -169 q 240 -22 383 -169 q 97 338 97 126 m 486 488 q 455 456 486 488 q 424 335 424 424 q 485 183 424 246 q 636 121 547 121 l 838 121 l 838 551 l 639 551 q 486 488 549 551 z "},"A":{"ha":842,"x_min":25,"x_max":817,"o":"m 753 0 l 626 336 l 214 336 l 89 0 l 25 0 l 389 972 l 453 972 l 817 0 l 753 0 m 422 903 l 419 903 q 383 786 399 828 l 235 392 l 606 392 l 458 786 l 422 903 z "},"B":{"ha":860,"x_min":150,"x_max":761,"o":"m 150 0 l 150 972 l 476 972 q 653 906 585 972 q 722 729 722 839 q 596 517 722 578 l 596 514 q 715 426 669 493 q 761 268 761 360 q 685 74 761 147 q 490 0 608 0 l 150 0 m 210 539 l 475 539 q 608 591 557 539 q 660 729 660 643 q 609 866 660 815 q 474 917 558 917 l 210 917 l 210 539 m 210 56 l 485 56 q 641 113 583 56 q 699 268 699 169 q 638 424 699 365 q 483 483 578 483 l 210 483 l 210 56 z "},"C":{"ha":1019,"x_min":85,"x_max":939,"o":"m 85 493 q 223 847 85 704 q 567 989 361 989 q 690 976 631 989 q 789 946 750 964 q 858 910 828 928 q 900 879 888 892 l 914 867 l 878 822 q 865 834 874 826 q 825 860 856 842 q 761 894 794 879 q 675 920 728 908 q 568 932 622 932 q 268 806 389 932 q 147 493 147 681 q 269 172 147 303 q 572 40 390 40 q 686 54 631 40 q 779 87 742 68 q 845 125 817 106 q 888 158 874 144 l 901 172 l 939 131 q 923 115 933 125 q 878 79 913 104 q 803 35 843 54 q 701 -1 764 15 q 572 -17 639 -17 q 224 131 363 -17 q 85 493 85 279 z "},"D":{"ha":1029,"x_min":150,"x_max":940,"o":"m 150 0 l 150 972 l 456 972 q 808 843 675 972 q 940 486 940 714 q 808 128 940 257 q 456 0 676 0 l 150 0 m 210 56 l 446 56 q 760 168 643 56 q 878 486 878 281 q 760 803 878 690 q 446 917 643 917 l 210 917 l 210 56 z "},"E":{"ha":793,"x_min":150,"x_max":708,"o":"m 150 0 l 150 972 l 682 972 l 682 917 l 210 917 l 210 518 l 597 518 l 597 463 l 210 463 l 210 56 l 708 56 l 708 0 l 150 0 z "},"F":{"ha":706,"x_min":150,"x_max":640,"o":"m 150 0 l 150 972 l 640 972 l 640 917 l 210 917 l 210 511 l 582 511 l 582 456 l 210 456 l 210 0 l 150 0 z "},"G":{"ha":1051,"x_min":85,"x_max":954,"o":"m 85 486 q 224 843 85 697 q 569 989 364 989 q 751 961 667 989 q 872 906 836 933 l 908 879 l 872 833 q 859 844 868 838 q 819 867 850 850 q 756 898 789 885 q 673 922 724 911 q 569 932 622 932 q 267 804 388 932 q 147 486 147 676 q 265 168 147 296 q 561 40 382 40 q 675 57 619 40 q 769 97 731 74 q 837 143 807 119 q 881 183 867 167 l 894 200 l 894 388 l 721 388 l 721 443 l 954 443 l 954 0 l 894 0 l 894 85 l 896 126 l 893 126 q 879 111 889 121 q 838 76 869 101 q 771 33 807 51 q 678 -1 735 14 q 561 -17 621 -17 q 222 128 358 -17 q 85 486 85 274 z "},"H":{"ha":1036,"x_min":150,"x_max":886,"o":"m 150 0 l 150 972 l 210 972 l 210 515 l 826 515 l 826 972 l 886 972 l 886 0 l 826 0 l 826 460 l 210 460 l 210 0 l 150 0 z "},"I":{"ha":360,"x_min":150,"x_max":210,"o":"m 150 0 l 150 972 l 210 972 l 210 0 l 150 0 z "},"J":{"ha":713,"x_min":54,"x_max":574,"o":"m 54 265 l 54 296 l 114 296 l 114 264 q 153 118 114 175 q 314 40 207 40 q 456 94 397 40 q 514 264 514 147 l 514 917 l 282 917 l 282 972 l 574 972 l 574 265 q 498 52 574 121 q 314 -17 422 -17 q 130 52 206 -17 q 54 265 54 121 z "},"K":{"ha":806,"x_min":150,"x_max":760,"o":"m 150 0 l 150 972 l 210 972 l 210 539 l 390 539 l 668 972 l 740 972 l 442 514 l 442 511 l 760 0 l 688 0 l 390 483 l 210 483 l 210 0 l 150 0 z "},"L":{"ha":707,"x_min":150,"x_max":674,"o":"m 150 0 l 150 972 l 210 972 l 210 56 l 674 56 l 674 0 l 150 0 z "},"M":{"ha":1181,"x_min":122,"x_max":1058,"o":"m 122 0 l 200 972 l 258 972 l 542 361 l 589 251 l 592 251 q 639 361 617 314 l 922 972 l 981 972 l 1058 0 l 999 0 l 939 742 l 935 871 l 932 871 q 882 742 904 789 l 621 188 l 560 188 l 300 742 l 249 874 l 246 874 q 242 742 246 789 l 182 0 l 122 0 z "},"N":{"ha":1044,"x_min":150,"x_max":894,"o":"m 150 0 l 150 972 l 206 972 l 760 210 l 839 88 l 842 88 q 835 210 835 161 l 835 972 l 894 972 l 894 0 l 839 0 l 285 763 l 206 885 l 203 885 q 210 763 210 811 l 210 0 l 150 0 z "},"O":{"ha":1147,"x_min":82,"x_max":1065,"o":"m 82 493 q 226 845 82 701 q 574 989 369 989 q 922 845 778 989 q 1065 493 1065 701 q 922 131 1065 279 q 574 -17 778 -17 q 226 131 369 -17 q 82 493 82 279 m 144 493 q 269 172 144 303 q 574 40 394 40 q 878 172 753 40 q 1003 493 1003 303 q 878 806 1003 679 q 574 932 753 932 q 269 806 394 932 q 144 493 144 679 z "},"P":{"ha":822,"x_min":150,"x_max":765,"o":"m 150 0 l 150 972 l 469 972 q 682 895 599 972 q 765 689 765 818 q 682 481 765 558 q 469 403 599 403 l 210 403 l 210 0 l 150 0 m 210 458 l 467 458 q 639 519 575 458 q 703 689 703 581 q 639 857 703 797 q 467 917 575 917 l 210 917 l 210 458 z "},"Q":{"ha":1165,"x_min":83,"x_max":1067,"o":"m 83 492 q 226 845 83 701 q 572 989 368 989 q 923 845 779 989 q 1067 492 1067 701 q 939 146 1067 289 l 1064 17 l 1025 -21 l 901 107 q 572 -17 765 -17 q 226 132 369 -17 q 83 492 83 281 m 146 492 q 269 171 146 301 q 572 40 392 40 q 727 69 650 40 q 861 149 804 97 l 736 278 l 775 315 l 899 188 q 1004 492 1004 315 q 880 806 1004 679 q 572 932 756 932 q 269 806 392 932 q 146 492 146 679 z "},"R":{"ha":863,"x_min":150,"x_max":790,"o":"m 150 0 l 150 972 l 435 972 q 610 943 551 972 q 708 851 672 913 q 744 710 744 790 q 690 534 744 607 q 550 442 636 461 l 550 439 q 572 404 560 428 l 790 0 l 719 0 l 489 431 l 210 431 l 210 0 l 150 0 m 210 486 l 474 486 q 625 548 568 486 q 682 710 682 610 q 651 824 682 774 q 568 897 621 874 q 432 917 525 917 l 210 917 l 210 486 z "},"S":{"ha":736,"x_min":78,"x_max":657,"o":"m 78 104 l 118 150 q 130 138 122 146 q 163 112 138 131 q 217 79 189 93 q 289 53 244 65 q 378 42 333 42 q 533 94 471 42 q 594 233 594 147 q 567 332 594 289 q 496 401 540 375 q 399 451 451 428 q 293 499 346 475 q 196 553 240 524 q 124 629 151 582 q 97 738 97 676 q 179 914 97 839 q 389 989 261 989 q 475 980 433 989 q 544 958 517 971 q 594 931 572 944 q 625 908 615 917 l 636 899 l 603 847 q 576 871 593 857 q 503 908 558 885 q 390 931 447 931 q 224 872 288 931 q 160 739 160 814 q 187 648 160 688 q 258 583 214 608 q 356 536 303 558 q 461 489 408 514 q 558 433 514 464 q 630 352 603 403 q 657 236 657 301 q 580 56 657 128 q 375 -17 503 -17 q 271 -4 321 -17 q 188 26 221 8 q 128 62 154 44 q 89 92 101 79 l 78 104 z "},"T":{"ha":807,"x_min":11,"x_max":796,"o":"m 374 0 l 374 917 l 11 917 l 11 972 l 796 972 l 796 917 l 433 917 l 433 0 l 374 0 z "},"U":{"ha":999,"x_min":136,"x_max":863,"o":"m 136 333 l 136 972 l 196 972 l 196 336 q 278 120 196 200 q 499 40 360 40 q 720 120 638 40 q 803 339 803 200 l 803 972 l 863 972 l 863 333 q 762 78 863 174 q 500 -17 661 -17 q 237 79 338 -17 q 136 333 136 175 z "},"V":{"ha":840,"x_min":24,"x_max":817,"o":"m 388 0 l 24 972 l 88 972 l 381 186 l 418 69 l 421 69 q 458 186 442 140 l 753 972 l 817 972 l 453 0 l 388 0 z "},"W":{"ha":1276,"x_min":60,"x_max":1219,"o":"m 636 888 l 633 888 q 596 733 614 796 l 390 0 l 315 0 l 60 972 l 122 972 l 328 181 l 351 76 l 354 76 l 358 92 q 368 133 361 107 q 381 181 375 160 l 603 972 l 669 972 l 892 181 q 904 133 897 160 q 914 92 911 107 l 918 76 l 921 76 q 944 181 932 133 l 1157 972 l 1219 972 l 957 0 l 882 0 l 676 733 l 639 888 l 636 888 z "},"X":{"ha":796,"x_min":42,"x_max":754,"o":"m 42 0 l 356 514 l 76 972 l 149 972 l 335 663 l 399 554 l 401 554 q 461 663 432 615 l 649 972 l 721 972 l 439 514 l 754 0 l 683 0 l 458 369 l 396 474 l 393 474 q 335 368 364 417 l 113 0 l 42 0 z "},"Y":{"ha":772,"x_min":26,"x_max":746,"o":"m 357 0 l 357 422 l 26 972 l 94 972 l 325 589 l 385 479 l 388 479 q 447 589 418 542 l 678 972 l 746 972 l 417 422 l 417 0 l 357 0 z "},"Z":{"ha":814,"x_min":61,"x_max":739,"o":"m 61 0 l 61 47 l 596 828 l 663 917 l 663 919 q 592 917 640 917 l 90 917 l 90 972 l 735 972 l 735 925 l 200 144 l 133 56 l 133 53 q 204 56 156 56 l 739 56 l 739 0 l 61 0 z "},"[":{"ha":371,"x_min":156,"x_max":306,"o":"m 156 -132 l 156 1007 l 306 1007 l 306 951 l 215 951 l 215 -76 l 306 -76 l 306 -132 l 156 -132 z "},"\\":{"ha":533,"x_min":56,"x_max":468,"o":"m 407 -58 l 56 1028 l 117 1028 l 468 -58 l 407 -58 z "},"]":{"ha":371,"x_min":65,"x_max":215,"o":"m 65 -76 l 156 -76 l 156 951 l 65 951 l 65 1007 l 215 1007 l 215 -132 l 65 -132 l 65 -76 z "},"^":{"ha":833,"x_min":107,"x_max":699,"o":"m 107 350 l 381 972 l 425 972 l 699 350 l 635 350 l 403 889 l 171 350 l 107 350 z "},"_":{"ha":800,"x_min":56,"x_max":744,"o":"m 56 0 l 744 0 l 744 -56 l 56 -56 l 56 0 z "},"`":{"ha":707,"x_min":268,"x_max":439,"o":"m 378 1042 l 268 1196 l 346 1196 l 439 1042 l 378 1042 z "},"a":{"ha":713,"x_min":65,"x_max":600,"o":"m 65 185 q 83 272 65 233 q 128 335 101 311 q 197 378 154 360 q 274 404 239 396 q 357 417 308 413 q 432 423 406 422 q 496 424 458 424 l 542 424 l 542 447 q 351 654 542 654 q 248 638 297 654 q 175 604 199 621 l 153 588 l 119 635 q 147 656 129 643 q 226 690 165 668 q 354 711 288 711 q 538 644 475 711 q 600 449 600 578 l 600 0 l 542 0 l 542 92 l 547 154 l 544 154 q 538 137 546 154 q 511 94 529 119 q 466 44 493 69 q 395 1 439 18 q 301 -17 351 -17 q 136 35 207 -17 q 65 185 65 88 m 126 189 q 174 83 126 129 q 304 38 221 38 q 476 128 411 38 q 542 332 542 219 l 542 369 l 497 369 q 427 369 454 369 q 349 363 400 368 q 266 347 299 358 q 198 316 233 335 q 144 265 163 297 q 126 189 126 232 z "},"b":{"ha":804,"x_min":122,"x_max":729,"o":"m 122 0 l 122 972 l 181 972 l 181 611 l 175 554 l 178 554 q 185 572 181 561 q 211 609 190 582 q 258 657 232 636 q 329 694 283 678 q 429 711 375 711 q 648 611 567 711 q 729 347 729 511 q 642 83 729 183 q 418 -17 556 -17 q 326 -1 369 -17 q 258 38 283 15 q 213 85 232 61 q 186 125 193 108 l 178 140 l 175 140 q 181 79 181 115 l 181 0 l 122 0 m 179 346 q 242 131 179 221 q 421 40 306 40 q 597 123 526 40 q 668 347 668 206 q 601 570 668 486 q 426 654 533 654 q 250 577 321 654 q 179 346 179 500 z "},"c":{"ha":765,"x_min":74,"x_max":694,"o":"m 177 84 q 125 134 177 84 q 74 346 74 185 q 178 609 74 507 q 432 711 283 711 q 567 686 506 711 q 656 636 629 661 l 681 613 l 644 565 q 619 590 636 575 q 547 629 601 604 q 432 654 492 654 q 221 569 307 654 q 135 346 135 483 q 221 125 135 210 q 432 40 307 40 q 558 65 500 40 q 639 115 615 90 l 664 140 l 694 92 q 683 80 690 88 q 651 53 676 72 q 599 21 626 35 q 526 -5 571 7 q 432 -17 481 -17 q 177 84 281 -17 z "},"d":{"ha":806,"x_min":76,"x_max":683,"o":"m 158 83 q 117 133 158 83 q 76 347 76 183 q 163 611 76 511 q 388 711 250 711 q 479 695 436 711 q 548 656 522 679 q 593 610 574 633 q 619 569 613 586 l 628 554 l 631 554 q 625 611 625 579 l 625 972 l 683 972 l 683 0 l 625 0 l 625 88 l 631 140 l 628 140 q 620 123 625 133 q 594 85 615 113 q 548 38 574 58 q 476 0 522 17 q 376 -17 431 -17 q 158 83 239 -17 m 138 347 q 205 124 138 208 q 379 40 272 40 q 556 117 485 40 q 626 349 626 194 q 563 564 626 474 q 385 654 500 654 q 208 572 279 654 q 138 347 138 489 z "},"e":{"ha":768,"x_min":74,"x_max":694,"o":"m 74 346 q 172 613 74 515 q 411 711 271 711 q 620 620 546 711 q 694 394 694 529 l 692 357 l 135 357 q 220 126 135 211 q 432 40 306 40 q 545 62 492 40 q 622 106 599 83 l 647 128 l 679 79 q 648 52 668 68 q 563 10 628 36 q 432 -17 499 -17 q 177 84 281 -17 q 74 346 74 185 m 139 411 l 633 411 q 565 594 628 532 q 410 657 503 657 q 233 592 308 657 q 139 411 157 528 z "},"f":{"ha":424,"x_min":64,"x_max":407,"o":"m 151 0 l 151 638 l 64 638 l 64 690 l 151 690 l 151 722 q 175 858 151 803 q 237 938 199 914 q 306 970 275 961 q 371 979 338 979 l 407 976 l 407 922 q 375 925 394 925 q 325 918 349 925 q 273 892 301 911 q 227 830 244 874 q 210 724 210 786 l 210 690 l 400 690 l 400 638 l 210 638 l 210 0 l 151 0 z "},"g":{"ha":796,"x_min":76,"x_max":674,"o":"m 165 -186 q 351 -235 251 -235 q 542 -176 469 -235 q 615 4 615 -117 l 615 85 l 621 142 l 618 142 q 385 0 549 0 q 163 99 249 0 q 76 358 76 197 q 158 616 76 521 q 375 711 239 711 q 476 697 431 711 q 546 663 521 683 q 588 623 571 643 q 611 589 606 603 l 617 575 l 619 575 q 615 601 615 585 l 615 694 l 674 694 l 674 4 q 583 -219 674 -146 q 356 -292 492 -292 q 138 -237 243 -292 l 165 -186 m 389 57 q 553 128 490 57 q 617 358 617 200 q 375 654 617 654 q 200 576 263 654 q 138 358 138 499 q 207 138 138 219 q 389 57 276 57 z "},"h":{"ha":814,"x_min":122,"x_max":701,"o":"m 122 0 l 122 972 l 181 972 l 181 572 l 175 515 l 178 515 q 279 647 201 582 q 472 711 357 711 q 651 642 600 711 q 701 440 701 574 l 701 0 l 643 0 l 643 419 q 640 491 643 461 q 628 553 638 521 q 600 607 618 586 q 549 641 582 628 q 472 654 517 654 q 297 592 375 654 q 192 433 218 531 q 181 339 181 394 l 181 0 l 122 0 z "},"i":{"ha":303,"x_min":117,"x_max":186,"o":"m 117 871 l 117 972 l 186 972 l 186 871 l 117 871 m 122 0 l 122 694 l 181 694 l 181 0 l 122 0 z "},"j":{"ha":303,"x_min":-75,"x_max":186,"o":"m 122 694 l 181 694 l 181 -28 q 157 -164 181 -108 q 95 -244 133 -219 q 25 -276 57 -268 q -40 -285 -7 -285 l -75 -282 l -75 -228 q -44 -231 -62 -231 q 6 -224 -18 -231 q 59 -198 31 -217 q 105 -135 88 -179 q 122 -29 122 -92 l 122 694 m 117 871 l 117 972 l 186 972 l 186 871 l 117 871 z "},"k":{"ha":667,"x_min":122,"x_max":629,"o":"m 122 0 l 122 972 l 181 972 l 181 421 l 304 421 l 529 694 l 606 694 l 354 396 l 354 393 l 629 0 l 556 0 l 304 367 l 181 367 l 181 0 l 122 0 z "},"l":{"ha":319,"x_min":115,"x_max":276,"o":"m 115 140 l 115 972 l 174 972 l 174 158 q 256 50 174 50 l 276 51 l 276 -3 q 251 -6 264 -6 q 213 -1 232 -6 q 169 18 193 4 q 130 63 144 32 q 115 140 115 94 z "},"m":{"ha":1275,"x_min":122,"x_max":1163,"o":"m 122 0 l 122 694 l 181 694 l 181 572 l 175 515 l 178 515 q 284 652 204 593 q 444 711 364 711 q 600 664 547 711 q 664 522 653 617 l 667 522 q 771 655 697 599 q 931 711 844 711 q 1110 642 1058 711 q 1163 440 1163 574 l 1163 0 l 1104 0 l 1104 419 q 1068 595 1104 533 q 931 657 1032 657 q 778 594 847 657 q 686 446 710 532 q 672 339 672 400 l 672 0 l 614 0 l 614 419 q 611 491 614 461 q 598 554 608 521 q 570 608 588 588 q 521 643 553 629 q 444 657 489 657 q 286 591 356 657 q 192 433 217 525 q 181 339 181 394 l 181 0 l 122 0 z "},"n":{"ha":814,"x_min":122,"x_max":701,"o":"m 122 0 l 122 694 l 181 694 l 181 572 l 175 515 l 178 515 q 279 647 201 582 q 472 711 357 711 q 651 642 600 711 q 701 440 701 574 l 701 0 l 643 0 l 643 419 q 640 491 643 461 q 628 553 638 521 q 600 607 618 586 q 549 641 582 628 q 472 654 517 654 q 297 592 375 654 q 192 433 218 531 q 181 339 181 394 l 181 0 l 122 0 z "},"o":{"ha":861,"x_min":71,"x_max":790,"o":"m 71 351 q 176 607 71 503 q 431 711 281 711 q 685 607 581 711 q 790 351 790 503 q 685 90 790 197 q 431 -17 581 -17 q 176 90 281 -17 q 71 351 71 197 m 132 351 q 219 130 132 219 q 431 40 306 40 q 642 130 556 40 q 729 351 729 219 q 642 567 729 479 q 431 654 556 654 q 219 567 306 654 q 132 351 132 479 z "},"p":{"ha":804,"x_min":122,"x_max":729,"o":"m 122 -278 l 122 694 l 181 694 l 181 611 l 176 556 l 179 556 q 187 573 182 563 q 212 610 192 583 q 258 657 232 636 q 329 694 283 678 q 429 711 375 711 q 648 611 567 711 q 729 347 729 511 q 643 83 729 183 q 421 -17 557 -17 q 327 -1 371 -17 q 257 38 283 15 q 212 85 231 61 q 186 125 193 108 l 178 140 l 175 140 q 181 79 181 115 l 181 -278 l 122 -278 m 179 346 q 244 131 179 222 q 421 40 310 40 q 597 123 526 40 q 668 347 668 206 q 601 570 668 486 q 426 654 533 654 q 250 577 321 654 q 179 346 179 500 z "},"q":{"ha":806,"x_min":76,"x_max":683,"o":"m 158 83 q 117 133 158 83 q 76 347 76 183 q 163 611 76 511 q 388 711 250 711 q 479 695 436 711 q 548 656 522 679 q 592 610 574 633 q 619 572 611 588 l 626 556 l 629 556 q 625 611 625 579 l 625 694 l 683 694 l 683 -278 l 625 -278 l 625 79 l 631 140 l 628 140 q 620 123 625 133 q 594 85 615 113 q 548 38 574 58 q 476 0 522 17 q 376 -17 431 -17 q 158 83 239 -17 m 138 347 q 205 124 138 208 q 379 40 272 40 q 556 117 485 40 q 626 349 626 194 q 563 564 626 474 q 385 654 500 654 q 208 572 279 654 q 138 347 138 489 z "},"r":{"ha":469,"x_min":122,"x_max":440,"o":"m 122 0 l 122 694 l 181 694 l 181 563 l 175 506 l 178 506 q 264 645 206 590 q 400 700 322 700 l 440 696 l 440 638 q 408 640 424 640 q 279 585 332 640 q 201 446 226 531 q 181 300 181 379 l 181 0 l 122 0 z "},"s":{"ha":606,"x_min":63,"x_max":536,"o":"m 63 83 l 100 128 q 125 103 108 118 q 198 65 142 89 q 315 40 254 40 q 429 75 383 40 q 475 171 475 110 q 435 253 475 219 q 340 307 396 286 q 228 351 285 328 q 133 418 172 375 q 93 524 93 461 q 157 662 93 613 q 315 711 221 711 q 429 692 378 711 q 500 656 481 674 l 521 636 l 486 589 q 467 607 479 596 q 409 636 454 618 q 311 654 364 654 q 200 623 246 654 q 154 528 154 592 q 194 444 154 478 q 290 390 233 411 q 401 345 346 368 q 497 278 457 322 q 536 171 536 235 q 474 35 536 88 q 314 -17 411 -17 q 176 8 239 -17 q 89 58 114 33 l 63 83 z "},"t":{"ha":436,"x_min":53,"x_max":400,"o":"m 144 251 l 144 638 l 53 638 l 53 690 l 144 690 l 144 888 l 203 888 l 203 690 l 385 690 l 385 638 l 203 638 l 203 256 q 220 147 203 192 q 265 83 238 103 q 317 56 293 63 q 368 49 342 49 l 400 51 l 400 -3 q 365 -6 386 -6 q 314 -1 339 -6 q 257 19 289 3 q 201 61 225 35 q 161 137 178 88 q 144 251 144 186 z "},"u":{"ha":807,"x_min":113,"x_max":685,"o":"m 113 254 l 113 694 l 171 694 l 171 275 q 174 203 171 233 q 186 141 176 174 q 214 88 196 108 q 265 53 232 67 q 342 40 297 40 q 547 134 467 40 q 626 356 626 228 l 626 694 l 685 694 l 685 0 l 626 0 l 626 122 l 632 179 l 629 179 q 529 48 606 113 q 342 -17 453 -17 q 165 50 218 -17 q 113 254 113 117 z "},"v":{"ha":651,"x_min":25,"x_max":626,"o":"m 299 0 l 25 694 l 88 694 l 301 150 l 325 75 l 328 75 q 351 150 339 117 l 565 694 l 626 694 l 354 0 l 299 0 z "},"w":{"ha":1107,"x_min":29,"x_max":1078,"o":"m 274 0 l 29 694 l 92 694 l 281 150 l 304 75 l 307 75 q 331 150 319 117 l 521 692 l 586 692 l 776 150 l 800 75 l 803 75 q 826 150 814 115 l 1015 694 l 1078 694 l 833 0 l 771 0 l 578 539 l 554 614 l 551 614 q 528 539 540 572 l 336 0 l 274 0 z "},"x":{"ha":661,"x_min":40,"x_max":621,"o":"m 40 0 l 290 367 l 67 694 l 138 694 l 306 442 l 329 403 l 332 403 q 356 442 344 424 l 524 694 l 594 694 l 371 367 l 621 0 l 549 0 l 357 288 l 332 328 l 329 328 q 304 288 318 308 l 113 0 l 40 0 z "},"y":{"ha":679,"x_min":11,"x_max":657,"o":"m 11 -253 l 38 -203 q 124 -236 76 -236 q 260 -111 207 -236 l 310 4 l 22 694 l 85 694 l 314 140 l 339 75 l 342 75 q 365 140 351 107 l 594 694 l 657 694 l 300 -162 q 124 -292 246 -292 q 66 -282 94 -292 q 25 -262 38 -272 l 11 -253 z "},"z":{"ha":696,"x_min":61,"x_max":631,"o":"m 61 0 l 61 47 l 482 576 l 536 640 l 536 643 q 465 640 511 640 l 79 640 l 79 694 l 615 694 l 615 647 l 193 118 l 138 54 l 138 51 q 210 54 164 54 l 631 54 l 631 0 l 61 0 z "},"{":{"ha":451,"x_min":76,"x_max":396,"o":"m 194 122 l 194 253 q 182 327 194 294 q 153 376 169 360 q 119 402 136 392 q 89 415 101 413 l 76 418 l 76 474 q 89 476 81 474 q 117 489 97 478 q 153 516 138 500 q 182 565 169 532 q 194 639 194 597 l 194 751 q 217 890 194 833 q 274 968 239 946 q 333 998 308 990 q 383 1006 358 1006 l 396 1006 l 396 951 l 388 951 q 352 946 369 951 q 310 922 335 940 q 269 860 285 904 q 254 753 254 817 l 254 624 q 243 554 254 586 q 216 503 232 522 q 183 471 200 485 q 156 453 167 457 l 144 447 l 144 444 q 156 440 149 443 q 183 422 164 436 q 216 391 201 408 q 242 340 231 374 q 254 268 254 307 l 254 121 q 269 13 254 57 q 310 -49 285 -31 q 352 -72 335 -67 q 388 -78 369 -78 l 396 -78 l 396 -132 q 383 -133 392 -133 q 347 -130 365 -133 q 299 -111 328 -126 q 248 -71 269 -96 q 210 5 226 -46 q 194 122 194 56 z "},"|":{"ha":368,"x_min":154,"x_max":214,"o":"m 154 -215 l 154 1090 l 214 1090 l 214 -215 l 154 -215 z "},"}":{"ha":451,"x_min":56,"x_max":375,"o":"m 56 -78 l 64 -78 q 99 -72 82 -78 q 142 -49 117 -67 q 182 13 167 -31 q 197 121 197 57 l 197 268 q 225 374 197 331 q 281 431 253 418 l 307 444 l 307 447 q 295 452 303 449 q 269 470 288 456 q 235 503 250 485 q 209 553 221 521 q 197 624 197 586 l 197 753 q 182 860 197 817 q 142 922 167 904 q 99 946 117 940 q 64 951 82 951 l 56 951 l 56 1006 l 68 1006 q 118 998 93 1006 q 178 968 143 990 q 235 890 213 946 q 257 751 257 833 l 257 639 q 269 565 257 597 q 299 516 282 532 q 333 490 315 500 q 363 476 350 479 l 375 474 l 375 418 q 363 416 371 418 q 334 403 354 414 q 298 376 314 392 q 269 327 282 360 q 257 253 257 294 l 257 122 q 241 5 257 56 q 203 -71 225 -46 q 153 -111 182 -96 q 105 -130 124 -126 q 68 -133 86 -133 l 56 -132 l 56 -78 z "},"~":{"ha":822,"x_min":110,"x_max":715,"o":"m 110 296 q 153 447 110 399 q 269 496 197 496 q 347 480 313 496 q 402 442 381 464 q 444 397 424 419 q 492 359 464 375 q 556 343 521 343 q 624 372 599 343 q 654 430 649 401 q 660 490 660 458 l 715 490 q 672 339 715 388 q 556 290 628 290 q 478 306 513 290 q 423 344 444 322 q 381 389 401 367 q 333 427 361 411 q 269 443 304 443 q 201 414 226 443 q 171 356 176 385 q 165 296 165 328 l 110 296 z "}," ":{"ha":385,"x_min":0,"x_max":0,"o":""},"¡":{"ha":363,"x_min":139,"x_max":221,"o":"m 151 -278 l 151 451 l 211 451 l 211 -278 l 151 -278 m 139 610 l 139 694 l 221 694 l 221 610 l 139 610 z "},"¢":{"ha":788,"x_min":90,"x_max":697,"o":"m 381 -18 l 381 99 q 165 219 239 111 q 90 486 90 326 q 165 753 90 646 q 381 874 239 861 l 381 989 l 440 989 l 440 874 q 697 676 610 858 l 640 654 q 414 815 564 815 q 217 724 282 815 q 153 486 153 632 q 217 249 153 340 q 414 157 282 157 q 640 318 564 157 l 697 296 q 440 99 608 113 l 440 -18 l 381 -18 z "},"£":{"ha":813,"x_min":83,"x_max":721,"o":"m 111 463 l 111 518 l 174 518 l 174 743 q 251 918 174 847 q 447 989 329 989 q 553 971 503 989 q 628 936 604 953 l 651 918 l 611 872 q 589 889 603 879 q 532 915 575 899 q 446 931 489 931 q 290 875 346 931 q 233 738 233 819 l 233 518 l 508 518 l 508 463 l 233 463 l 233 56 l 721 56 l 721 0 l 83 0 l 83 56 l 174 56 l 174 463 l 111 463 z "},"¥":{"ha":831,"x_min":56,"x_max":775,"o":"m 160 489 l 160 544 l 313 544 l 56 972 l 124 972 l 354 589 l 414 479 l 417 479 q 476 589 447 542 l 707 972 l 775 972 l 518 544 l 668 544 l 668 489 l 485 489 l 446 422 l 446 364 l 668 364 l 668 308 l 446 308 l 446 0 l 386 0 l 386 308 l 160 308 l 160 364 l 386 364 l 386 422 l 346 489 l 160 489 z "},"§":{"ha":542,"x_min":88,"x_max":450,"o":"m 197 86 l 104 744 q 101 779 101 767 q 163 929 101 869 q 321 989 225 989 q 386 978 354 989 q 433 956 418 967 l 450 943 l 414 899 q 319 932 374 932 q 208 889 253 932 q 163 775 163 846 q 165 746 163 765 l 256 86 l 197 86 m 88 -40 l 124 4 q 218 -29 164 -29 q 329 14 285 -29 q 374 128 374 57 q 372 157 374 147 l 282 817 l 340 817 l 433 158 q 436 124 436 133 q 374 -26 436 33 q 217 -86 311 -86 q 151 -75 183 -86 q 103 -53 119 -64 l 88 -40 z "},"¨":{"ha":707,"x_min":226,"x_max":481,"o":"m 417 1094 l 417 1196 l 481 1196 l 481 1094 l 417 1094 m 226 1094 l 226 1196 l 290 1196 l 290 1094 l 226 1094 z "},"©":{"ha":1164,"x_min":90,"x_max":1074,"o":"m 90 486 q 233 842 90 696 q 579 989 376 989 q 930 842 786 989 q 1074 486 1074 696 q 930 129 1074 275 q 579 -17 786 -17 q 233 129 375 -17 q 90 486 90 275 m 153 486 q 276 169 153 297 q 579 42 399 42 q 887 169 763 42 q 1011 486 1011 297 q 887 802 1011 674 q 579 931 763 931 q 276 802 399 931 q 153 486 153 674 m 376 281 q 337 324 376 281 q 297 485 297 367 q 376 690 297 603 q 596 778 456 778 q 674 765 636 778 q 738 735 713 753 q 784 699 764 717 q 814 668 804 681 l 822 656 l 776 615 q 755 644 769 626 q 694 690 740 661 q 597 718 647 718 q 422 649 485 718 q 360 486 360 581 q 422 323 360 392 q 597 254 485 254 q 693 280 649 254 q 757 331 738 306 l 776 357 l 822 317 q 813 303 819 311 q 783 274 806 296 q 737 237 761 253 q 674 208 713 221 q 596 194 636 194 q 376 281 456 194 z "},"ª":{"ha":594,"x_min":121,"x_max":472,"o":"m 279 531 q 171 564 217 531 q 125 660 125 597 q 394 814 125 814 l 414 814 l 414 819 q 308 935 414 935 q 249 924 279 935 q 204 904 219 914 l 189 894 l 158 936 q 310 986 217 986 q 468 819 468 986 l 468 539 l 414 539 l 414 610 l 411 610 q 397 588 407 601 q 353 553 388 575 q 279 531 319 531 m 281 582 q 377 634 340 582 q 414 750 414 686 l 414 764 l 396 764 q 182 665 182 764 q 208 606 182 631 q 281 582 233 582 m 121 365 l 121 417 l 472 417 l 472 365 l 121 365 z "},"«":{"ha":682,"x_min":75,"x_max":599,"o":"m 297 392 l 525 678 l 599 678 l 371 392 l 599 107 l 525 107 l 297 392 m 303 107 l 75 392 l 303 678 l 376 678 l 149 392 l 376 107 l 303 107 z "},"¬":{"ha":882,"x_min":125,"x_max":758,"o":"m 125 476 l 125 532 l 758 532 l 758 228 l 700 228 l 700 476 l 125 476 z "},"­":{"ha":600,"x_min":108,"x_max":492,"o":"m 108 365 l 108 421 l 492 421 l 492 365 l 108 365 z "},"®":{"ha":1164,"x_min":90,"x_max":1074,"o":"m 90 486 q 233 842 90 696 q 579 989 376 989 q 930 842 786 989 q 1074 486 1074 696 q 930 129 1074 275 q 579 -17 786 -17 q 233 129 375 -17 q 90 486 90 275 m 153 486 q 276 169 153 297 q 579 42 399 42 q 887 169 763 42 q 1011 486 1011 297 q 887 802 1011 674 q 579 931 763 931 q 276 802 399 931 q 153 486 153 674 m 418 208 l 418 764 l 603 764 q 719 719 674 764 q 764 603 764 675 q 733 505 764 544 q 657 454 703 465 l 657 451 q 675 421 663 444 l 785 208 l 717 208 l 599 440 l 479 440 l 479 208 l 418 208 m 479 493 l 596 493 q 673 522 644 493 q 701 603 701 551 q 673 681 701 653 q 596 708 644 708 l 479 708 l 479 493 z "},"¯":{"ha":707,"x_min":188,"x_max":519,"o":"m 188 1092 l 188 1147 l 519 1147 l 519 1092 l 188 1092 z "},"°":{"ha":515,"x_min":76,"x_max":439,"o":"m 385 676 q 359 650 385 676 q 257 624 332 624 q 129 676 182 624 q 76 804 76 729 q 129 933 76 879 q 257 986 182 986 q 385 933 332 986 q 439 804 439 879 q 385 676 439 729 m 171 715 q 188 697 171 715 q 257 679 206 679 q 344 715 308 679 q 379 804 379 751 q 344 894 379 857 q 257 931 308 931 q 171 894 206 931 q 136 804 136 857 q 171 715 136 751 z "},"±":{"ha":953,"x_min":118,"x_max":835,"o":"m 118 365 l 118 421 l 447 421 l 447 786 l 507 786 l 507 421 l 835 421 l 835 365 l 507 365 l 507 0 l 447 0 l 447 365 l 118 365 m 146 -157 l 807 -157 l 807 -212 l 146 -212 l 146 -157 z "},"²":{"ha":522,"x_min":74,"x_max":446,"o":"m 76 588 q 74 625 74 613 q 106 737 74 688 q 183 818 138 786 q 272 879 228 850 q 349 947 317 908 q 381 1033 381 986 q 345 1119 381 1083 q 254 1154 310 1154 q 187 1137 219 1154 q 139 1103 154 1119 l 124 1085 l 90 1121 q 110 1144 97 1131 q 165 1181 122 1158 q 254 1204 207 1204 q 388 1155 340 1204 q 435 1033 435 1106 q 403 931 435 976 q 328 856 372 886 q 238 797 283 825 q 161 728 193 768 q 128 638 129 688 l 446 638 l 446 588 l 76 588 z "},"³":{"ha":522,"x_min":64,"x_max":454,"o":"m 256 574 q 149 597 197 574 q 83 642 101 619 l 64 664 l 103 700 q 119 679 108 692 q 170 645 131 667 q 257 624 210 624 q 356 665 311 624 q 400 764 400 706 q 355 860 400 824 q 251 897 310 897 l 207 897 l 192 931 l 342 1107 l 376 1142 l 376 1144 q 324 1140 351 1140 l 96 1140 l 96 1190 l 450 1190 l 450 1154 l 272 946 q 399 897 343 940 q 454 764 454 854 q 395 629 454 685 q 256 574 336 574 z "},"´":{"ha":707,"x_min":268,"x_max":439,"o":"m 268 1042 l 361 1196 l 439 1196 l 329 1042 l 268 1042 z "},"µ":{"ha":831,"x_min":129,"x_max":701,"o":"m 129 -278 l 129 694 l 188 694 l 188 275 q 190 203 188 233 q 203 141 193 174 q 231 88 213 108 q 281 53 249 67 q 358 40 314 40 q 563 134 483 40 q 643 356 643 228 l 643 694 l 701 694 l 701 0 l 643 0 l 643 115 l 646 172 l 643 172 q 634 151 640 164 q 604 106 628 139 q 551 49 581 74 q 469 3 521 24 q 358 -17 418 -17 q 288 -9 321 -17 q 237 9 256 -1 q 205 29 218 19 q 186 47 192 39 l 182 54 l 179 54 q 188 -46 188 -17 l 188 -278 l 129 -278 z "},"¶":{"ha":765,"x_min":75,"x_max":699,"o":"m 408 -69 l 408 335 q 174 428 272 335 q 75 654 75 521 q 173 880 75 788 q 407 972 271 972 l 699 972 l 699 917 l 467 917 l 467 -69 l 408 -69 m 553 -69 l 553 829 l 611 829 l 611 -69 l 553 -69 z "},"·":{"ha":379,"x_min":147,"x_max":232,"o":"m 147 354 l 147 442 l 232 442 l 232 354 l 147 354 z "},"¸":{"ha":707,"x_min":260,"x_max":447,"o":"m 324 25 l 368 18 l 368 7 l 351 -83 q 421 -115 394 -90 q 447 -178 447 -140 q 411 -258 447 -232 q 321 -283 375 -283 l 260 -278 l 260 -225 q 317 -232 285 -232 q 392 -181 392 -232 q 307 -128 392 -128 l 290 -129 l 324 25 z "},"¹":{"ha":522,"x_min":107,"x_max":422,"o":"m 107 588 l 107 638 l 240 638 l 240 1089 l 242 1119 l 240 1119 q 208 1082 235 1108 l 147 1022 l 111 1060 l 240 1190 l 293 1190 l 293 638 l 422 638 l 422 588 l 107 588 z "},"º":{"ha":661,"x_min":103,"x_max":556,"o":"m 490 599 q 457 565 490 599 q 329 532 424 532 q 169 599 235 532 q 103 763 103 665 q 169 922 103 857 q 329 988 235 988 q 490 922 424 988 q 556 763 556 857 q 490 599 556 665 m 207 635 q 232 609 207 635 q 329 583 257 583 q 451 635 401 583 q 501 763 501 686 q 451 887 501 838 q 329 936 401 936 q 207 887 257 936 q 157 763 157 838 q 207 635 157 686 m 128 365 l 128 417 l 536 417 l 536 365 l 128 365 z "},"»":{"ha":682,"x_min":83,"x_max":607,"o":"m 306 107 l 533 392 l 306 678 l 379 678 l 607 392 l 379 107 l 306 107 m 83 107 l 311 392 l 83 678 l 157 678 l 385 392 l 157 107 l 83 107 z "},"¼":{"ha":1349,"x_min":185,"x_max":1301,"o":"m 1154 0 l 1154 168 l 856 168 l 856 204 l 1164 603 l 1207 603 l 1207 218 l 1301 218 l 1301 168 l 1207 168 l 1207 0 l 1154 0 m 932 218 l 1154 218 l 1154 422 l 1158 513 l 1156 513 q 1107 443 1132 475 l 932 221 l 932 218 m 185 369 l 185 419 l 318 419 l 318 871 l 319 901 l 318 901 q 286 864 313 890 l 225 804 l 189 842 l 318 972 l 371 972 l 371 419 l 500 419 l 500 369 l 185 369 m 507 0 l 446 0 l 913 972 l 972 972 l 507 0 z "},"½":{"ha":1276,"x_min":89,"x_max":1171,"o":"m 411 0 l 350 0 l 817 972 l 876 972 l 411 0 m 89 369 l 89 419 l 222 419 l 222 871 l 224 901 l 222 901 q 190 864 217 890 l 129 804 l 93 842 l 222 972 l 275 972 l 275 419 l 404 419 l 404 369 l 89 369 m 801 0 q 799 38 799 25 q 831 149 799 100 q 908 231 863 199 q 997 292 953 263 q 1074 360 1042 321 q 1106 446 1106 399 q 1070 531 1106 496 q 979 567 1035 567 q 912 549 944 567 q 864 514 879 532 l 849 497 l 815 533 q 835 557 822 543 q 890 594 847 571 q 979 617 932 617 q 1113 567 1065 617 q 1160 446 1160 518 q 1128 344 1160 389 q 1053 268 1097 299 q 963 209 1008 238 q 886 140 918 181 q 853 50 854 100 l 1171 50 l 1171 0 l 801 0 z "},"¾":{"ha":1326,"x_min":74,"x_max":1239,"o":"m 265 356 q 194 365 228 356 q 140 387 161 374 q 103 414 119 400 q 81 436 88 428 l 74 446 l 113 482 q 129 461 118 474 q 180 427 140 449 q 267 406 219 406 q 365 447 321 406 q 410 546 410 488 q 365 642 410 606 q 261 679 319 679 l 217 679 l 201 713 l 351 889 l 386 924 l 386 926 q 333 922 361 922 l 106 922 l 106 972 l 460 972 l 460 936 l 282 728 q 408 679 353 722 q 464 546 464 636 q 405 411 464 467 q 265 356 346 356 m 444 0 l 383 0 l 850 972 l 910 972 l 444 0 m 1092 0 l 1092 168 l 793 168 l 793 204 l 1101 603 l 1144 603 l 1144 218 l 1239 218 l 1239 168 l 1144 168 l 1144 0 l 1092 0 m 869 218 l 1092 218 l 1092 422 l 1096 513 l 1093 513 q 1044 443 1069 475 l 869 221 l 869 218 z "},"¿":{"ha":596,"x_min":67,"x_max":540,"o":"m 67 -53 q 92 62 67 11 q 155 147 118 113 q 229 215 192 182 q 292 294 267 249 q 318 393 318 339 l 318 451 l 378 451 l 378 393 q 352 279 378 331 q 290 193 326 228 q 217 124 253 158 q 155 45 181 90 q 129 -54 129 0 q 186 -182 129 -131 q 332 -233 243 -233 q 421 -219 376 -233 q 486 -189 465 -204 l 508 -175 l 540 -222 q 514 -242 531 -231 q 443 -272 497 -253 q 333 -292 389 -292 q 141 -224 215 -292 q 67 -53 67 -156 m 307 610 l 307 694 l 389 694 l 389 610 l 307 610 z "},"À":{"ha":842,"x_min":25,"x_max":817,"o":"m 753 0 l 626 336 l 214 336 l 89 0 l 25 0 l 389 972 l 453 972 l 817 0 l 753 0 m 422 903 l 419 903 q 383 786 399 828 l 235 392 l 606 392 l 458 786 l 422 903 m 390 1042 l 281 1196 l 358 1196 l 451 1042 l 390 1042 z "},"Á":{"ha":842,"x_min":25,"x_max":817,"o":"m 753 0 l 626 336 l 214 336 l 89 0 l 25 0 l 389 972 l 453 972 l 817 0 l 753 0 m 422 903 l 419 903 q 383 786 399 828 l 235 392 l 606 392 l 458 786 l 422 903 m 389 1042 l 482 1196 l 560 1196 l 450 1042 l 389 1042 z "},"Â":{"ha":842,"x_min":25,"x_max":817,"o":"m 753 0 l 626 336 l 214 336 l 89 0 l 25 0 l 389 972 l 453 972 l 817 0 l 753 0 m 422 903 l 419 903 q 383 786 399 828 l 235 392 l 606 392 l 458 786 l 422 903 m 274 1042 l 385 1196 l 457 1196 l 568 1042 l 500 1042 l 422 1153 l 419 1153 l 342 1042 l 274 1042 z "},"Ã":{"ha":842,"x_min":25,"x_max":817,"o":"m 753 0 l 626 336 l 214 336 l 89 0 l 25 0 l 389 972 l 453 972 l 817 0 l 753 0 m 422 903 l 419 903 q 383 786 399 828 l 235 392 l 606 392 l 458 786 l 422 903 m 221 1046 q 336 1196 221 1196 q 394 1180 368 1196 q 434 1144 419 1164 q 469 1109 449 1125 q 511 1093 490 1093 q 567 1192 567 1093 l 622 1192 q 507 1042 622 1042 q 449 1058 475 1042 q 409 1093 424 1074 q 374 1128 394 1113 q 332 1144 353 1144 q 276 1046 276 1144 l 221 1046 z "},"Ä":{"ha":842,"x_min":25,"x_max":817,"o":"m 753 0 l 626 336 l 214 336 l 89 0 l 25 0 l 389 972 l 453 972 l 817 0 l 753 0 m 422 903 l 419 903 q 383 786 399 828 l 235 392 l 606 392 l 458 786 l 422 903 m 485 1094 l 485 1196 l 549 1196 l 549 1094 l 485 1094 m 294 1094 l 294 1196 l 358 1196 l 358 1094 l 294 1094 z "},"Å":{"ha":842,"x_min":25,"x_max":817,"o":"m 753 0 l 626 336 l 214 336 l 89 0 l 25 0 l 389 972 l 453 972 l 817 0 l 753 0 m 422 903 l 419 903 q 383 786 399 828 l 235 392 l 606 392 l 458 786 l 422 903 m 488 1054 q 474 1041 488 1054 q 421 1028 461 1028 q 354 1054 381 1028 q 328 1121 328 1081 q 354 1188 328 1161 q 421 1214 381 1214 q 488 1188 461 1214 q 514 1121 514 1161 q 488 1054 514 1081 m 389 1089 q 395 1083 389 1089 q 421 1076 401 1076 q 453 1089 440 1076 q 465 1121 465 1101 q 453 1154 465 1142 q 421 1167 440 1167 q 389 1154 401 1167 q 376 1121 376 1142 q 389 1089 376 1101 z "},"Æ":{"ha":1156,"x_min":22,"x_max":1071,"o":"m 22 0 l 421 972 l 1044 972 l 1044 917 l 572 917 l 572 518 l 960 518 l 960 463 l 572 463 l 572 56 l 1071 56 l 1071 0 l 513 0 l 513 463 l 275 463 l 86 0 l 22 0 m 463 917 l 299 518 l 513 518 l 513 917 l 463 917 z "},"Ç":{"ha":1021,"x_min":86,"x_max":940,"o":"m 86 493 q 224 847 86 704 q 568 989 363 989 q 692 976 632 989 q 790 946 751 964 q 859 910 829 928 q 903 879 889 892 l 915 867 l 879 822 q 866 834 875 826 q 826 860 857 842 q 763 894 796 879 q 676 920 729 908 q 569 932 624 932 q 269 806 390 932 q 149 493 149 681 q 270 172 149 303 q 574 40 392 40 q 688 54 632 40 q 781 87 743 68 q 847 125 818 106 q 889 158 875 144 l 903 172 l 940 131 q 925 115 935 125 q 881 81 915 106 q 808 36 846 56 q 708 1 769 17 q 583 -17 647 -15 l 571 -83 q 640 -115 614 -90 q 667 -178 667 -140 q 631 -258 667 -232 q 540 -283 594 -283 l 479 -278 l 479 -225 q 536 -232 504 -232 q 611 -181 611 -232 q 526 -128 611 -128 l 510 -129 l 533 -15 q 212 144 338 -1 q 86 493 86 289 z "},"È":{"ha":793,"x_min":150,"x_max":708,"o":"m 150 0 l 150 972 l 682 972 l 682 917 l 210 917 l 210 518 l 597 518 l 597 463 l 210 463 l 210 56 l 708 56 l 708 0 l 150 0 m 403 1042 l 293 1196 l 371 1196 l 464 1042 l 403 1042 z "},"É":{"ha":793,"x_min":150,"x_max":708,"o":"m 150 0 l 150 972 l 682 972 l 682 917 l 210 917 l 210 518 l 597 518 l 597 463 l 210 463 l 210 56 l 708 56 l 708 0 l 150 0 m 401 1042 l 494 1196 l 572 1196 l 463 1042 l 401 1042 z "},"Ê":{"ha":793,"x_min":150,"x_max":708,"o":"m 150 0 l 150 972 l 682 972 l 682 917 l 210 917 l 210 518 l 597 518 l 597 463 l 210 463 l 210 56 l 708 56 l 708 0 l 150 0 m 286 1042 l 397 1196 l 469 1196 l 581 1042 l 513 1042 l 435 1153 l 432 1153 l 354 1042 l 286 1042 z "},"Ë":{"ha":793,"x_min":150,"x_max":708,"o":"m 150 0 l 150 972 l 682 972 l 682 917 l 210 917 l 210 518 l 597 518 l 597 463 l 210 463 l 210 56 l 708 56 l 708 0 l 150 0 m 497 1094 l 497 1196 l 561 1196 l 561 1094 l 497 1094 m 307 1094 l 307 1196 l 371 1196 l 371 1094 l 307 1094 z "},"Ì":{"ha":360,"x_min":40,"x_max":211,"o":"m 150 0 l 150 972 l 210 972 l 210 0 l 150 0 m 150 1042 l 40 1196 l 118 1196 l 211 1042 l 150 1042 z "},"Í":{"ha":360,"x_min":149,"x_max":319,"o":"m 150 0 l 150 972 l 210 972 l 210 0 l 150 0 m 149 1042 l 242 1196 l 319 1196 l 210 1042 l 149 1042 z "},"Î":{"ha":360,"x_min":33,"x_max":328,"o":"m 150 0 l 150 972 l 210 972 l 210 0 l 150 0 m 33 1042 l 144 1196 l 217 1196 l 328 1042 l 260 1042 l 182 1153 l 179 1153 l 101 1042 l 33 1042 z "},"Ï":{"ha":360,"x_min":54,"x_max":308,"o":"m 150 0 l 150 972 l 210 972 l 210 0 l 150 0 m 244 1094 l 244 1196 l 308 1196 l 308 1094 l 244 1094 m 54 1094 l 54 1196 l 118 1196 l 118 1094 l 54 1094 z "},"Ð":{"ha":1046,"x_min":83,"x_max":957,"o":"m 83 463 l 83 518 l 167 518 l 167 972 l 472 972 q 824 843 692 972 q 957 486 957 714 q 825 128 957 257 q 472 0 693 0 l 167 0 l 167 463 l 83 463 m 226 56 l 463 56 q 777 168 660 56 q 894 486 894 281 q 777 803 894 690 q 463 917 660 917 l 226 917 l 226 518 l 481 518 l 481 463 l 226 463 l 226 56 z "},"Ñ":{"ha":1044,"x_min":150,"x_max":894,"o":"m 150 0 l 150 972 l 206 972 l 760 210 l 839 88 l 842 88 q 835 210 835 161 l 835 972 l 894 972 l 894 0 l 839 0 l 285 763 l 206 885 l 203 885 q 210 763 210 811 l 210 0 l 150 0 m 322 1046 q 438 1196 322 1196 q 495 1180 469 1196 q 535 1144 521 1164 q 571 1109 550 1125 q 613 1093 592 1093 q 668 1192 668 1093 l 724 1192 q 608 1042 724 1042 q 551 1058 576 1042 q 510 1093 525 1074 q 475 1128 496 1113 q 433 1144 454 1144 q 378 1046 378 1144 l 322 1046 z "},"Ò":{"ha":1147,"x_min":82,"x_max":1065,"o":"m 82 493 q 226 845 82 701 q 574 989 369 989 q 922 845 778 989 q 1065 493 1065 701 q 922 131 1065 279 q 574 -17 778 -17 q 226 131 369 -17 q 82 493 82 279 m 144 493 q 269 172 144 303 q 574 40 394 40 q 878 172 753 40 q 1003 493 1003 303 q 878 806 1003 679 q 574 932 753 932 q 269 806 394 932 q 144 493 144 679 m 543 1042 l 433 1196 l 511 1196 l 604 1042 l 543 1042 z "},"Ó":{"ha":1147,"x_min":82,"x_max":1065,"o":"m 82 493 q 226 845 82 701 q 574 989 369 989 q 922 845 778 989 q 1065 493 1065 701 q 922 131 1065 279 q 574 -17 778 -17 q 226 131 369 -17 q 82 493 82 279 m 144 493 q 269 172 144 303 q 574 40 394 40 q 878 172 753 40 q 1003 493 1003 303 q 878 806 1003 679 q 574 932 753 932 q 269 806 394 932 q 144 493 144 679 m 542 1042 l 635 1196 l 713 1196 l 603 1042 l 542 1042 z "},"Ô":{"ha":1147,"x_min":82,"x_max":1065,"o":"m 82 493 q 226 845 82 701 q 574 989 369 989 q 922 845 778 989 q 1065 493 1065 701 q 922 131 1065 279 q 574 -17 778 -17 q 226 131 369 -17 q 82 493 82 279 m 144 493 q 269 172 144 303 q 574 40 394 40 q 878 172 753 40 q 1003 493 1003 303 q 878 806 1003 679 q 574 932 753 932 q 269 806 394 932 q 144 493 144 679 m 426 1042 l 538 1196 l 610 1196 l 721 1042 l 653 1042 l 575 1153 l 572 1153 l 494 1042 l 426 1042 z "},"Õ":{"ha":1147,"x_min":82,"x_max":1065,"o":"m 82 493 q 226 845 82 701 q 574 989 369 989 q 922 845 778 989 q 1065 493 1065 701 q 922 131 1065 279 q 574 -17 778 -17 q 226 131 369 -17 q 82 493 82 279 m 144 493 q 269 172 144 303 q 574 40 394 40 q 878 172 753 40 q 1003 493 1003 303 q 878 806 1003 679 q 574 932 753 932 q 269 806 394 932 q 144 493 144 679 m 374 1046 q 489 1196 374 1196 q 547 1180 521 1196 q 587 1144 572 1164 q 622 1109 601 1125 q 664 1093 643 1093 q 719 1192 719 1093 l 775 1192 q 660 1042 775 1042 q 602 1058 628 1042 q 562 1093 576 1074 q 526 1128 547 1113 q 485 1144 506 1144 q 429 1046 429 1144 l 374 1046 z "},"Ö":{"ha":1147,"x_min":82,"x_max":1065,"o":"m 82 493 q 226 845 82 701 q 574 989 369 989 q 922 845 778 989 q 1065 493 1065 701 q 922 131 1065 279 q 574 -17 778 -17 q 226 131 369 -17 q 82 493 82 279 m 144 493 q 269 172 144 303 q 574 40 394 40 q 878 172 753 40 q 1003 493 1003 303 q 878 806 1003 679 q 574 932 753 932 q 269 806 394 932 q 144 493 144 679 m 638 1094 l 638 1196 l 701 1196 l 701 1094 l 638 1094 m 447 1094 l 447 1196 l 511 1196 l 511 1094 l 447 1094 z "},"×":{"ha":914,"x_min":108,"x_max":806,"o":"m 108 39 l 419 393 l 108 747 l 147 786 l 457 435 l 767 786 l 806 747 l 493 393 l 806 39 l 767 0 l 457 351 l 147 0 l 108 39 z "},"Ø":{"ha":1154,"x_min":86,"x_max":1069,"o":"m 86 493 q 230 845 86 701 q 578 989 374 989 q 844 910 721 989 l 913 1006 l 960 971 l 892 875 q 1022 706 975 806 q 1069 493 1069 607 q 926 131 1069 279 q 578 -17 782 -17 q 311 64 433 -17 l 243 -32 l 194 1 l 264 99 q 133 272 181 169 q 86 493 86 375 m 1007 493 q 967 680 1007 593 q 857 828 928 767 l 344 111 q 578 40 447 40 q 882 172 757 40 q 1007 493 1007 303 m 149 493 q 299 147 149 282 l 810 863 q 578 932 706 932 q 274 806 399 932 q 149 493 149 679 z "},"Ù":{"ha":999,"x_min":136,"x_max":863,"o":"m 136 333 l 136 972 l 196 972 l 196 336 q 278 120 196 200 q 499 40 360 40 q 720 120 638 40 q 803 339 803 200 l 803 972 l 863 972 l 863 333 q 762 78 863 174 q 500 -17 661 -17 q 237 79 338 -17 q 136 333 136 175 m 468 1042 l 358 1196 l 436 1196 l 529 1042 l 468 1042 z "},"Ú":{"ha":999,"x_min":136,"x_max":863,"o":"m 136 333 l 136 972 l 196 972 l 196 336 q 278 120 196 200 q 499 40 360 40 q 720 120 638 40 q 803 339 803 200 l 803 972 l 863 972 l 863 333 q 762 78 863 174 q 500 -17 661 -17 q 237 79 338 -17 q 136 333 136 175 m 467 1042 l 560 1196 l 638 1196 l 528 1042 l 467 1042 z "},"Û":{"ha":999,"x_min":136,"x_max":863,"o":"m 136 333 l 136 972 l 196 972 l 196 336 q 278 120 196 200 q 499 40 360 40 q 720 120 638 40 q 803 339 803 200 l 803 972 l 863 972 l 863 333 q 762 78 863 174 q 500 -17 661 -17 q 237 79 338 -17 q 136 333 136 175 m 351 1042 l 463 1196 l 535 1196 l 646 1042 l 578 1042 l 500 1153 l 497 1153 l 419 1042 l 351 1042 z "},"Ü":{"ha":999,"x_min":136,"x_max":863,"o":"m 136 333 l 136 972 l 196 972 l 196 336 q 278 120 196 200 q 499 40 360 40 q 720 120 638 40 q 803 339 803 200 l 803 972 l 863 972 l 863 333 q 762 78 863 174 q 500 -17 661 -17 q 237 79 338 -17 q 136 333 136 175 m 563 1094 l 563 1196 l 626 1196 l 626 1094 l 563 1094 m 372 1094 l 372 1196 l 436 1196 l 436 1094 l 372 1094 z "},"Ý":{"ha":772,"x_min":26,"x_max":746,"o":"m 357 0 l 357 422 l 26 972 l 94 972 l 325 589 l 385 479 l 388 479 q 447 589 418 542 l 678 972 l 746 972 l 417 422 l 417 0 l 357 0 m 354 1042 l 447 1196 l 525 1196 l 415 1042 l 354 1042 z "},"Þ":{"ha":825,"x_min":150,"x_max":765,"o":"m 150 0 l 150 972 l 210 972 l 210 792 l 469 792 q 682 715 599 792 q 765 508 765 638 q 682 300 765 378 q 467 222 599 222 l 210 222 l 210 0 l 150 0 m 210 278 l 467 278 q 639 339 575 278 q 703 508 703 400 q 639 676 703 617 q 467 736 575 736 l 210 736 l 210 278 z "},"ß":{"ha":782,"x_min":122,"x_max":732,"o":"m 122 0 l 122 739 q 201 922 122 854 q 383 989 279 989 q 547 931 486 989 q 607 797 607 874 q 581 701 607 746 q 523 631 554 657 q 465 573 492 606 q 439 511 439 540 q 485 441 439 478 q 585 373 531 404 q 686 290 640 342 q 732 178 732 238 q 669 39 732 88 q 518 -10 607 -10 q 405 2 458 -10 q 328 26 351 14 l 304 39 l 304 103 q 519 47 392 47 q 627 81 583 47 q 671 178 671 114 q 641 254 671 218 q 568 317 611 290 q 481 372 525 344 q 408 433 438 399 q 378 508 378 468 q 404 589 378 550 q 462 653 431 628 q 519 718 493 679 q 546 797 546 757 q 502 891 546 850 q 381 932 458 932 q 241 878 301 932 q 181 735 181 825 l 181 0 l 122 0 z "},"à":{"ha":713,"x_min":65,"x_max":600,"o":"m 65 185 q 83 272 65 233 q 128 335 101 311 q 197 378 154 360 q 274 404 239 396 q 357 417 308 413 q 432 423 406 422 q 496 424 458 424 l 542 424 l 542 447 q 351 654 542 654 q 248 638 297 654 q 175 604 199 621 l 153 588 l 119 635 q 147 656 129 643 q 226 690 165 668 q 354 711 288 711 q 538 644 475 711 q 600 449 600 578 l 600 0 l 542 0 l 542 92 l 547 154 l 544 154 q 538 137 546 154 q 511 94 529 119 q 466 44 493 69 q 395 1 439 18 q 301 -17 351 -17 q 136 35 207 -17 q 65 185 65 88 m 126 189 q 174 83 126 129 q 304 38 221 38 q 476 128 411 38 q 542 332 542 219 l 542 369 l 497 369 q 427 369 454 369 q 349 363 400 368 q 266 347 299 358 q 198 316 233 335 q 144 265 163 297 q 126 189 126 232 m 324 818 l 214 972 l 292 972 l 385 818 l 324 818 z "},"á":{"ha":713,"x_min":65,"x_max":600,"o":"m 65 185 q 83 272 65 233 q 128 335 101 311 q 197 378 154 360 q 274 404 239 396 q 357 417 308 413 q 432 423 406 422 q 496 424 458 424 l 542 424 l 542 447 q 351 654 542 654 q 248 638 297 654 q 175 604 199 621 l 153 588 l 119 635 q 147 656 129 643 q 226 690 165 668 q 354 711 288 711 q 538 644 475 711 q 600 449 600 578 l 600 0 l 542 0 l 542 92 l 547 154 l 544 154 q 538 137 546 154 q 511 94 529 119 q 466 44 493 69 q 395 1 439 18 q 301 -17 351 -17 q 136 35 207 -17 q 65 185 65 88 m 126 189 q 174 83 126 129 q 304 38 221 38 q 476 128 411 38 q 542 332 542 219 l 542 369 l 497 369 q 427 369 454 369 q 349 363 400 368 q 266 347 299 358 q 198 316 233 335 q 144 265 163 297 q 126 189 126 232 m 321 818 l 414 972 l 492 972 l 382 818 l 321 818 z "},"â":{"ha":713,"x_min":65,"x_max":600,"o":"m 65 185 q 83 272 65 233 q 128 335 101 311 q 197 378 154 360 q 274 404 239 396 q 357 417 308 413 q 432 423 406 422 q 496 424 458 424 l 542 424 l 542 447 q 351 654 542 654 q 248 638 297 654 q 175 604 199 621 l 153 588 l 119 635 q 147 656 129 643 q 226 690 165 668 q 354 711 288 711 q 538 644 475 711 q 600 449 600 578 l 600 0 l 542 0 l 542 92 l 547 154 l 544 154 q 538 137 546 154 q 511 94 529 119 q 466 44 493 69 q 395 1 439 18 q 301 -17 351 -17 q 136 35 207 -17 q 65 185 65 88 m 126 189 q 174 83 126 129 q 304 38 221 38 q 476 128 411 38 q 542 332 542 219 l 542 369 l 497 369 q 427 369 454 369 q 349 363 400 368 q 266 347 299 358 q 198 316 233 335 q 144 265 163 297 q 126 189 126 232 m 207 818 l 318 972 l 390 972 l 501 818 l 433 818 l 356 929 l 353 929 l 275 818 l 207 818 z "},"ã":{"ha":713,"x_min":65,"x_max":600,"o":"m 65 185 q 83 272 65 233 q 128 335 101 311 q 197 378 154 360 q 274 404 239 396 q 357 417 308 413 q 432 423 406 422 q 496 424 458 424 l 542 424 l 542 447 q 351 654 542 654 q 248 638 297 654 q 175 604 199 621 l 153 588 l 119 635 q 147 656 129 643 q 226 690 165 668 q 354 711 288 711 q 538 644 475 711 q 600 449 600 578 l 600 0 l 542 0 l 542 92 l 547 154 l 544 154 q 538 137 546 154 q 511 94 529 119 q 466 44 493 69 q 395 1 439 18 q 301 -17 351 -17 q 136 35 207 -17 q 65 185 65 88 m 126 189 q 174 83 126 129 q 304 38 221 38 q 476 128 411 38 q 542 332 542 219 l 542 369 l 497 369 q 427 369 454 369 q 349 363 400 368 q 266 347 299 358 q 198 316 233 335 q 144 265 163 297 q 126 189 126 232 m 154 822 q 269 972 154 972 q 327 956 301 972 q 367 921 353 940 q 403 885 382 901 q 444 869 424 869 q 500 968 500 869 l 556 968 q 440 818 556 818 q 383 834 408 818 q 342 869 357 850 q 307 905 328 889 q 265 921 286 921 q 210 822 210 921 l 154 822 z "},"ä":{"ha":713,"x_min":65,"x_max":600,"o":"m 65 185 q 83 272 65 233 q 128 335 101 311 q 197 378 154 360 q 274 404 239 396 q 357 417 308 413 q 432 423 406 422 q 496 424 458 424 l 542 424 l 542 447 q 351 654 542 654 q 248 638 297 654 q 175 604 199 621 l 153 588 l 119 635 q 147 656 129 643 q 226 690 165 668 q 354 711 288 711 q 538 644 475 711 q 600 449 600 578 l 600 0 l 542 0 l 542 92 l 547 154 l 544 154 q 538 137 546 154 q 511 94 529 119 q 466 44 493 69 q 395 1 439 18 q 301 -17 351 -17 q 136 35 207 -17 q 65 185 65 88 m 126 189 q 174 83 126 129 q 304 38 221 38 q 476 128 411 38 q 542 332 542 219 l 542 369 l 497 369 q 427 369 454 369 q 349 363 400 368 q 266 347 299 358 q 198 316 233 335 q 144 265 163 297 q 126 189 126 232 m 418 871 l 418 972 l 482 972 l 482 871 l 418 871 m 228 871 l 228 972 l 292 972 l 292 871 l 228 871 z "},"å":{"ha":713,"x_min":65,"x_max":600,"o":"m 65 185 q 83 272 65 233 q 128 335 101 311 q 197 378 154 360 q 274 404 239 396 q 357 417 308 413 q 432 423 406 422 q 496 424 458 424 l 542 424 l 542 447 q 351 654 542 654 q 248 638 297 654 q 175 604 199 621 l 153 588 l 119 635 q 147 656 129 643 q 226 690 165 668 q 354 711 288 711 q 538 644 475 711 q 600 449 600 578 l 600 0 l 542 0 l 542 92 l 547 154 l 544 154 q 538 137 546 154 q 511 94 529 119 q 466 44 493 69 q 395 1 439 18 q 301 -17 351 -17 q 136 35 207 -17 q 65 185 65 88 m 126 189 q 174 83 126 129 q 304 38 221 38 q 476 128 411 38 q 542 332 542 219 l 542 369 l 497 369 q 427 369 454 369 q 349 363 400 368 q 266 347 299 358 q 198 316 233 335 q 144 265 163 297 q 126 189 126 232 m 421 831 q 408 818 421 831 q 354 804 394 804 q 288 831 314 804 q 261 897 261 858 q 288 963 261 936 q 354 990 314 990 q 421 963 394 990 q 447 897 447 936 q 421 831 447 858 m 322 865 q 328 859 322 865 q 354 853 335 853 q 386 865 374 853 q 399 897 399 878 q 386 931 399 918 q 354 943 374 943 q 322 931 335 943 q 310 897 310 918 q 322 865 310 878 z "},"æ":{"ha":1219,"x_min":67,"x_max":1146,"o":"m 67 185 q 82 269 67 232 q 120 331 97 307 q 181 372 143 354 q 251 397 218 389 q 332 410 283 406 q 410 416 381 415 q 486 417 440 417 l 542 417 l 542 447 q 346 654 542 654 q 246 638 294 654 q 175 604 197 621 l 153 588 l 119 635 q 147 656 129 643 q 224 690 164 668 q 349 711 283 711 q 588 549 549 711 l 590 549 q 703 670 632 629 q 865 711 775 711 q 1072 622 999 711 q 1146 401 1146 533 l 1143 363 l 600 363 q 678 125 600 210 q 883 40 757 40 q 997 62 943 40 q 1075 106 1050 83 l 1099 128 l 1131 79 q 1099 52 1119 68 q 1015 10 1079 36 q 883 -17 950 -17 q 692 40 775 -17 q 571 196 608 96 l 568 196 q 549 146 564 175 q 506 77 535 117 q 425 10 478 38 q 306 -17 372 -17 q 135 36 204 -17 q 67 185 67 89 m 606 417 l 1085 417 q 1015 596 1079 536 q 861 656 951 656 q 692 594 761 656 q 606 417 622 533 m 128 189 q 175 82 128 126 q 306 38 222 38 q 477 128 413 38 q 542 332 542 219 l 542 363 l 446 363 q 363 360 399 363 q 280 349 328 358 q 202 322 232 339 q 150 270 172 304 q 128 189 128 236 z "},"ç":{"ha":767,"x_min":75,"x_max":696,"o":"m 75 346 q 180 609 75 507 q 433 711 285 711 q 569 686 507 711 q 656 636 631 661 l 682 613 l 646 565 q 620 590 638 575 q 548 629 603 604 q 433 654 493 654 q 222 569 308 654 q 136 346 136 483 q 222 125 136 210 q 433 40 308 40 q 559 65 501 40 q 642 115 617 90 l 665 140 l 696 92 q 685 81 692 88 q 653 55 678 74 q 602 22 629 36 q 531 -3 575 8 q 440 -17 488 -15 l 428 -83 q 497 -115 471 -90 q 524 -178 524 -140 q 488 -258 524 -232 q 397 -283 451 -283 l 336 -278 l 336 -225 q 393 -232 361 -232 q 468 -181 468 -232 q 383 -128 468 -128 l 367 -129 l 392 -14 q 165 98 254 0 q 75 346 75 196 z "},"è":{"ha":768,"x_min":74,"x_max":694,"o":"m 74 346 q 172 613 74 515 q 411 711 271 711 q 620 620 546 711 q 694 394 694 529 l 692 357 l 135 357 q 220 126 135 211 q 432 40 306 40 q 545 62 492 40 q 622 106 599 83 l 647 128 l 679 79 q 648 52 668 68 q 563 10 628 36 q 432 -17 499 -17 q 177 84 281 -17 q 74 346 74 185 m 139 411 l 633 411 q 565 594 628 532 q 410 657 503 657 q 233 592 308 657 q 139 411 157 528 m 385 818 l 275 972 l 353 972 l 446 818 l 385 818 z "},"é":{"ha":768,"x_min":74,"x_max":694,"o":"m 74 346 q 172 613 74 515 q 411 711 271 711 q 620 620 546 711 q 694 394 694 529 l 692 357 l 135 357 q 220 126 135 211 q 432 40 306 40 q 545 62 492 40 q 622 106 599 83 l 647 128 l 679 79 q 648 52 668 68 q 563 10 628 36 q 432 -17 499 -17 q 177 84 281 -17 q 74 346 74 185 m 139 411 l 633 411 q 565 594 628 532 q 410 657 503 657 q 233 592 308 657 q 139 411 157 528 m 382 818 l 475 972 l 553 972 l 443 818 l 382 818 z "},"ê":{"ha":768,"x_min":74,"x_max":694,"o":"m 74 346 q 172 613 74 515 q 411 711 271 711 q 620 620 546 711 q 694 394 694 529 l 692 357 l 135 357 q 220 126 135 211 q 432 40 306 40 q 545 62 492 40 q 622 106 599 83 l 647 128 l 679 79 q 648 52 668 68 q 563 10 628 36 q 432 -17 499 -17 q 177 84 281 -17 q 74 346 74 185 m 139 411 l 633 411 q 565 594 628 532 q 410 657 503 657 q 233 592 308 657 q 139 411 157 528 m 267 818 l 378 972 l 450 972 l 561 818 l 493 818 l 415 929 l 413 929 l 335 818 l 267 818 z "},"ë":{"ha":768,"x_min":74,"x_max":694,"o":"m 74 346 q 172 613 74 515 q 411 711 271 711 q 620 620 546 711 q 694 394 694 529 l 692 357 l 135 357 q 220 126 135 211 q 432 40 306 40 q 545 62 492 40 q 622 106 599 83 l 647 128 l 679 79 q 648 52 668 68 q 563 10 628 36 q 432 -17 499 -17 q 177 84 281 -17 q 74 346 74 185 m 139 411 l 633 411 q 565 594 628 532 q 410 657 503 657 q 233 592 308 657 q 139 411 157 528 m 478 871 l 478 972 l 542 972 l 542 871 l 478 871 m 288 871 l 288 972 l 351 972 l 351 871 l 288 871 z "},"ì":{"ha":303,"x_min":13,"x_max":183,"o":"m 122 0 l 122 694 l 181 694 l 181 0 l 122 0 m 122 818 l 13 972 l 90 972 l 183 818 l 122 818 z "},"í":{"ha":303,"x_min":121,"x_max":292,"o":"m 122 0 l 122 694 l 181 694 l 181 0 l 122 0 m 121 818 l 214 972 l 292 972 l 182 818 l 121 818 z "},"î":{"ha":303,"x_min":6,"x_max":300,"o":"m 122 0 l 122 694 l 181 694 l 181 0 l 122 0 m 6 818 l 117 972 l 189 972 l 300 818 l 232 818 l 154 929 l 151 929 l 74 818 l 6 818 z "},"ï":{"ha":303,"x_min":26,"x_max":281,"o":"m 122 0 l 122 694 l 181 694 l 181 0 l 122 0 m 217 871 l 217 972 l 281 972 l 281 871 l 217 871 m 26 871 l 26 972 l 90 972 l 90 871 l 26 871 z "},"ð":{"ha":818,"x_min":76,"x_max":725,"o":"m 161 84 q 119 134 161 84 q 76 319 76 185 q 165 552 76 454 q 411 650 253 650 q 535 627 479 650 q 614 581 592 604 l 636 558 l 639 558 q 449 813 589 715 l 210 701 l 186 753 l 389 847 q 176 926 297 896 l 193 979 q 454 876 351 939 l 625 957 l 649 906 l 508 840 q 725 375 725 675 q 705 235 725 303 q 645 110 685 168 q 539 18 606 53 q 389 -17 472 -17 q 161 84 246 -17 m 208 513 q 173 473 208 513 q 138 319 138 432 q 207 123 138 207 q 392 39 276 39 q 546 91 482 39 q 637 215 610 143 q 664 365 664 286 q 594 530 664 465 q 410 594 524 594 q 208 513 279 594 z "},"ñ":{"ha":814,"x_min":122,"x_max":701,"o":"m 122 0 l 122 694 l 181 694 l 181 572 l 175 515 l 178 515 q 279 647 201 582 q 472 711 357 711 q 651 642 600 711 q 701 440 701 574 l 701 0 l 643 0 l 643 419 q 640 491 643 461 q 628 553 638 521 q 600 607 618 586 q 549 641 582 628 q 472 654 517 654 q 297 592 375 654 q 192 433 218 531 q 181 339 181 394 l 181 0 l 122 0 m 228 822 q 343 972 228 972 q 401 956 375 972 q 441 921 426 940 q 476 885 456 901 q 518 869 497 869 q 574 968 574 869 l 629 968 q 514 818 629 818 q 456 834 482 818 q 416 869 431 850 q 381 905 401 889 q 339 921 360 921 q 283 822 283 921 l 228 822 z "},"ò":{"ha":861,"x_min":71,"x_max":790,"o":"m 71 351 q 176 607 71 503 q 431 711 281 711 q 685 607 581 711 q 790 351 790 503 q 685 90 790 197 q 431 -17 581 -17 q 176 90 281 -17 q 71 351 71 197 m 132 351 q 219 130 132 219 q 431 40 306 40 q 642 130 556 40 q 729 351 729 219 q 642 567 729 479 q 431 654 556 654 q 219 567 306 654 q 132 351 132 479 m 400 818 l 290 972 l 368 972 l 461 818 l 400 818 z "},"ó":{"ha":861,"x_min":71,"x_max":790,"o":"m 71 351 q 176 607 71 503 q 431 711 281 711 q 685 607 581 711 q 790 351 790 503 q 685 90 790 197 q 431 -17 581 -17 q 176 90 281 -17 q 71 351 71 197 m 132 351 q 219 130 132 219 q 431 40 306 40 q 642 130 556 40 q 729 351 729 219 q 642 567 729 479 q 431 654 556 654 q 219 567 306 654 q 132 351 132 479 m 399 818 l 492 972 l 569 972 l 460 818 l 399 818 z "},"ô":{"ha":861,"x_min":71,"x_max":790,"o":"m 71 351 q 176 607 71 503 q 431 711 281 711 q 685 607 581 711 q 790 351 790 503 q 685 90 790 197 q 431 -17 581 -17 q 176 90 281 -17 q 71 351 71 197 m 132 351 q 219 130 132 219 q 431 40 306 40 q 642 130 556 40 q 729 351 729 219 q 642 567 729 479 q 431 654 556 654 q 219 567 306 654 q 132 351 132 479 m 283 818 l 394 972 l 467 972 l 578 818 l 510 818 l 432 929 l 429 929 l 351 818 l 283 818 z "},"õ":{"ha":861,"x_min":71,"x_max":790,"o":"m 71 351 q 176 607 71 503 q 431 711 281 711 q 685 607 581 711 q 790 351 790 503 q 685 90 790 197 q 431 -17 581 -17 q 176 90 281 -17 q 71 351 71 197 m 132 351 q 219 130 132 219 q 431 40 306 40 q 642 130 556 40 q 729 351 729 219 q 642 567 729 479 q 431 654 556 654 q 219 567 306 654 q 132 351 132 479 m 231 822 q 346 972 231 972 q 403 956 378 972 q 444 921 429 940 q 479 885 458 901 q 521 869 500 869 q 576 968 576 869 l 632 968 q 517 818 632 818 q 459 834 485 818 q 419 869 433 850 q 383 905 404 889 q 342 921 363 921 q 286 822 286 921 l 231 822 z "},"ö":{"ha":861,"x_min":71,"x_max":790,"o":"m 71 351 q 176 607 71 503 q 431 711 281 711 q 685 607 581 711 q 790 351 790 503 q 685 90 790 197 q 431 -17 581 -17 q 176 90 281 -17 q 71 351 71 197 m 132 351 q 219 130 132 219 q 431 40 306 40 q 642 130 556 40 q 729 351 729 219 q 642 567 729 479 q 431 654 556 654 q 219 567 306 654 q 132 351 132 479 m 494 871 l 494 972 l 558 972 l 558 871 l 494 871 m 304 871 l 304 972 l 368 972 l 368 871 l 304 871 z "},"÷":{"ha":919,"x_min":129,"x_max":790,"o":"m 419 599 l 419 681 l 499 681 l 499 599 l 419 599 m 129 365 l 129 421 l 790 421 l 790 365 l 129 365 m 419 106 l 419 188 l 499 188 l 499 106 l 419 106 z "},"ø":{"ha":864,"x_min":72,"x_max":792,"o":"m 72 351 q 177 607 72 503 q 432 711 282 711 q 624 657 538 711 l 676 731 l 724 694 l 671 621 q 792 351 792 514 q 687 90 792 197 q 432 -17 582 -17 q 251 32 332 -17 l 200 -40 l 153 -4 l 203 67 q 72 351 72 175 m 133 351 q 236 114 133 207 l 590 610 q 432 654 517 654 q 220 567 307 654 q 133 351 133 479 m 731 351 q 636 572 731 485 l 285 79 q 432 40 351 40 q 644 130 557 40 q 731 351 731 219 z "},"ù":{"ha":807,"x_min":113,"x_max":685,"o":"m 113 254 l 113 694 l 171 694 l 171 275 q 174 203 171 233 q 186 141 176 174 q 214 88 196 108 q 265 53 232 67 q 342 40 297 40 q 547 134 467 40 q 626 356 626 228 l 626 694 l 685 694 l 685 0 l 626 0 l 626 122 l 632 179 l 629 179 q 529 48 606 113 q 342 -17 453 -17 q 165 50 218 -17 q 113 254 113 117 m 369 818 l 260 972 l 338 972 l 431 818 l 369 818 z "},"ú":{"ha":807,"x_min":113,"x_max":685,"o":"m 113 254 l 113 694 l 171 694 l 171 275 q 174 203 171 233 q 186 141 176 174 q 214 88 196 108 q 265 53 232 67 q 342 40 297 40 q 547 134 467 40 q 626 356 626 228 l 626 694 l 685 694 l 685 0 l 626 0 l 626 122 l 632 179 l 629 179 q 529 48 606 113 q 342 -17 453 -17 q 165 50 218 -17 q 113 254 113 117 m 367 818 l 460 972 l 538 972 l 428 818 l 367 818 z "},"û":{"ha":807,"x_min":113,"x_max":685,"o":"m 113 254 l 113 694 l 171 694 l 171 275 q 174 203 171 233 q 186 141 176 174 q 214 88 196 108 q 265 53 232 67 q 342 40 297 40 q 547 134 467 40 q 626 356 626 228 l 626 694 l 685 694 l 685 0 l 626 0 l 626 122 l 632 179 l 629 179 q 529 48 606 113 q 342 -17 453 -17 q 165 50 218 -17 q 113 254 113 117 m 251 818 l 363 972 l 435 972 l 546 818 l 478 818 l 400 929 l 397 929 l 319 818 l 251 818 z "},"ü":{"ha":807,"x_min":113,"x_max":685,"o":"m 113 254 l 113 694 l 171 694 l 171 275 q 174 203 171 233 q 186 141 176 174 q 214 88 196 108 q 265 53 232 67 q 342 40 297 40 q 547 134 467 40 q 626 356 626 228 l 626 694 l 685 694 l 685 0 l 626 0 l 626 122 l 632 179 l 629 179 q 529 48 606 113 q 342 -17 453 -17 q 165 50 218 -17 q 113 254 113 117 m 463 871 l 463 972 l 526 972 l 526 871 l 463 871 m 272 871 l 272 972 l 336 972 l 336 871 l 272 871 z "},"ý":{"ha":679,"x_min":11,"x_max":657,"o":"m 11 -253 l 38 -203 q 124 -236 76 -236 q 260 -111 207 -236 l 310 4 l 22 694 l 85 694 l 314 140 l 339 75 l 342 75 q 365 140 351 107 l 594 694 l 657 694 l 300 -162 q 124 -292 246 -292 q 66 -282 94 -292 q 25 -262 38 -272 l 11 -253 m 308 818 l 401 972 l 479 972 l 369 818 l 308 818 z "},"þ":{"ha":804,"x_min":122,"x_max":729,"o":"m 122 -278 l 122 972 l 181 972 l 181 618 l 179 563 l 182 563 q 190 578 185 568 q 214 615 194 589 q 258 660 233 640 q 329 695 283 679 q 429 711 375 711 q 648 611 567 711 q 729 347 729 511 q 643 83 729 183 q 421 -17 557 -17 q 327 -1 371 -17 q 258 36 283 14 q 213 81 232 58 q 188 118 194 103 l 181 133 l 178 133 q 181 72 181 108 l 181 -278 l 122 -278 m 179 346 q 244 131 179 222 q 421 39 310 39 q 597 122 526 39 q 668 347 668 206 q 601 570 668 486 q 426 654 533 654 q 250 577 321 654 q 179 346 179 500 z "},"ÿ":{"ha":679,"x_min":11,"x_max":657,"o":"m 11 -253 l 38 -203 q 124 -236 76 -236 q 260 -111 207 -236 l 310 4 l 22 694 l 85 694 l 314 140 l 339 75 l 342 75 q 365 140 351 107 l 594 694 l 657 694 l 300 -162 q 124 -292 246 -292 q 66 -282 94 -292 q 25 -262 38 -272 l 11 -253 m 404 871 l 404 972 l 468 972 l 468 871 l 404 871 m 214 871 l 214 972 l 278 972 l 278 871 l 214 871 z "},"Ā":{"ha":842,"x_min":25,"x_max":817,"o":"m 753 0 l 626 336 l 214 336 l 89 0 l 25 0 l 389 972 l 453 972 l 817 0 l 753 0 m 422 903 l 419 903 q 383 786 399 828 l 235 392 l 606 392 l 458 786 l 422 903 m 256 1092 l 256 1147 l 588 1147 l 588 1092 l 256 1092 z "},"ā":{"ha":713,"x_min":65,"x_max":600,"o":"m 65 185 q 83 272 65 233 q 128 335 101 311 q 197 378 154 360 q 274 404 239 396 q 357 417 308 413 q 432 423 406 422 q 496 424 458 424 l 542 424 l 542 447 q 351 654 542 654 q 248 638 297 654 q 175 604 199 621 l 153 588 l 119 635 q 147 656 129 643 q 226 690 165 668 q 354 711 288 711 q 538 644 475 711 q 600 449 600 578 l 600 0 l 542 0 l 542 92 l 547 154 l 544 154 q 538 137 546 154 q 511 94 529 119 q 466 44 493 69 q 395 1 439 18 q 301 -17 351 -17 q 136 35 207 -17 q 65 185 65 88 m 126 189 q 174 83 126 129 q 304 38 221 38 q 476 128 411 38 q 542 332 542 219 l 542 369 l 497 369 q 427 369 454 369 q 349 363 400 368 q 266 347 299 358 q 198 316 233 335 q 144 265 163 297 q 126 189 126 232 m 189 868 l 189 924 l 521 924 l 521 868 l 189 868 z "},"Ă":{"ha":842,"x_min":25,"x_max":817,"o":"m 753 0 l 626 336 l 214 336 l 89 0 l 25 0 l 389 972 l 453 972 l 817 0 l 753 0 m 422 903 l 419 903 q 383 786 399 828 l 235 392 l 606 392 l 458 786 l 422 903 m 519 1073 q 499 1055 519 1073 q 421 1038 478 1038 q 322 1073 364 1038 q 281 1174 281 1108 l 281 1196 l 336 1196 l 336 1176 q 360 1112 336 1133 q 421 1090 383 1090 q 481 1112 457 1090 q 506 1178 506 1133 l 506 1196 l 561 1196 l 561 1174 q 519 1073 561 1108 z "},"ă":{"ha":713,"x_min":65,"x_max":600,"o":"m 65 185 q 83 272 65 233 q 128 335 101 311 q 197 378 154 360 q 274 404 239 396 q 357 417 308 413 q 432 423 406 422 q 496 424 458 424 l 542 424 l 542 447 q 351 654 542 654 q 248 638 297 654 q 175 604 199 621 l 153 588 l 119 635 q 147 656 129 643 q 226 690 165 668 q 354 711 288 711 q 538 644 475 711 q 600 449 600 578 l 600 0 l 542 0 l 542 92 l 547 154 l 544 154 q 538 137 546 154 q 511 94 529 119 q 466 44 493 69 q 395 1 439 18 q 301 -17 351 -17 q 136 35 207 -17 q 65 185 65 88 m 126 189 q 174 83 126 129 q 304 38 221 38 q 476 128 411 38 q 542 332 542 219 l 542 369 l 497 369 q 427 369 454 369 q 349 363 400 368 q 266 347 299 358 q 198 316 233 335 q 144 265 163 297 q 126 189 126 232 m 453 849 q 432 832 453 849 q 354 814 411 814 q 256 849 297 814 q 214 950 214 885 l 214 972 l 269 972 l 269 953 q 293 888 269 910 q 354 867 317 867 q 415 888 390 867 q 439 954 439 910 l 439 972 l 494 972 l 494 950 q 453 849 494 885 z "},"Ą":{"ha":842,"x_min":25,"x_max":817,"o":"m 643 -157 q 665 -83 643 -119 q 709 -26 688 -46 q 750 6 731 -7 l 626 336 l 214 336 l 89 0 l 25 0 l 389 972 l 453 972 l 817 0 q 706 -151 706 -82 q 729 -201 706 -182 q 776 -225 753 -221 l 800 -229 l 788 -283 q 772 -282 782 -283 q 738 -273 763 -281 q 693 -253 713 -265 q 658 -215 674 -240 q 643 -157 643 -190 m 422 903 l 419 903 q 383 786 399 828 l 235 392 l 606 392 l 458 786 l 422 903 z "},"ą":{"ha":713,"x_min":65,"x_max":600,"o":"m 65 185 q 83 272 65 233 q 128 335 101 311 q 197 378 154 360 q 274 404 239 396 q 357 417 308 413 q 432 423 406 422 q 496 424 458 424 l 542 424 l 542 447 q 351 654 542 654 q 248 638 297 654 q 175 604 199 621 l 153 588 l 119 635 q 147 656 129 643 q 226 690 165 668 q 354 711 288 711 q 538 644 475 711 q 600 449 600 578 l 600 0 q 489 -151 489 -82 q 513 -201 489 -182 q 560 -225 536 -221 l 583 -229 l 571 -283 q 556 -282 565 -283 q 521 -273 546 -281 q 476 -253 496 -265 q 442 -215 457 -240 q 426 -157 426 -190 q 456 -72 426 -114 q 508 -12 485 -31 q 542 11 531 6 l 542 85 l 544 147 l 542 147 q 535 131 543 147 q 510 90 528 114 q 465 41 492 65 q 395 0 439 17 q 301 -17 351 -17 q 136 35 207 -17 q 65 185 65 88 m 126 189 q 174 83 126 129 q 304 38 221 38 q 476 128 411 38 q 542 332 542 219 l 542 369 l 497 369 q 427 369 454 369 q 349 363 400 368 q 266 347 299 358 q 198 316 233 335 q 144 265 163 297 q 126 189 126 232 z "},"Ć":{"ha":1019,"x_min":85,"x_max":939,"o":"m 85 493 q 223 847 85 704 q 567 989 361 989 q 690 976 631 989 q 789 946 750 964 q 858 910 828 928 q 900 879 888 892 l 914 867 l 878 822 q 865 834 874 826 q 825 860 856 842 q 761 894 794 879 q 675 920 728 908 q 568 932 622 932 q 268 806 389 932 q 147 493 147 681 q 269 172 147 303 q 572 40 390 40 q 686 54 631 40 q 779 87 742 68 q 845 125 817 106 q 888 158 874 144 l 901 172 l 939 131 q 923 115 933 125 q 878 79 913 104 q 803 35 843 54 q 701 -1 764 15 q 572 -17 639 -17 q 224 131 363 -17 q 85 493 85 279 m 528 1042 l 621 1196 l 699 1196 l 589 1042 l 528 1042 z "},"ć":{"ha":765,"x_min":74,"x_max":694,"o":"m 177 84 q 125 134 177 84 q 74 346 74 185 q 178 609 74 507 q 432 711 283 711 q 567 686 506 711 q 656 636 629 661 l 681 613 l 644 565 q 619 590 636 575 q 547 629 601 604 q 432 654 492 654 q 221 569 307 654 q 135 346 135 483 q 221 125 135 210 q 432 40 307 40 q 558 65 500 40 q 639 115 615 90 l 664 140 l 694 92 q 683 80 690 88 q 651 53 676 72 q 599 21 626 35 q 526 -5 571 7 q 432 -17 481 -17 q 177 84 281 -17 m 375 818 l 468 972 l 546 972 l 436 818 l 375 818 z "},"Ĉ":{"ha":1019,"x_min":85,"x_max":939,"o":"m 85 493 q 223 847 85 704 q 567 989 361 989 q 690 976 631 989 q 789 946 750 964 q 858 910 828 928 q 900 879 888 892 l 914 867 l 878 822 q 865 834 874 826 q 825 860 856 842 q 761 894 794 879 q 675 920 728 908 q 568 932 622 932 q 268 806 389 932 q 147 493 147 681 q 269 172 147 303 q 572 40 390 40 q 686 54 631 40 q 779 87 742 68 q 845 125 817 106 q 888 158 874 144 l 901 172 l 939 131 q 923 115 933 125 q 878 79 913 104 q 803 35 843 54 q 701 -1 764 15 q 572 -17 639 -17 q 224 131 363 -17 q 85 493 85 279 m 413 1042 l 524 1196 l 596 1196 l 707 1042 l 639 1042 l 561 1153 l 558 1153 l 481 1042 l 413 1042 z "},"ĉ":{"ha":765,"x_min":74,"x_max":694,"o":"m 177 84 q 125 134 177 84 q 74 346 74 185 q 178 609 74 507 q 432 711 283 711 q 567 686 506 711 q 656 636 629 661 l 681 613 l 644 565 q 619 590 636 575 q 547 629 601 604 q 432 654 492 654 q 221 569 307 654 q 135 346 135 483 q 221 125 135 210 q 432 40 307 40 q 558 65 500 40 q 639 115 615 90 l 664 140 l 694 92 q 683 80 690 88 q 651 53 676 72 q 599 21 626 35 q 526 -5 571 7 q 432 -17 481 -17 q 177 84 281 -17 m 260 818 l 371 972 l 443 972 l 554 818 l 486 818 l 408 929 l 406 929 l 328 818 l 260 818 z "},"Ċ":{"ha":1019,"x_min":85,"x_max":939,"o":"m 85 493 q 223 847 85 704 q 567 989 361 989 q 690 976 631 989 q 789 946 750 964 q 858 910 828 928 q 900 879 888 892 l 914 867 l 878 822 q 865 834 874 826 q 825 860 856 842 q 761 894 794 879 q 675 920 728 908 q 568 932 622 932 q 268 806 389 932 q 147 493 147 681 q 269 172 147 303 q 572 40 390 40 q 686 54 631 40 q 779 87 742 68 q 845 125 817 106 q 888 158 874 144 l 901 172 l 939 131 q 923 115 933 125 q 878 79 913 104 q 803 35 843 54 q 701 -1 764 15 q 572 -17 639 -17 q 224 131 363 -17 q 85 493 85 279 m 528 1094 l 528 1196 l 592 1196 l 592 1094 l 528 1094 z "},"ċ":{"ha":765,"x_min":74,"x_max":694,"o":"m 177 84 q 125 134 177 84 q 74 346 74 185 q 178 609 74 507 q 432 711 283 711 q 567 686 506 711 q 656 636 629 661 l 681 613 l 644 565 q 619 590 636 575 q 547 629 601 604 q 432 654 492 654 q 221 569 307 654 q 135 346 135 483 q 221 125 135 210 q 432 40 307 40 q 558 65 500 40 q 639 115 615 90 l 664 140 l 694 92 q 683 80 690 88 q 651 53 676 72 q 599 21 626 35 q 526 -5 571 7 q 432 -17 481 -17 q 177 84 281 -17 m 375 871 l 375 972 l 439 972 l 439 871 l 375 871 z "},"Č":{"ha":1019,"x_min":85,"x_max":939,"o":"m 85 493 q 223 847 85 704 q 567 989 361 989 q 690 976 631 989 q 789 946 750 964 q 858 910 828 928 q 900 879 888 892 l 914 867 l 878 822 q 865 834 874 826 q 825 860 856 842 q 761 894 794 879 q 675 920 728 908 q 568 932 622 932 q 268 806 389 932 q 147 493 147 681 q 269 172 147 303 q 572 40 390 40 q 686 54 631 40 q 779 87 742 68 q 845 125 817 106 q 888 158 874 144 l 901 172 l 939 131 q 923 115 933 125 q 878 79 913 104 q 803 35 843 54 q 701 -1 764 15 q 572 -17 639 -17 q 224 131 363 -17 q 85 493 85 279 m 524 1042 l 413 1196 l 481 1196 l 558 1085 l 561 1085 l 639 1196 l 707 1196 l 596 1042 l 524 1042 z "},"č":{"ha":765,"x_min":74,"x_max":694,"o":"m 177 84 q 125 134 177 84 q 74 346 74 185 q 178 609 74 507 q 432 711 283 711 q 567 686 506 711 q 656 636 629 661 l 681 613 l 644 565 q 619 590 636 575 q 547 629 601 604 q 432 654 492 654 q 221 569 307 654 q 135 346 135 483 q 221 125 135 210 q 432 40 307 40 q 558 65 500 40 q 639 115 615 90 l 664 140 l 694 92 q 683 80 690 88 q 651 53 676 72 q 599 21 626 35 q 526 -5 571 7 q 432 -17 481 -17 q 177 84 281 -17 m 371 818 l 260 972 l 328 972 l 406 861 l 408 861 l 486 972 l 554 972 l 443 818 l 371 818 z "},"Ď":{"ha":1029,"x_min":150,"x_max":940,"o":"m 150 0 l 150 972 l 456 972 q 808 843 675 972 q 940 486 940 714 q 808 128 940 257 q 456 0 676 0 l 150 0 m 210 56 l 446 56 q 760 168 643 56 q 878 486 878 281 q 760 803 878 690 q 446 917 643 917 l 210 917 l 210 56 m 439 1042 l 328 1196 l 396 1196 l 474 1085 l 476 1085 l 554 1196 l 622 1196 l 511 1042 l 439 1042 z "},"ď":{"ha":847,"x_min":76,"x_max":851,"o":"m 158 83 q 117 133 158 83 q 76 347 76 183 q 163 611 76 511 q 388 711 250 711 q 479 695 436 711 q 548 656 522 679 q 593 610 574 633 q 619 569 613 586 l 628 554 l 631 554 q 625 611 625 579 l 625 972 l 683 972 l 683 0 l 625 0 l 625 88 l 631 140 l 628 140 q 620 123 625 133 q 594 85 615 113 q 548 38 574 58 q 476 0 522 17 q 376 -17 431 -17 q 158 83 239 -17 m 138 347 q 205 124 138 208 q 379 40 272 40 q 556 117 485 40 q 626 349 626 194 q 563 564 626 474 q 385 654 500 654 q 208 572 279 654 q 138 347 138 489 m 776 972 l 843 972 q 851 907 851 938 q 821 786 851 856 l 767 786 q 792 894 792 851 q 776 972 792 932 z "},"Đ":{"ha":1046,"x_min":83,"x_max":957,"o":"m 83 463 l 83 518 l 167 518 l 167 972 l 472 972 q 824 843 692 972 q 957 486 957 714 q 825 128 957 257 q 472 0 693 0 l 167 0 l 167 463 l 83 463 m 226 56 l 463 56 q 777 168 660 56 q 894 486 894 281 q 777 803 894 690 q 463 917 660 917 l 226 917 l 226 518 l 481 518 l 481 463 l 226 463 l 226 56 z "},"đ":{"ha":806,"x_min":76,"x_max":799,"o":"m 440 790 l 440 846 l 625 846 l 625 972 l 683 972 l 683 846 l 799 846 l 799 790 l 683 790 l 683 0 l 625 0 l 625 81 l 628 133 l 625 133 q 617 117 622 128 q 592 81 613 107 q 547 35 572 56 q 476 -1 521 15 q 376 -17 431 -17 q 158 83 239 -17 q 76 347 76 183 q 163 611 76 511 q 388 711 250 711 q 478 696 436 711 q 547 658 521 681 q 591 614 572 636 q 617 576 610 592 l 625 561 l 628 561 q 625 618 625 586 l 625 790 l 440 790 m 138 347 q 205 124 138 208 q 379 40 272 40 q 556 117 485 40 q 626 349 626 194 q 563 565 626 474 q 385 656 500 656 q 208 572 279 656 q 138 347 138 489 z "},"Ē":{"ha":793,"x_min":150,"x_max":708,"o":"m 150 0 l 150 972 l 682 972 l 682 917 l 210 917 l 210 518 l 597 518 l 597 463 l 210 463 l 210 56 l 708 56 l 708 0 l 150 0 m 268 1092 l 268 1147 l 600 1147 l 600 1092 l 268 1092 z "},"ē":{"ha":768,"x_min":74,"x_max":694,"o":"m 74 346 q 172 613 74 515 q 411 711 271 711 q 620 620 546 711 q 694 394 694 529 l 692 357 l 135 357 q 220 126 135 211 q 432 40 306 40 q 545 62 492 40 q 622 106 599 83 l 647 128 l 679 79 q 648 52 668 68 q 563 10 628 36 q 432 -17 499 -17 q 177 84 281 -17 q 74 346 74 185 m 139 411 l 633 411 q 565 594 628 532 q 410 657 503 657 q 233 592 308 657 q 139 411 157 528 m 249 868 l 249 924 l 581 924 l 581 868 l 249 868 z "},"Ĕ":{"ha":793,"x_min":150,"x_max":708,"o":"m 150 0 l 150 972 l 682 972 l 682 917 l 210 917 l 210 518 l 597 518 l 597 463 l 210 463 l 210 56 l 708 56 l 708 0 l 150 0 m 532 1073 q 511 1055 532 1073 q 433 1038 490 1038 q 335 1073 376 1038 q 293 1174 293 1108 l 293 1196 l 349 1196 l 349 1176 q 372 1112 349 1133 q 433 1090 396 1090 q 494 1112 469 1090 q 518 1178 518 1133 l 518 1196 l 574 1196 l 574 1174 q 532 1073 574 1108 z "},"ĕ":{"ha":768,"x_min":74,"x_max":694,"o":"m 74 346 q 172 613 74 515 q 411 711 271 711 q 620 620 546 711 q 694 394 694 529 l 692 357 l 135 357 q 220 126 135 211 q 432 40 306 40 q 545 62 492 40 q 622 106 599 83 l 647 128 l 679 79 q 648 52 668 68 q 563 10 628 36 q 432 -17 499 -17 q 177 84 281 -17 q 74 346 74 185 m 139 411 l 633 411 q 565 594 628 532 q 410 657 503 657 q 233 592 308 657 q 139 411 157 528 m 513 849 q 492 832 513 849 q 414 814 471 814 q 315 849 357 814 q 274 950 274 885 l 274 972 l 329 972 l 329 953 q 353 888 329 910 q 414 867 376 867 q 474 888 450 867 q 499 954 499 910 l 499 972 l 554 972 l 554 950 q 513 849 554 885 z "},"Ė":{"ha":793,"x_min":150,"x_max":708,"o":"m 150 0 l 150 972 l 682 972 l 682 917 l 210 917 l 210 518 l 597 518 l 597 463 l 210 463 l 210 56 l 708 56 l 708 0 l 150 0 m 401 1094 l 401 1196 l 465 1196 l 465 1094 l 401 1094 z "},"ė":{"ha":768,"x_min":74,"x_max":694,"o":"m 74 346 q 172 613 74 515 q 411 711 271 711 q 620 620 546 711 q 694 394 694 529 l 692 357 l 135 357 q 220 126 135 211 q 432 40 306 40 q 545 62 492 40 q 622 106 599 83 l 647 128 l 679 79 q 648 52 668 68 q 563 10 628 36 q 432 -17 499 -17 q 177 84 281 -17 q 74 346 74 185 m 139 411 l 633 411 q 565 594 628 532 q 410 657 503 657 q 233 592 308 657 q 139 411 157 528 m 382 871 l 382 972 l 446 972 l 446 871 l 382 871 z "},"Ę":{"ha":793,"x_min":150,"x_max":708,"o":"m 150 0 l 150 972 l 682 972 l 682 917 l 210 917 l 210 518 l 597 518 l 597 463 l 210 463 l 210 56 l 708 56 l 708 0 q 597 -151 597 -82 q 621 -201 597 -182 q 668 -225 644 -221 l 692 -229 l 679 -283 q 664 -282 674 -283 q 629 -273 654 -281 q 585 -253 604 -265 q 550 -215 565 -240 q 535 -157 535 -190 q 633 -3 535 -76 l 633 0 l 150 0 z "},"ę":{"ha":769,"x_min":74,"x_max":694,"o":"m 74 346 q 172 613 74 515 q 411 711 271 711 q 620 620 546 711 q 694 394 694 529 l 692 357 l 135 357 q 220 126 135 211 q 432 40 306 40 q 545 62 492 40 q 622 106 599 83 l 647 128 l 679 79 q 601 22 664 65 q 502 -64 539 -22 q 465 -151 465 -106 q 489 -201 465 -182 q 536 -225 513 -221 l 560 -229 l 547 -283 q 532 -282 542 -283 q 497 -273 522 -281 q 453 -253 472 -265 q 418 -215 433 -240 q 403 -157 403 -190 q 476 -15 403 -86 l 476 -12 q 432 -17 456 -17 q 177 84 281 -17 q 74 346 74 185 m 139 411 l 633 411 q 565 594 628 532 q 410 657 503 657 q 233 592 308 657 q 139 411 157 528 z "},"Ě":{"ha":793,"x_min":150,"x_max":708,"o":"m 150 0 l 150 972 l 682 972 l 682 917 l 210 917 l 210 518 l 597 518 l 597 463 l 210 463 l 210 56 l 708 56 l 708 0 l 150 0 m 397 1042 l 286 1196 l 354 1196 l 432 1085 l 435 1085 l 513 1196 l 581 1196 l 469 1042 l 397 1042 z "},"ě":{"ha":768,"x_min":74,"x_max":694,"o":"m 74 346 q 172 613 74 515 q 411 711 271 711 q 620 620 546 711 q 694 394 694 529 l 692 357 l 135 357 q 220 126 135 211 q 432 40 306 40 q 545 62 492 40 q 622 106 599 83 l 647 128 l 679 79 q 648 52 668 68 q 563 10 628 36 q 432 -17 499 -17 q 177 84 281 -17 q 74 346 74 185 m 139 411 l 633 411 q 565 594 628 532 q 410 657 503 657 q 233 592 308 657 q 139 411 157 528 m 378 818 l 267 972 l 335 972 l 413 861 l 415 861 l 493 972 l 561 972 l 450 818 l 378 818 z "},"Ĝ":{"ha":1051,"x_min":85,"x_max":954,"o":"m 85 486 q 224 843 85 697 q 569 989 364 989 q 751 961 667 989 q 872 906 836 933 l 908 879 l 872 833 q 859 844 868 838 q 819 867 850 850 q 756 898 789 885 q 673 922 724 911 q 569 932 622 932 q 267 804 388 932 q 147 486 147 676 q 265 168 147 296 q 561 40 382 40 q 675 57 619 40 q 769 97 731 74 q 837 143 807 119 q 881 183 867 167 l 894 200 l 894 388 l 721 388 l 721 443 l 954 443 l 954 0 l 894 0 l 894 85 l 896 126 l 893 126 q 879 111 889 121 q 838 76 869 101 q 771 33 807 51 q 678 -1 735 14 q 561 -17 621 -17 q 222 128 358 -17 q 85 486 85 274 m 407 1042 l 518 1196 l 590 1196 l 701 1042 l 633 1042 l 556 1153 l 553 1153 l 475 1042 l 407 1042 z "},"ĝ":{"ha":796,"x_min":76,"x_max":674,"o":"m 165 -186 q 351 -235 251 -235 q 542 -176 469 -235 q 615 4 615 -117 l 615 85 l 621 142 l 618 142 q 385 0 549 0 q 163 99 249 0 q 76 358 76 197 q 158 616 76 521 q 375 711 239 711 q 476 697 431 711 q 546 663 521 683 q 588 623 571 643 q 611 589 606 603 l 617 575 l 619 575 q 615 601 615 585 l 615 694 l 674 694 l 674 4 q 583 -219 674 -146 q 356 -292 492 -292 q 138 -237 243 -292 l 165 -186 m 389 57 q 553 128 490 57 q 617 358 617 200 q 375 654 617 654 q 200 576 263 654 q 138 358 138 499 q 207 138 138 219 q 389 57 276 57 m 242 818 l 353 972 l 425 972 l 536 818 l 468 818 l 390 929 l 388 929 l 310 818 l 242 818 z "},"Ğ":{"ha":1051,"x_min":85,"x_max":954,"o":"m 85 486 q 224 843 85 697 q 569 989 364 989 q 751 961 667 989 q 872 906 836 933 l 908 879 l 872 833 q 859 844 868 838 q 819 867 850 850 q 756 898 789 885 q 673 922 724 911 q 569 932 622 932 q 267 804 388 932 q 147 486 147 676 q 265 168 147 296 q 561 40 382 40 q 675 57 619 40 q 769 97 731 74 q 837 143 807 119 q 881 183 867 167 l 894 200 l 894 388 l 721 388 l 721 443 l 954 443 l 954 0 l 894 0 l 894 85 l 896 126 l 893 126 q 879 111 889 121 q 838 76 869 101 q 771 33 807 51 q 678 -1 735 14 q 561 -17 621 -17 q 222 128 358 -17 q 85 486 85 274 m 653 1073 q 632 1055 653 1073 q 554 1038 611 1038 q 456 1073 497 1038 q 414 1174 414 1108 l 414 1196 l 469 1196 l 469 1176 q 493 1112 469 1133 q 554 1090 517 1090 q 615 1112 590 1090 q 639 1178 639 1133 l 639 1196 l 694 1196 l 694 1174 q 653 1073 694 1108 z "},"ğ":{"ha":796,"x_min":76,"x_max":674,"o":"m 165 -186 q 351 -235 251 -235 q 542 -176 469 -235 q 615 4 615 -117 l 615 85 l 621 142 l 618 142 q 385 0 549 0 q 163 99 249 0 q 76 358 76 197 q 158 616 76 521 q 375 711 239 711 q 476 697 431 711 q 546 663 521 683 q 588 623 571 643 q 611 589 606 603 l 617 575 l 619 575 q 615 601 615 585 l 615 694 l 674 694 l 674 4 q 583 -219 674 -146 q 356 -292 492 -292 q 138 -237 243 -292 l 165 -186 m 389 57 q 553 128 490 57 q 617 358 617 200 q 375 654 617 654 q 200 576 263 654 q 138 358 138 499 q 207 138 138 219 q 389 57 276 57 m 488 849 q 467 832 488 849 q 389 814 446 814 q 290 849 332 814 q 249 950 249 885 l 249 972 l 304 972 l 304 953 q 328 888 304 910 q 389 867 351 867 q 449 888 425 867 q 474 954 474 910 l 474 972 l 529 972 l 529 950 q 488 849 529 885 z "},"Ġ":{"ha":1051,"x_min":85,"x_max":954,"o":"m 85 486 q 224 843 85 697 q 569 989 364 989 q 751 961 667 989 q 872 906 836 933 l 908 879 l 872 833 q 859 844 868 838 q 819 867 850 850 q 756 898 789 885 q 673 922 724 911 q 569 932 622 932 q 267 804 388 932 q 147 486 147 676 q 265 168 147 296 q 561 40 382 40 q 675 57 619 40 q 769 97 731 74 q 837 143 807 119 q 881 183 867 167 l 894 200 l 894 388 l 721 388 l 721 443 l 954 443 l 954 0 l 894 0 l 894 85 l 896 126 l 893 126 q 879 111 889 121 q 838 76 869 101 q 771 33 807 51 q 678 -1 735 14 q 561 -17 621 -17 q 222 128 358 -17 q 85 486 85 274 m 522 1094 l 522 1196 l 586 1196 l 586 1094 l 522 1094 z "},"ġ":{"ha":796,"x_min":76,"x_max":674,"o":"m 165 -186 q 351 -235 251 -235 q 542 -176 469 -235 q 615 4 615 -117 l 615 85 l 621 142 l 618 142 q 385 0 549 0 q 163 99 249 0 q 76 358 76 197 q 158 616 76 521 q 375 711 239 711 q 476 697 431 711 q 546 663 521 683 q 588 623 571 643 q 611 589 606 603 l 617 575 l 619 575 q 615 601 615 585 l 615 694 l 674 694 l 674 4 q 583 -219 674 -146 q 356 -292 492 -292 q 138 -237 243 -292 l 165 -186 m 389 57 q 553 128 490 57 q 617 358 617 200 q 375 654 617 654 q 200 576 263 654 q 138 358 138 499 q 207 138 138 219 q 389 57 276 57 m 357 871 l 357 972 l 421 972 l 421 871 l 357 871 z "},"Ģ":{"ha":1051,"x_min":85,"x_max":954,"o":"m 85 486 q 224 843 85 697 q 569 989 364 989 q 751 961 667 989 q 872 906 836 933 l 908 879 l 872 833 q 859 844 868 838 q 819 867 850 850 q 756 898 789 885 q 673 922 724 911 q 569 932 622 932 q 267 804 388 932 q 147 486 147 676 q 265 168 147 296 q 561 40 382 40 q 675 57 619 40 q 769 97 731 74 q 837 143 807 119 q 881 183 867 167 l 894 200 l 894 388 l 721 388 l 721 443 l 954 443 l 954 0 l 894 0 l 894 85 l 896 126 l 893 126 q 879 111 889 121 q 838 76 869 101 q 771 33 807 51 q 678 -1 735 14 q 561 -17 621 -17 q 222 128 358 -17 q 85 486 85 274 m 528 -92 l 594 -92 q 603 -157 603 -126 q 572 -278 603 -208 l 518 -278 q 543 -169 543 -212 q 528 -92 543 -132 z "},"ģ":{"ha":796,"x_min":76,"x_max":674,"o":"m 165 -186 q 351 -235 251 -235 q 542 -176 469 -235 q 615 4 615 -117 l 615 85 l 621 142 l 618 142 q 385 0 549 0 q 163 99 249 0 q 76 358 76 197 q 158 616 76 521 q 375 711 239 711 q 476 697 431 711 q 546 663 521 683 q 588 623 571 643 q 611 589 606 603 l 617 575 l 619 575 q 615 601 615 585 l 615 694 l 674 694 l 674 4 q 583 -219 674 -146 q 356 -292 492 -292 q 138 -237 243 -292 l 165 -186 m 389 57 q 553 128 490 57 q 617 358 617 200 q 375 654 617 654 q 200 576 263 654 q 138 358 138 499 q 207 138 138 219 q 389 57 276 57 m 425 786 l 358 786 q 350 851 350 822 q 381 972 350 903 l 435 972 q 410 864 410 907 q 425 786 410 826 z "},"Ĥ":{"ha":1036,"x_min":150,"x_max":886,"o":"m 150 0 l 150 972 l 210 972 l 210 515 l 826 515 l 826 972 l 886 972 l 886 0 l 826 0 l 826 460 l 210 460 l 210 0 l 150 0 m 371 1042 l 482 1196 l 554 1196 l 665 1042 l 597 1042 l 519 1153 l 517 1153 l 439 1042 l 371 1042 z "},"ĥ":{"ha":814,"x_min":6,"x_max":701,"o":"m 122 0 l 122 972 l 181 972 l 181 572 l 175 515 l 178 515 q 279 647 201 582 q 472 711 357 711 q 651 642 600 711 q 701 440 701 574 l 701 0 l 643 0 l 643 419 q 640 491 643 461 q 628 553 638 521 q 600 607 618 586 q 549 641 582 628 q 472 654 517 654 q 297 592 375 654 q 192 433 218 531 q 181 339 181 394 l 181 0 l 122 0 m 6 1042 l 117 1196 l 189 1196 l 300 1042 l 232 1042 l 154 1153 l 151 1153 l 74 1042 l 6 1042 z "},"Ħ":{"ha":1092,"x_min":88,"x_max":1004,"o":"m 178 0 l 178 710 l 88 710 l 88 765 l 178 765 l 178 972 l 238 972 l 238 765 l 854 765 l 854 972 l 914 972 l 914 765 l 1004 765 l 1004 710 l 914 710 l 914 0 l 854 0 l 854 460 l 238 460 l 238 0 l 178 0 m 238 515 l 854 515 l 854 710 l 238 710 l 238 515 z "},"ħ":{"ha":814,"x_min":10,"x_max":701,"o":"m 10 790 l 10 846 l 122 846 l 122 972 l 181 972 l 181 846 l 365 846 l 365 790 l 181 790 l 181 579 l 178 522 l 181 522 q 281 649 204 588 q 472 711 357 711 q 651 642 600 711 q 701 440 701 574 l 701 0 l 643 0 l 643 419 q 640 491 643 461 q 628 553 638 521 q 600 607 618 586 q 549 641 582 628 q 472 654 517 654 q 297 592 375 654 q 192 433 218 531 q 181 339 181 394 l 181 0 l 122 0 l 122 790 l 10 790 z "},"Ĩ":{"ha":360,"x_min":-19,"x_max":382,"o":"m 150 0 l 150 972 l 210 972 l 210 0 l 150 0 m -19 1046 q 96 1196 -19 1196 q 153 1180 128 1196 q 194 1144 179 1164 q 229 1109 208 1125 q 271 1093 250 1093 q 326 1192 326 1093 l 382 1192 q 267 1042 382 1042 q 209 1058 235 1042 q 169 1093 183 1074 q 133 1128 154 1113 q 92 1144 113 1144 q 36 1046 36 1144 l -19 1046 z "},"ĩ":{"ha":303,"x_min":-47,"x_max":354,"o":"m 122 0 l 122 694 l 181 694 l 181 0 l 122 0 m -47 822 q 68 972 -47 972 q 126 956 100 972 q 166 921 151 940 q 201 885 181 901 q 243 869 222 869 q 299 968 299 869 l 354 968 q 239 818 354 818 q 181 834 207 818 q 141 869 156 850 q 106 905 126 889 q 64 921 85 921 q 8 822 8 921 l -47 822 z "},"Ī":{"ha":360,"x_min":15,"x_max":347,"o":"m 150 0 l 150 972 l 210 972 l 210 0 l 150 0 m 15 1092 l 15 1147 l 347 1147 l 347 1092 l 15 1092 z "},"ī":{"ha":303,"x_min":-12,"x_max":319,"o":"m 122 0 l 122 694 l 181 694 l 181 0 l 122 0 m -12 868 l -12 924 l 319 924 l 319 868 l -12 868 z "},"Ĭ":{"ha":360,"x_min":40,"x_max":321,"o":"m 150 0 l 150 972 l 210 972 l 210 0 l 150 0 m 279 1073 q 258 1055 279 1073 q 181 1038 238 1038 q 82 1073 124 1038 q 40 1174 40 1108 l 40 1196 l 96 1196 l 96 1176 q 119 1112 96 1133 q 181 1090 143 1090 q 241 1112 217 1090 q 265 1178 265 1133 l 265 1196 l 321 1196 l 321 1174 q 279 1073 321 1108 z "},"ĭ":{"ha":303,"x_min":13,"x_max":293,"o":"m 122 0 l 122 694 l 181 694 l 181 0 l 122 0 m 251 849 q 231 832 251 849 q 153 814 210 814 q 54 849 96 814 q 13 950 13 885 l 13 972 l 68 972 l 68 953 q 92 888 68 910 q 153 867 115 867 q 213 888 189 867 q 238 954 238 910 l 238 972 l 293 972 l 293 950 q 251 849 293 885 z "},"Į":{"ha":360,"x_min":50,"x_max":210,"o":"m 50 -157 q 74 -74 50 -115 q 118 -16 99 -33 q 150 10 138 1 l 150 972 l 210 972 l 210 0 q 113 -151 113 -79 q 136 -201 113 -182 q 183 -225 160 -221 l 207 -229 l 194 -283 q 179 -282 189 -283 q 144 -273 169 -281 q 100 -253 119 -265 q 65 -215 81 -240 q 50 -157 50 -190 z "},"į":{"ha":303,"x_min":21,"x_max":186,"o":"m 21 -157 q 47 -72 21 -114 q 92 -13 72 -31 q 122 11 111 4 l 122 694 l 181 694 l 181 0 q 83 -151 83 -79 q 107 -201 83 -182 q 154 -225 131 -221 l 178 -229 l 165 -283 q 150 -282 160 -283 q 115 -273 140 -281 q 71 -253 90 -265 q 36 -215 51 -240 q 21 -157 21 -190 m 117 871 l 117 972 l 186 972 l 186 871 l 117 871 z "},"İ":{"ha":360,"x_min":149,"x_max":213,"o":"m 150 0 l 150 972 l 210 972 l 210 0 l 150 0 m 149 1094 l 149 1196 l 213 1196 l 213 1094 l 149 1094 z "},"ı":{"ha":303,"x_min":122,"x_max":181,"o":"m 122 0 l 122 694 l 181 694 l 181 0 l 122 0 z "},"Ĳ":{"ha":774,"x_min":150,"x_max":635,"o":"m 361 -7 l 361 51 q 420 56 393 51 q 477 77 447 61 q 528 119 507 93 q 562 193 549 146 q 575 303 575 240 l 575 972 l 635 972 l 635 303 q 361 -7 635 -7 m 150 0 l 150 972 l 210 972 l 210 0 l 150 0 z "},"ĳ":{"ha":601,"x_min":117,"x_max":485,"o":"m 117 871 l 117 972 l 186 972 l 186 871 l 117 871 m 122 0 l 122 694 l 181 694 l 181 0 l 122 0 m 421 694 l 479 694 l 479 -28 q 456 -164 479 -108 q 394 -244 432 -219 q 324 -276 356 -268 q 258 -285 292 -285 l 224 -282 l 224 -228 q 254 -231 236 -231 q 305 -224 281 -231 q 358 -198 329 -217 q 403 -135 386 -179 q 421 -29 421 -92 l 421 694 m 415 871 l 415 972 l 485 972 l 485 871 l 415 871 z "},"Ĵ":{"ha":713,"x_min":54,"x_max":575,"o":"m 54 265 l 54 296 l 114 296 l 114 264 q 153 118 114 175 q 314 40 207 40 q 456 94 397 40 q 514 264 514 147 l 514 917 l 282 917 l 282 972 l 574 972 l 574 265 q 498 52 574 121 q 314 -17 422 -17 q 130 52 206 -17 q 54 265 54 121 m 281 1042 l 392 1196 l 464 1196 l 575 1042 l 507 1042 l 429 1153 l 426 1153 l 349 1042 l 281 1042 z "},"ĵ":{"ha":303,"x_min":-75,"x_max":293,"o":"m 122 694 l 181 694 l 181 -28 q 157 -164 181 -108 q 95 -244 133 -219 q 25 -276 57 -268 q -40 -285 -7 -285 l -75 -282 l -75 -228 q -44 -231 -62 -231 q 6 -224 -18 -231 q 59 -198 31 -217 q 105 -135 88 -179 q 122 -29 122 -92 l 122 694 m -1 818 l 110 972 l 182 972 l 293 818 l 225 818 l 147 929 l 144 929 l 67 818 l -1 818 z "},"Ķ":{"ha":806,"x_min":150,"x_max":760,"o":"m 150 0 l 150 972 l 210 972 l 210 539 l 390 539 l 668 972 l 740 972 l 442 514 l 442 511 l 760 0 l 688 0 l 390 483 l 210 483 l 210 0 l 150 0 m 385 -92 l 451 -92 q 460 -157 460 -126 q 429 -278 460 -208 l 375 -278 q 400 -169 400 -212 q 385 -92 400 -132 z "},"ķ":{"ha":667,"x_min":122,"x_max":629,"o":"m 122 0 l 122 972 l 181 972 l 181 421 l 304 421 l 529 694 l 606 694 l 354 396 l 354 393 l 629 0 l 556 0 l 304 367 l 181 367 l 181 0 l 122 0 m 314 -92 l 381 -92 q 389 -157 389 -126 q 358 -278 389 -208 l 304 -278 q 329 -169 329 -212 q 314 -92 329 -132 z "},"ĸ":{"ha":671,"x_min":122,"x_max":619,"o":"m 122 0 l 122 694 l 181 694 l 181 399 l 300 399 l 540 694 l 619 694 l 354 375 l 354 372 l 615 0 l 539 0 l 300 347 l 181 347 l 181 0 l 122 0 z "},"Ĺ":{"ha":707,"x_min":149,"x_max":674,"o":"m 150 0 l 150 972 l 210 972 l 210 56 l 674 56 l 674 0 l 150 0 m 149 1042 l 242 1196 l 319 1196 l 210 1042 l 149 1042 z "},"ĺ":{"ha":319,"x_min":115,"x_max":286,"o":"m 115 140 l 115 972 l 174 972 l 174 158 q 256 50 174 50 l 276 51 l 276 -3 q 251 -6 264 -6 q 213 -1 232 -6 q 169 18 193 4 q 130 63 144 32 q 115 140 115 94 m 115 1042 l 208 1196 l 286 1196 l 176 1042 l 115 1042 z "},"Ļ":{"ha":707,"x_min":150,"x_max":674,"o":"m 150 0 l 150 972 l 210 972 l 210 56 l 674 56 l 674 0 l 150 0 m 388 -92 l 454 -92 q 463 -157 463 -126 q 432 -278 463 -208 l 378 -278 q 403 -169 403 -212 q 388 -92 403 -132 z "},"ļ":{"ha":319,"x_min":115,"x_max":276,"o":"m 115 140 l 115 972 l 174 972 l 174 158 q 256 50 174 50 l 276 51 l 276 -3 q 251 -6 264 -6 q 213 -1 232 -6 q 169 18 193 4 q 130 63 144 32 q 115 140 115 94 m 156 -92 l 222 -92 q 231 -157 231 -128 q 200 -278 231 -208 l 146 -278 q 171 -169 171 -212 q 156 -92 171 -132 z "},"Ľ":{"ha":707,"x_min":150,"x_max":674,"o":"m 150 0 l 150 972 l 210 972 l 210 56 l 674 56 l 674 0 l 150 0 m 344 972 l 411 972 q 419 907 419 938 q 389 786 419 856 l 335 786 q 360 894 360 851 q 344 972 360 932 z "},"ľ":{"ha":361,"x_min":115,"x_max":343,"o":"m 115 140 l 115 972 l 174 972 l 174 158 q 256 50 174 50 l 276 51 l 276 -3 q 251 -6 264 -6 q 213 -1 232 -6 q 169 18 193 4 q 130 63 144 32 q 115 140 115 94 m 268 972 l 335 972 q 343 907 343 938 q 313 786 343 856 l 258 786 q 283 894 283 851 q 268 972 283 932 z "},"Ŀ":{"ha":707,"x_min":150,"x_max":674,"o":"m 150 0 l 150 972 l 210 972 l 210 56 l 674 56 l 674 0 l 150 0 m 394 464 l 394 551 l 479 551 l 479 464 l 394 464 z "},"ŀ":{"ha":367,"x_min":115,"x_max":349,"o":"m 115 140 l 115 972 l 174 972 l 174 158 q 256 50 174 50 l 276 51 l 276 -3 q 251 -6 264 -6 q 213 -1 232 -6 q 169 18 193 4 q 130 63 144 32 q 115 140 115 94 m 264 464 l 264 551 l 349 551 l 349 464 l 264 464 z "},"Ł":{"ha":743,"x_min":96,"x_max":710,"o":"m 96 463 l 96 528 l 186 579 l 186 972 l 246 972 l 246 614 l 406 707 l 406 640 l 246 549 l 246 56 l 710 56 l 710 0 l 186 0 l 186 514 l 96 463 z "},"ł":{"ha":407,"x_min":50,"x_max":360,"o":"m 50 463 l 50 528 l 174 599 l 174 972 l 232 972 l 232 633 l 360 707 l 360 640 l 232 567 l 232 158 q 314 50 232 50 l 335 51 l 335 -3 q 310 -6 322 -6 q 271 -1 290 -6 q 227 18 251 4 q 188 63 203 32 q 174 140 174 94 l 174 533 l 50 463 z "},"Ń":{"ha":1044,"x_min":150,"x_max":894,"o":"m 150 0 l 150 972 l 206 972 l 760 210 l 839 88 l 842 88 q 835 210 835 161 l 835 972 l 894 972 l 894 0 l 839 0 l 285 763 l 206 885 l 203 885 q 210 763 210 811 l 210 0 l 150 0 m 490 1042 l 583 1196 l 661 1196 l 551 1042 l 490 1042 z "},"ń":{"ha":814,"x_min":122,"x_max":701,"o":"m 122 0 l 122 694 l 181 694 l 181 572 l 175 515 l 178 515 q 279 647 201 582 q 472 711 357 711 q 651 642 600 711 q 701 440 701 574 l 701 0 l 643 0 l 643 419 q 640 491 643 461 q 628 553 638 521 q 600 607 618 586 q 549 641 582 628 q 472 654 517 654 q 297 592 375 654 q 192 433 218 531 q 181 339 181 394 l 181 0 l 122 0 m 396 818 l 489 972 l 567 972 l 457 818 l 396 818 z "},"Ņ":{"ha":1044,"x_min":150,"x_max":894,"o":"m 150 0 l 150 972 l 206 972 l 760 210 l 839 88 l 842 88 q 835 210 835 161 l 835 972 l 894 972 l 894 0 l 839 0 l 285 763 l 206 885 l 203 885 q 210 763 210 811 l 210 0 l 150 0 m 488 -92 l 554 -92 q 563 -157 563 -126 q 532 -278 563 -208 l 478 -278 q 503 -169 503 -212 q 488 -92 503 -132 z "},"ņ":{"ha":814,"x_min":122,"x_max":701,"o":"m 122 0 l 122 694 l 181 694 l 181 572 l 175 515 l 178 515 q 279 647 201 582 q 472 711 357 711 q 651 642 600 711 q 701 440 701 574 l 701 0 l 643 0 l 643 419 q 640 491 643 461 q 628 553 638 521 q 600 607 618 586 q 549 641 582 628 q 472 654 517 654 q 297 592 375 654 q 192 433 218 531 q 181 339 181 394 l 181 0 l 122 0 m 378 -92 l 444 -92 q 453 -157 453 -126 q 422 -278 453 -208 l 368 -278 q 393 -169 393 -212 q 378 -92 393 -132 z "},"Ň":{"ha":1044,"x_min":150,"x_max":894,"o":"m 150 0 l 150 972 l 206 972 l 760 210 l 839 88 l 842 88 q 835 210 835 161 l 835 972 l 894 972 l 894 0 l 839 0 l 285 763 l 206 885 l 203 885 q 210 763 210 811 l 210 0 l 150 0 m 486 1042 l 375 1196 l 443 1196 l 521 1085 l 524 1085 l 601 1196 l 669 1196 l 558 1042 l 486 1042 z "},"ň":{"ha":814,"x_min":122,"x_max":701,"o":"m 122 0 l 122 694 l 181 694 l 181 572 l 175 515 l 178 515 q 279 647 201 582 q 472 711 357 711 q 651 642 600 711 q 701 440 701 574 l 701 0 l 643 0 l 643 419 q 640 491 643 461 q 628 553 638 521 q 600 607 618 586 q 549 641 582 628 q 472 654 517 654 q 297 592 375 654 q 192 433 218 531 q 181 339 181 394 l 181 0 l 122 0 m 392 818 l 281 972 l 349 972 l 426 861 l 429 861 l 507 972 l 575 972 l 464 818 l 392 818 z "},"ŉ":{"ha":814,"x_min":35,"x_max":701,"o":"m 122 0 l 122 694 l 181 694 l 181 572 l 175 515 l 178 515 q 279 647 201 582 q 472 711 357 711 q 651 642 600 711 q 701 440 701 574 l 701 0 l 643 0 l 643 419 q 640 491 643 461 q 628 553 638 521 q 600 607 618 586 q 549 641 582 628 q 472 654 517 654 q 297 592 375 654 q 192 433 218 531 q 181 339 181 394 l 181 0 l 122 0 m 44 972 l 111 972 q 119 907 119 938 q 89 786 119 856 l 35 786 q 60 894 60 851 q 44 972 60 932 z "},"Ŋ":{"ha":1044,"x_min":150,"x_max":894,"o":"m 150 0 l 150 972 l 206 972 l 760 210 l 839 88 l 842 88 q 835 210 835 161 l 835 972 l 894 972 l 894 -3 q 819 -216 894 -147 q 635 -285 743 -285 l 635 -226 q 776 -172 718 -226 q 835 6 835 -117 l 285 763 l 206 885 l 203 885 q 210 763 210 811 l 210 0 l 150 0 z "},"ŋ":{"ha":814,"x_min":122,"x_max":701,"o":"m 122 0 l 122 694 l 181 694 l 181 579 l 178 522 l 181 522 q 281 649 204 588 q 472 711 357 711 q 651 642 600 711 q 701 440 701 574 l 701 -35 q 678 -171 701 -115 q 616 -251 654 -226 q 546 -283 578 -275 q 481 -292 514 -292 l 446 -289 l 446 -235 q 476 -237 458 -237 q 527 -231 503 -237 q 580 -205 551 -224 q 626 -142 608 -186 q 643 -36 643 -99 l 643 419 q 640 491 643 461 q 628 553 638 521 q 600 607 618 586 q 549 641 582 628 q 472 654 517 654 q 297 592 375 654 q 192 433 218 531 q 181 339 181 394 l 181 0 l 122 0 z "},"Ō":{"ha":1147,"x_min":82,"x_max":1065,"o":"m 82 493 q 226 845 82 701 q 574 989 369 989 q 922 845 778 989 q 1065 493 1065 701 q 922 131 1065 279 q 574 -17 778 -17 q 226 131 369 -17 q 82 493 82 279 m 144 493 q 269 172 144 303 q 574 40 394 40 q 878 172 753 40 q 1003 493 1003 303 q 878 806 1003 679 q 574 932 753 932 q 269 806 394 932 q 144 493 144 679 m 408 1092 l 408 1147 l 740 1147 l 740 1092 l 408 1092 z "},"ō":{"ha":861,"x_min":71,"x_max":790,"o":"m 71 351 q 176 607 71 503 q 431 711 281 711 q 685 607 581 711 q 790 351 790 503 q 685 90 790 197 q 431 -17 581 -17 q 176 90 281 -17 q 71 351 71 197 m 132 351 q 219 130 132 219 q 431 40 306 40 q 642 130 556 40 q 729 351 729 219 q 642 567 729 479 q 431 654 556 654 q 219 567 306 654 q 132 351 132 479 m 265 868 l 265 924 l 597 924 l 597 868 l 265 868 z "},"Ŏ":{"ha":1147,"x_min":82,"x_max":1065,"o":"m 82 493 q 226 845 82 701 q 574 989 369 989 q 922 845 778 989 q 1065 493 1065 701 q 922 131 1065 279 q 574 -17 778 -17 q 226 131 369 -17 q 82 493 82 279 m 144 493 q 269 172 144 303 q 574 40 394 40 q 878 172 753 40 q 1003 493 1003 303 q 878 806 1003 679 q 574 932 753 932 q 269 806 394 932 q 144 493 144 679 m 672 1073 q 651 1055 672 1073 q 574 1038 631 1038 q 475 1073 517 1038 q 433 1174 433 1108 l 433 1196 l 489 1196 l 489 1176 q 513 1112 489 1133 q 574 1090 536 1090 q 634 1112 610 1090 q 658 1178 658 1133 l 658 1196 l 714 1196 l 714 1174 q 672 1073 714 1108 z "},"ŏ":{"ha":861,"x_min":71,"x_max":790,"o":"m 71 351 q 176 607 71 503 q 431 711 281 711 q 685 607 581 711 q 790 351 790 503 q 685 90 790 197 q 431 -17 581 -17 q 176 90 281 -17 q 71 351 71 197 m 132 351 q 219 130 132 219 q 431 40 306 40 q 642 130 556 40 q 729 351 729 219 q 642 567 729 479 q 431 654 556 654 q 219 567 306 654 q 132 351 132 479 m 529 849 q 508 832 529 849 q 431 814 488 814 q 332 849 374 814 q 290 950 290 885 l 290 972 l 346 972 l 346 953 q 369 888 346 910 q 431 867 393 867 q 491 888 467 867 q 515 954 515 910 l 515 972 l 571 972 l 571 950 q 529 849 571 885 z "},"Ő":{"ha":1147,"x_min":82,"x_max":1065,"o":"m 82 493 q 226 845 82 701 q 574 989 369 989 q 922 845 778 989 q 1065 493 1065 701 q 922 131 1065 279 q 574 -17 778 -17 q 226 131 369 -17 q 82 493 82 279 m 144 493 q 269 172 144 303 q 574 40 394 40 q 878 172 753 40 q 1003 493 1003 303 q 878 806 1003 679 q 574 932 753 932 q 269 806 394 932 q 144 493 144 679 m 601 1042 l 694 1196 l 772 1196 l 663 1042 l 601 1042 m 442 1042 l 528 1196 l 597 1196 l 507 1042 l 442 1042 z "},"ő":{"ha":861,"x_min":71,"x_max":790,"o":"m 71 351 q 176 607 71 503 q 431 711 281 711 q 685 607 581 711 q 790 351 790 503 q 685 90 790 197 q 431 -17 581 -17 q 176 90 281 -17 q 71 351 71 197 m 132 351 q 219 130 132 219 q 431 40 306 40 q 642 130 556 40 q 729 351 729 219 q 642 567 729 479 q 431 654 556 654 q 219 567 306 654 q 132 351 132 479 m 458 818 l 551 972 l 629 972 l 519 818 l 458 818 m 299 818 l 385 972 l 454 972 l 364 818 l 299 818 z "},"Œ":{"ha":1315,"x_min":86,"x_max":1231,"o":"m 86 486 q 224 842 86 699 q 575 986 361 986 q 658 979 600 986 q 736 972 717 972 l 1204 972 l 1204 917 l 732 917 l 732 518 l 1119 518 l 1119 463 l 732 463 l 732 56 l 1231 56 l 1231 0 l 738 0 q 660 -7 719 0 q 575 -14 600 -14 q 224 129 361 -14 q 86 486 86 272 m 149 486 q 267 169 149 294 q 575 43 385 43 q 622 46 597 43 q 658 51 646 49 l 672 54 l 672 918 q 575 929 626 929 q 267 803 385 929 q 149 486 149 676 z "},"œ":{"ha":1424,"x_min":72,"x_max":1350,"o":"m 176 84 q 124 134 176 84 q 72 346 72 185 q 177 609 72 507 q 431 711 282 711 q 625 656 538 711 q 756 504 713 600 l 758 504 q 881 657 799 603 q 1067 711 964 711 q 1276 620 1201 711 q 1350 394 1350 529 l 1347 357 l 790 357 q 879 124 794 207 q 1088 40 964 40 q 1201 62 1147 40 q 1278 106 1254 83 l 1303 128 l 1335 79 q 1303 52 1324 68 q 1219 10 1283 36 q 1088 -17 1154 -17 q 890 39 978 -17 q 760 192 801 94 l 757 192 q 626 39 714 94 q 431 -17 539 -17 q 176 84 281 -17 m 794 411 l 1289 411 q 1221 594 1283 532 q 1065 657 1158 657 q 888 592 964 657 q 794 411 813 528 m 219 568 q 176 525 219 568 q 133 346 133 482 q 219 125 133 210 q 431 40 306 40 q 642 126 556 40 q 729 353 729 213 q 642 570 729 486 q 431 654 554 654 q 219 568 306 654 z "},"Ŕ":{"ha":863,"x_min":150,"x_max":790,"o":"m 150 0 l 150 972 l 435 972 q 610 943 551 972 q 708 851 672 913 q 744 710 744 790 q 690 534 744 607 q 550 442 636 461 l 550 439 q 572 404 560 428 l 790 0 l 719 0 l 489 431 l 210 431 l 210 0 l 150 0 m 210 486 l 474 486 q 625 548 568 486 q 682 710 682 610 q 651 824 682 774 q 568 897 621 874 q 432 917 525 917 l 210 917 l 210 486 m 382 1042 l 475 1196 l 553 1196 l 443 1042 l 382 1042 z "},"ŕ":{"ha":469,"x_min":122,"x_max":440,"o":"m 122 0 l 122 694 l 181 694 l 181 563 l 175 506 l 178 506 q 264 645 206 590 q 400 700 322 700 l 440 696 l 440 638 q 408 640 424 640 q 279 585 332 640 q 201 446 226 531 q 181 300 181 379 l 181 0 l 122 0 m 254 818 l 347 972 l 425 972 l 315 818 l 254 818 z "},"Ŗ":{"ha":863,"x_min":150,"x_max":790,"o":"m 150 0 l 150 972 l 435 972 q 610 943 551 972 q 708 851 672 913 q 744 710 744 790 q 690 534 744 607 q 550 442 636 461 l 550 439 q 572 404 560 428 l 790 0 l 719 0 l 489 431 l 210 431 l 210 0 l 150 0 m 210 486 l 474 486 q 625 548 568 486 q 682 710 682 610 q 651 824 682 774 q 568 897 621 874 q 432 917 525 917 l 210 917 l 210 486 m 407 -92 l 474 -92 q 482 -157 482 -126 q 451 -278 482 -208 l 397 -278 q 422 -169 422 -212 q 407 -92 422 -132 z "},"ŗ":{"ha":469,"x_min":110,"x_max":440,"o":"m 122 0 l 122 694 l 181 694 l 181 563 l 175 506 l 178 506 q 264 645 206 590 q 400 700 322 700 l 440 696 l 440 638 q 408 640 424 640 q 279 585 332 640 q 201 446 226 531 q 181 300 181 379 l 181 0 l 122 0 m 119 -92 l 186 -92 q 194 -157 194 -128 q 164 -278 194 -208 l 110 -278 q 135 -169 135 -212 q 119 -92 135 -132 z "},"Ř":{"ha":863,"x_min":150,"x_max":790,"o":"m 150 0 l 150 972 l 435 972 q 610 943 551 972 q 708 851 672 913 q 744 710 744 790 q 690 534 744 607 q 550 442 636 461 l 550 439 q 572 404 560 428 l 790 0 l 719 0 l 489 431 l 210 431 l 210 0 l 150 0 m 210 486 l 474 486 q 625 548 568 486 q 682 710 682 610 q 651 824 682 774 q 568 897 621 874 q 432 917 525 917 l 210 917 l 210 486 m 378 1042 l 267 1196 l 335 1196 l 413 1085 l 415 1085 l 493 1196 l 561 1196 l 450 1042 l 378 1042 z "},"ř":{"ha":469,"x_min":122,"x_max":440,"o":"m 122 0 l 122 694 l 181 694 l 181 563 l 175 506 l 178 506 q 264 645 206 590 q 400 700 322 700 l 440 696 l 440 638 q 408 640 424 640 q 279 585 332 640 q 201 446 226 531 q 181 300 181 379 l 181 0 l 122 0 m 250 818 l 139 972 l 207 972 l 285 861 l 288 861 l 365 972 l 433 972 l 322 818 l 250 818 z "},"Ś":{"ha":736,"x_min":78,"x_max":657,"o":"m 78 104 l 118 150 q 130 138 122 146 q 163 112 138 131 q 217 79 189 93 q 289 53 244 65 q 378 42 333 42 q 533 94 471 42 q 594 233 594 147 q 567 332 594 289 q 496 401 540 375 q 399 451 451 428 q 293 499 346 475 q 196 553 240 524 q 124 629 151 582 q 97 738 97 676 q 179 914 97 839 q 389 989 261 989 q 475 980 433 989 q 544 958 517 971 q 594 931 572 944 q 625 908 615 917 l 636 899 l 603 847 q 576 871 593 857 q 503 908 558 885 q 390 931 447 931 q 224 872 288 931 q 160 739 160 814 q 187 648 160 688 q 258 583 214 608 q 356 536 303 558 q 461 489 408 514 q 558 433 514 464 q 630 352 603 403 q 657 236 657 301 q 580 56 657 128 q 375 -17 503 -17 q 271 -4 321 -17 q 188 26 221 8 q 128 62 154 44 q 89 92 101 79 l 78 104 m 340 1042 l 433 1196 l 511 1196 l 401 1042 l 340 1042 z "},"ś":{"ha":606,"x_min":63,"x_max":536,"o":"m 63 83 l 100 128 q 125 103 108 118 q 198 65 142 89 q 315 40 254 40 q 429 75 383 40 q 475 171 475 110 q 435 253 475 219 q 340 307 396 286 q 228 351 285 328 q 133 418 172 375 q 93 524 93 461 q 157 662 93 613 q 315 711 221 711 q 429 692 378 711 q 500 656 481 674 l 521 636 l 486 589 q 467 607 479 596 q 409 636 454 618 q 311 654 364 654 q 200 623 246 654 q 154 528 154 592 q 194 444 154 478 q 290 390 233 411 q 401 345 346 368 q 497 278 457 322 q 536 171 536 235 q 474 35 536 88 q 314 -17 411 -17 q 176 8 239 -17 q 89 58 114 33 l 63 83 m 279 818 l 372 972 l 450 972 l 340 818 l 279 818 z "},"Ŝ":{"ha":736,"x_min":78,"x_max":657,"o":"m 78 104 l 118 150 q 130 138 122 146 q 163 112 138 131 q 217 79 189 93 q 289 53 244 65 q 378 42 333 42 q 533 94 471 42 q 594 233 594 147 q 567 332 594 289 q 496 401 540 375 q 399 451 451 428 q 293 499 346 475 q 196 553 240 524 q 124 629 151 582 q 97 738 97 676 q 179 914 97 839 q 389 989 261 989 q 475 980 433 989 q 544 958 517 971 q 594 931 572 944 q 625 908 615 917 l 636 899 l 603 847 q 576 871 593 857 q 503 908 558 885 q 390 931 447 931 q 224 872 288 931 q 160 739 160 814 q 187 648 160 688 q 258 583 214 608 q 356 536 303 558 q 461 489 408 514 q 558 433 514 464 q 630 352 603 403 q 657 236 657 301 q 580 56 657 128 q 375 -17 503 -17 q 271 -4 321 -17 q 188 26 221 8 q 128 62 154 44 q 89 92 101 79 l 78 104 m 226 1042 l 338 1196 l 410 1196 l 521 1042 l 453 1042 l 375 1153 l 372 1153 l 294 1042 l 226 1042 z "},"ŝ":{"ha":606,"x_min":63,"x_max":536,"o":"m 63 83 l 100 128 q 125 103 108 118 q 198 65 142 89 q 315 40 254 40 q 429 75 383 40 q 475 171 475 110 q 435 253 475 219 q 340 307 396 286 q 228 351 285 328 q 133 418 172 375 q 93 524 93 461 q 157 662 93 613 q 315 711 221 711 q 429 692 378 711 q 500 656 481 674 l 521 636 l 486 589 q 467 607 479 596 q 409 636 454 618 q 311 654 364 654 q 200 623 246 654 q 154 528 154 592 q 194 444 154 478 q 290 390 233 411 q 401 345 346 368 q 497 278 457 322 q 536 171 536 235 q 474 35 536 88 q 314 -17 411 -17 q 176 8 239 -17 q 89 58 114 33 l 63 83 m 165 818 l 276 972 l 349 972 l 460 818 l 392 818 l 314 929 l 311 929 l 233 818 l 165 818 z "},"Ş":{"ha":736,"x_min":78,"x_max":657,"o":"m 78 104 l 118 150 q 130 138 122 146 q 163 112 138 131 q 217 79 189 93 q 289 53 244 65 q 378 42 333 42 q 533 94 471 42 q 594 233 594 147 q 567 332 594 289 q 496 401 540 375 q 399 451 451 428 q 293 499 346 475 q 196 553 240 524 q 124 629 151 582 q 97 738 97 676 q 179 914 97 839 q 389 989 261 989 q 475 980 433 989 q 544 958 517 971 q 594 931 572 944 q 625 908 615 917 l 636 899 l 603 847 q 576 871 593 857 q 503 908 558 885 q 390 931 447 931 q 224 872 288 931 q 160 739 160 814 q 187 648 160 688 q 258 583 214 608 q 356 536 303 558 q 461 489 408 514 q 558 433 514 464 q 630 352 603 403 q 657 236 657 301 q 585 62 657 133 q 396 -15 514 -10 l 383 -83 q 453 -115 426 -90 q 479 -178 479 -140 q 443 -258 479 -232 q 353 -283 407 -283 l 292 -278 l 292 -225 q 349 -232 317 -232 q 424 -181 424 -232 q 339 -128 424 -128 l 322 -129 l 346 -15 q 201 20 268 -10 q 106 78 135 50 l 78 104 z "},"ş":{"ha":606,"x_min":63,"x_max":536,"o":"m 63 83 l 100 128 q 125 103 108 118 q 198 65 142 89 q 315 40 254 40 q 429 75 383 40 q 475 171 475 110 q 435 253 475 219 q 340 307 396 286 q 228 351 285 328 q 133 418 172 375 q 93 524 93 461 q 157 662 93 613 q 315 711 221 711 q 429 692 378 711 q 500 656 481 674 l 521 636 l 486 589 q 467 607 479 596 q 409 636 454 618 q 311 654 364 654 q 200 623 246 654 q 154 528 154 592 q 194 444 154 478 q 290 390 233 411 q 401 345 346 368 q 497 278 457 322 q 536 171 536 235 q 478 42 536 93 q 332 -15 421 -10 l 319 -83 q 389 -115 363 -90 q 415 -178 415 -140 q 379 -258 415 -232 q 289 -283 343 -283 l 228 -278 l 228 -225 q 285 -232 253 -232 q 360 -181 360 -232 q 275 -128 360 -128 l 258 -129 l 282 -15 q 162 15 217 -10 q 85 61 107 39 l 63 83 z "},"Š":{"ha":736,"x_min":78,"x_max":657,"o":"m 78 104 l 118 150 q 130 138 122 146 q 163 112 138 131 q 217 79 189 93 q 289 53 244 65 q 378 42 333 42 q 533 94 471 42 q 594 233 594 147 q 567 332 594 289 q 496 401 540 375 q 399 451 451 428 q 293 499 346 475 q 196 553 240 524 q 124 629 151 582 q 97 738 97 676 q 179 914 97 839 q 389 989 261 989 q 475 980 433 989 q 544 958 517 971 q 594 931 572 944 q 625 908 615 917 l 636 899 l 603 847 q 576 871 593 857 q 503 908 558 885 q 390 931 447 931 q 224 872 288 931 q 160 739 160 814 q 187 648 160 688 q 258 583 214 608 q 356 536 303 558 q 461 489 408 514 q 558 433 514 464 q 630 352 603 403 q 657 236 657 301 q 580 56 657 128 q 375 -17 503 -17 q 271 -4 321 -17 q 188 26 221 8 q 128 62 154 44 q 89 92 101 79 l 78 104 m 338 1042 l 226 1196 l 294 1196 l 372 1085 l 375 1085 l 453 1196 l 521 1196 l 410 1042 l 338 1042 z "},"š":{"ha":606,"x_min":63,"x_max":536,"o":"m 63 83 l 100 128 q 125 103 108 118 q 198 65 142 89 q 315 40 254 40 q 429 75 383 40 q 475 171 475 110 q 435 253 475 219 q 340 307 396 286 q 228 351 285 328 q 133 418 172 375 q 93 524 93 461 q 157 662 93 613 q 315 711 221 711 q 429 692 378 711 q 500 656 481 674 l 521 636 l 486 589 q 467 607 479 596 q 409 636 454 618 q 311 654 364 654 q 200 623 246 654 q 154 528 154 592 q 194 444 154 478 q 290 390 233 411 q 401 345 346 368 q 497 278 457 322 q 536 171 536 235 q 474 35 536 88 q 314 -17 411 -17 q 176 8 239 -17 q 89 58 114 33 l 63 83 m 276 818 l 165 972 l 233 972 l 311 861 l 314 861 l 392 972 l 460 972 l 349 818 l 276 818 z "},"Ţ":{"ha":807,"x_min":11,"x_max":796,"o":"m 374 0 l 374 917 l 11 917 l 11 972 l 796 972 l 796 917 l 433 917 l 433 0 l 426 0 l 411 -83 q 481 -115 454 -90 q 507 -178 507 -140 q 471 -258 507 -232 q 381 -283 435 -283 l 319 -278 l 319 -225 q 376 -232 344 -232 q 451 -181 451 -232 q 367 -128 451 -128 l 350 -129 l 378 0 l 374 0 z "},"ţ":{"ha":438,"x_min":54,"x_max":401,"o":"m 146 251 l 146 638 l 54 638 l 54 690 l 146 690 l 146 888 l 204 888 l 204 690 l 386 690 l 386 638 l 204 638 l 204 256 q 222 147 204 192 q 267 83 239 103 q 319 56 294 63 q 369 49 343 49 l 401 51 l 401 -3 q 367 -6 388 -6 q 290 4 329 -6 l 275 -83 q 344 -115 318 -90 q 371 -178 371 -140 q 335 -258 371 -232 q 244 -283 299 -283 l 183 -278 l 183 -225 q 240 -232 208 -232 q 315 -181 315 -232 q 231 -128 315 -128 l 214 -129 l 247 24 q 146 251 146 83 z "},"Ť":{"ha":807,"x_min":11,"x_max":796,"o":"m 374 0 l 374 917 l 11 917 l 11 972 l 796 972 l 796 917 l 433 917 l 433 0 l 374 0 m 367 1042 l 256 1196 l 324 1196 l 401 1085 l 404 1085 l 482 1196 l 550 1196 l 439 1042 l 367 1042 z "},"ť":{"ha":436,"x_min":53,"x_max":400,"o":"m 144 251 l 144 638 l 53 638 l 53 690 l 144 690 l 144 888 l 203 888 l 203 690 l 385 690 l 385 638 l 203 638 l 203 256 q 220 147 203 192 q 265 83 238 103 q 317 56 293 63 q 368 49 342 49 l 400 51 l 400 -3 q 365 -6 386 -6 q 314 -1 339 -6 q 257 19 289 3 q 201 61 225 35 q 161 137 178 88 q 144 251 144 186 m 304 972 l 371 972 q 379 907 379 938 q 349 786 379 856 l 294 786 q 319 894 319 851 q 304 972 319 932 z "},"Ŧ":{"ha":839,"x_min":26,"x_max":811,"o":"m 158 468 l 158 524 l 389 524 l 389 917 l 26 917 l 26 972 l 811 972 l 811 917 l 449 917 l 449 524 l 685 524 l 685 468 l 449 468 l 449 0 l 389 0 l 389 468 l 158 468 z "},"ŧ":{"ha":471,"x_min":67,"x_max":414,"o":"m 67 410 l 67 465 l 158 465 l 158 638 l 67 638 l 67 690 l 158 690 l 158 888 l 217 888 l 217 690 l 399 690 l 399 638 l 217 638 l 217 465 l 399 465 l 399 410 l 217 410 l 217 256 q 234 147 217 192 q 279 83 251 103 q 331 56 307 63 q 382 49 356 49 l 414 51 l 414 -3 q 379 -6 400 -6 q 328 -1 353 -6 q 271 19 303 3 q 215 61 239 35 q 175 137 192 88 q 158 251 158 186 l 158 410 l 67 410 z "},"Ũ":{"ha":999,"x_min":136,"x_max":863,"o":"m 136 333 l 136 972 l 196 972 l 196 336 q 278 120 196 200 q 499 40 360 40 q 720 120 638 40 q 803 339 803 200 l 803 972 l 863 972 l 863 333 q 762 78 863 174 q 500 -17 661 -17 q 237 79 338 -17 q 136 333 136 175 m 299 1046 q 414 1196 299 1196 q 472 1180 446 1196 q 512 1144 497 1164 q 547 1109 526 1125 q 589 1093 568 1093 q 644 1192 644 1093 l 700 1192 q 585 1042 700 1042 q 527 1058 553 1042 q 487 1093 501 1074 q 451 1128 472 1113 q 410 1144 431 1144 q 354 1046 354 1144 l 299 1046 z "},"ũ":{"ha":807,"x_min":113,"x_max":685,"o":"m 113 254 l 113 694 l 171 694 l 171 275 q 174 203 171 233 q 186 141 176 174 q 214 88 196 108 q 265 53 232 67 q 342 40 297 40 q 547 134 467 40 q 626 356 626 228 l 626 694 l 685 694 l 685 0 l 626 0 l 626 122 l 632 179 l 629 179 q 529 48 606 113 q 342 -17 453 -17 q 165 50 218 -17 q 113 254 113 117 m 199 822 q 314 972 199 972 q 372 956 346 972 q 412 921 397 940 q 447 885 426 901 q 489 869 468 869 q 544 968 544 869 l 600 968 q 485 818 600 818 q 427 834 453 818 q 387 869 401 850 q 351 905 372 889 q 310 921 331 921 q 254 822 254 921 l 199 822 z "},"Ū":{"ha":999,"x_min":136,"x_max":863,"o":"m 136 333 l 136 972 l 196 972 l 196 336 q 278 120 196 200 q 499 40 360 40 q 720 120 638 40 q 803 339 803 200 l 803 972 l 863 972 l 863 333 q 762 78 863 174 q 500 -17 661 -17 q 237 79 338 -17 q 136 333 136 175 m 333 1092 l 333 1147 l 665 1147 l 665 1092 l 333 1092 z "},"ū":{"ha":807,"x_min":113,"x_max":685,"o":"m 113 254 l 113 694 l 171 694 l 171 275 q 174 203 171 233 q 186 141 176 174 q 214 88 196 108 q 265 53 232 67 q 342 40 297 40 q 547 134 467 40 q 626 356 626 228 l 626 694 l 685 694 l 685 0 l 626 0 l 626 122 l 632 179 l 629 179 q 529 48 606 113 q 342 -17 453 -17 q 165 50 218 -17 q 113 254 113 117 m 233 868 l 233 924 l 565 924 l 565 868 l 233 868 z "},"Ŭ":{"ha":999,"x_min":136,"x_max":863,"o":"m 136 333 l 136 972 l 196 972 l 196 336 q 278 120 196 200 q 499 40 360 40 q 720 120 638 40 q 803 339 803 200 l 803 972 l 863 972 l 863 333 q 762 78 863 174 q 500 -17 661 -17 q 237 79 338 -17 q 136 333 136 175 m 597 1073 q 576 1055 597 1073 q 499 1038 556 1038 q 400 1073 442 1038 q 358 1174 358 1108 l 358 1196 l 414 1196 l 414 1176 q 438 1112 414 1133 q 499 1090 461 1090 q 559 1112 535 1090 q 583 1178 583 1133 l 583 1196 l 639 1196 l 639 1174 q 597 1073 639 1108 z "},"ŭ":{"ha":807,"x_min":113,"x_max":685,"o":"m 113 254 l 113 694 l 171 694 l 171 275 q 174 203 171 233 q 186 141 176 174 q 214 88 196 108 q 265 53 232 67 q 342 40 297 40 q 547 134 467 40 q 626 356 626 228 l 626 694 l 685 694 l 685 0 l 626 0 l 626 122 l 632 179 l 629 179 q 529 48 606 113 q 342 -17 453 -17 q 165 50 218 -17 q 113 254 113 117 m 497 849 q 476 832 497 849 q 399 814 456 814 q 300 849 342 814 q 258 950 258 885 l 258 972 l 314 972 l 314 953 q 338 888 314 910 q 399 867 361 867 q 459 888 435 867 q 483 954 483 910 l 483 972 l 539 972 l 539 950 q 497 849 539 885 z "},"Ů":{"ha":999,"x_min":136,"x_max":863,"o":"m 136 333 l 136 972 l 196 972 l 196 336 q 278 120 196 200 q 499 40 360 40 q 720 120 638 40 q 803 339 803 200 l 803 972 l 863 972 l 863 333 q 762 78 863 174 q 500 -17 661 -17 q 237 79 338 -17 q 136 333 136 175 m 565 1054 q 552 1041 565 1054 q 499 1028 539 1028 q 432 1054 458 1028 q 406 1121 406 1081 q 432 1188 406 1161 q 499 1214 458 1214 q 565 1188 539 1214 q 592 1121 592 1161 q 565 1054 592 1081 m 467 1089 q 473 1083 467 1089 q 499 1076 479 1076 q 531 1089 518 1076 q 543 1121 543 1101 q 531 1154 543 1142 q 499 1167 518 1167 q 467 1154 479 1167 q 454 1121 454 1142 q 467 1089 454 1101 z "},"ů":{"ha":807,"x_min":113,"x_max":685,"o":"m 113 254 l 113 694 l 171 694 l 171 275 q 174 203 171 233 q 186 141 176 174 q 214 88 196 108 q 265 53 232 67 q 342 40 297 40 q 547 134 467 40 q 626 356 626 228 l 626 694 l 685 694 l 685 0 l 626 0 l 626 122 l 632 179 l 629 179 q 529 48 606 113 q 342 -17 453 -17 q 165 50 218 -17 q 113 254 113 117 m 465 831 q 452 818 465 831 q 399 804 439 804 q 332 831 358 804 q 306 897 306 858 q 332 963 306 936 q 399 990 358 990 q 465 963 439 990 q 492 897 492 936 q 465 831 492 858 m 367 865 q 373 859 367 865 q 399 853 379 853 q 431 865 418 853 q 443 897 443 878 q 431 931 443 918 q 399 943 418 943 q 367 931 379 943 q 354 897 354 918 q 367 865 354 878 z "},"Ű":{"ha":999,"x_min":136,"x_max":863,"o":"m 136 333 l 136 972 l 196 972 l 196 336 q 278 120 196 200 q 499 40 360 40 q 720 120 638 40 q 803 339 803 200 l 803 972 l 863 972 l 863 333 q 762 78 863 174 q 500 -17 661 -17 q 237 79 338 -17 q 136 333 136 175 m 526 1042 l 619 1196 l 697 1196 l 588 1042 l 526 1042 m 367 1042 l 453 1196 l 522 1196 l 432 1042 l 367 1042 z "},"ű":{"ha":807,"x_min":113,"x_max":685,"o":"m 113 254 l 113 694 l 171 694 l 171 275 q 174 203 171 233 q 186 141 176 174 q 214 88 196 108 q 265 53 232 67 q 342 40 297 40 q 547 134 467 40 q 626 356 626 228 l 626 694 l 685 694 l 685 0 l 626 0 l 626 122 l 632 179 l 629 179 q 529 48 606 113 q 342 -17 453 -17 q 165 50 218 -17 q 113 254 113 117 m 426 818 l 519 972 l 597 972 l 488 818 l 426 818 m 267 818 l 353 972 l 422 972 l 332 818 l 267 818 z "},"Ų":{"ha":1000,"x_min":136,"x_max":863,"o":"m 464 -157 q 535 -18 464 -86 l 535 -15 q 500 -17 513 -17 q 237 79 338 -17 q 136 333 136 175 l 136 972 l 196 972 l 196 336 q 278 120 196 200 q 499 40 360 40 q 720 120 638 40 q 803 339 803 200 l 803 972 l 863 972 l 863 333 q 813 144 863 215 q 681 21 764 74 q 603 -31 629 -11 q 551 -83 576 -50 q 526 -151 526 -117 q 550 -201 526 -182 q 597 -225 574 -221 l 621 -229 l 608 -283 q 593 -282 603 -283 q 558 -273 583 -281 q 514 -253 533 -265 q 479 -215 494 -240 q 464 -157 464 -190 z "},"ų":{"ha":807,"x_min":113,"x_max":685,"o":"m 113 254 l 113 694 l 171 694 l 171 275 q 174 203 171 233 q 186 141 176 174 q 214 88 196 108 q 265 53 232 67 q 342 40 297 40 q 547 134 467 40 q 626 356 626 228 l 626 694 l 685 694 l 685 0 q 574 -151 574 -82 q 597 -201 574 -182 q 644 -225 621 -221 l 668 -229 l 656 -283 q 640 -282 650 -283 q 606 -273 631 -281 q 561 -253 581 -265 q 526 -215 542 -240 q 511 -157 511 -190 q 540 -72 511 -114 q 592 -12 569 -31 q 626 11 615 6 l 626 115 l 629 172 l 626 172 q 528 45 603 107 q 342 -17 454 -17 q 165 50 218 -17 q 113 254 113 117 z "},"Ŵ":{"ha":1276,"x_min":60,"x_max":1219,"o":"m 636 888 l 633 888 q 596 733 614 796 l 390 0 l 315 0 l 60 972 l 122 972 l 328 181 l 351 76 l 354 76 l 358 92 q 368 133 361 107 q 381 181 375 160 l 603 972 l 669 972 l 892 181 q 904 133 897 160 q 914 92 911 107 l 918 76 l 921 76 q 944 181 932 133 l 1157 972 l 1219 972 l 957 0 l 882 0 l 676 733 l 639 888 l 636 888 m 504 1042 l 615 1196 l 688 1196 l 799 1042 l 731 1042 l 653 1153 l 650 1153 l 572 1042 l 504 1042 z "},"ŵ":{"ha":1107,"x_min":29,"x_max":1078,"o":"m 274 0 l 29 694 l 92 694 l 281 150 l 304 75 l 307 75 q 331 150 319 117 l 521 692 l 586 692 l 776 150 l 800 75 l 803 75 q 826 150 814 115 l 1015 694 l 1078 694 l 833 0 l 771 0 l 578 539 l 554 614 l 551 614 q 528 539 540 572 l 336 0 l 274 0 m 406 818 l 517 972 l 589 972 l 700 818 l 632 818 l 554 929 l 551 929 l 474 818 l 406 818 z "},"Ŷ":{"ha":772,"x_min":26,"x_max":746,"o":"m 357 0 l 357 422 l 26 972 l 94 972 l 325 589 l 385 479 l 388 479 q 447 589 418 542 l 678 972 l 746 972 l 417 422 l 417 0 l 357 0 m 239 1042 l 350 1196 l 422 1196 l 533 1042 l 465 1042 l 388 1153 l 385 1153 l 307 1042 l 239 1042 z "},"ŷ":{"ha":679,"x_min":11,"x_max":657,"o":"m 11 -253 l 38 -203 q 124 -236 76 -236 q 260 -111 207 -236 l 310 4 l 22 694 l 85 694 l 314 140 l 339 75 l 342 75 q 365 140 351 107 l 594 694 l 657 694 l 300 -162 q 124 -292 246 -292 q 66 -282 94 -292 q 25 -262 38 -272 l 11 -253 m 194 818 l 306 972 l 378 972 l 489 818 l 421 818 l 343 929 l 340 929 l 263 818 l 194 818 z "},"Ÿ":{"ha":772,"x_min":26,"x_max":746,"o":"m 357 0 l 357 422 l 26 972 l 94 972 l 325 589 l 385 479 l 388 479 q 447 589 418 542 l 678 972 l 746 972 l 417 422 l 417 0 l 357 0 m 442 1094 l 442 1196 l 506 1196 l 506 1094 l 442 1094 m 251 1094 l 251 1196 l 315 1196 l 315 1094 l 251 1094 z "},"Ź":{"ha":814,"x_min":61,"x_max":739,"o":"m 61 0 l 61 47 l 596 828 l 663 917 l 663 919 q 592 917 640 917 l 90 917 l 90 972 l 735 972 l 735 925 l 200 144 l 133 56 l 133 53 q 204 56 156 56 l 739 56 l 739 0 l 61 0 m 389 1042 l 482 1196 l 560 1196 l 450 1042 l 389 1042 z "},"ź":{"ha":696,"x_min":61,"x_max":631,"o":"m 61 0 l 61 47 l 482 576 l 536 640 l 536 643 q 465 640 511 640 l 79 640 l 79 694 l 615 694 l 615 647 l 193 118 l 138 54 l 138 51 q 210 54 164 54 l 631 54 l 631 0 l 61 0 m 313 818 l 406 972 l 483 972 l 374 818 l 313 818 z "},"Ż":{"ha":814,"x_min":61,"x_max":739,"o":"m 61 0 l 61 47 l 596 828 l 663 917 l 663 919 q 592 917 640 917 l 90 917 l 90 972 l 735 972 l 735 925 l 200 144 l 133 56 l 133 53 q 204 56 156 56 l 739 56 l 739 0 l 61 0 m 389 1094 l 389 1196 l 453 1196 l 453 1094 l 389 1094 z "},"ż":{"ha":696,"x_min":61,"x_max":631,"o":"m 61 0 l 61 47 l 482 576 l 536 640 l 536 643 q 465 640 511 640 l 79 640 l 79 694 l 615 694 l 615 647 l 193 118 l 138 54 l 138 51 q 210 54 164 54 l 631 54 l 631 0 l 61 0 m 314 871 l 314 972 l 378 972 l 378 871 l 314 871 z "},"Ž":{"ha":814,"x_min":61,"x_max":739,"o":"m 61 0 l 61 47 l 596 828 l 663 917 l 663 919 q 592 917 640 917 l 90 917 l 90 972 l 735 972 l 735 925 l 200 144 l 133 56 l 133 53 q 204 56 156 56 l 739 56 l 739 0 l 61 0 m 385 1042 l 274 1196 l 342 1196 l 419 1085 l 422 1085 l 500 1196 l 568 1196 l 457 1042 l 385 1042 z "},"ž":{"ha":696,"x_min":61,"x_max":631,"o":"m 61 0 l 61 47 l 482 576 l 536 640 l 536 643 q 465 640 511 640 l 79 640 l 79 694 l 615 694 l 615 647 l 193 118 l 138 54 l 138 51 q 210 54 164 54 l 631 54 l 631 0 l 61 0 m 310 818 l 199 972 l 267 972 l 344 861 l 347 861 l 425 972 l 493 972 l 382 818 l 310 818 z "},"ſ":{"ha":332,"x_min":64,"x_max":407,"o":"m 151 0 l 151 638 l 64 638 l 64 690 l 151 690 l 151 722 q 175 858 151 803 q 237 938 199 914 q 306 970 275 961 q 371 979 338 979 l 407 976 l 407 922 q 375 925 394 925 q 325 918 349 925 q 273 892 301 911 q 227 830 244 874 q 210 724 210 786 l 210 0 l 151 0 z "},"ƒ":{"ha":789,"x_min":56,"x_max":733,"o":"m 56 -79 q 142 -86 93 -86 q 181 -83 161 -86 q 225 -67 200 -79 q 269 -33 250 -54 q 303 26 288 -12 q 322 115 318 64 l 358 525 l 225 525 l 225 578 l 363 578 l 376 732 q 403 847 382 797 q 450 922 424 896 q 510 965 476 949 q 570 985 544 981 q 621 989 596 989 q 675 986 647 989 q 718 981 703 983 l 733 979 l 733 925 q 619 935 675 935 q 569 928 593 935 q 515 902 544 921 q 464 840 485 883 q 438 733 443 796 l 422 578 l 607 578 l 607 525 l 418 525 l 382 117 q 347 -19 375 36 q 278 -99 318 -75 q 206 -132 238 -124 q 140 -140 174 -140 l 56 -133 l 56 -79 z "},"Ș":{"ha":736,"x_min":78,"x_max":657,"o":"m 78 104 l 118 150 q 130 138 122 146 q 163 112 138 131 q 217 79 189 93 q 289 53 244 65 q 378 42 333 42 q 533 94 471 42 q 594 233 594 147 q 567 332 594 289 q 496 401 540 375 q 399 451 451 428 q 293 499 346 475 q 196 553 240 524 q 124 629 151 582 q 97 738 97 676 q 179 914 97 839 q 389 989 261 989 q 475 980 433 989 q 544 958 517 971 q 594 931 572 944 q 625 908 615 917 l 636 899 l 603 847 q 576 871 593 857 q 503 908 558 885 q 390 931 447 931 q 224 872 288 931 q 160 739 160 814 q 187 648 160 688 q 258 583 214 608 q 356 536 303 558 q 461 489 408 514 q 558 433 514 464 q 630 352 603 403 q 657 236 657 301 q 580 56 657 128 q 375 -17 503 -17 q 271 -4 321 -17 q 188 26 221 8 q 128 62 154 44 q 89 92 101 79 l 78 104 m 336 -92 l 403 -92 q 411 -157 411 -126 q 381 -278 411 -208 l 326 -278 q 351 -169 351 -212 q 336 -92 351 -132 z "},"ș":{"ha":606,"x_min":63,"x_max":536,"o":"m 63 83 l 100 128 q 125 103 108 118 q 198 65 142 89 q 315 40 254 40 q 429 75 383 40 q 475 171 475 110 q 435 253 475 219 q 340 307 396 286 q 228 351 285 328 q 133 418 172 375 q 93 524 93 461 q 157 662 93 613 q 315 711 221 711 q 429 692 378 711 q 500 656 481 674 l 521 636 l 486 589 q 467 607 479 596 q 409 636 454 618 q 311 654 364 654 q 200 623 246 654 q 154 528 154 592 q 194 444 154 478 q 290 390 233 411 q 401 345 346 368 q 497 278 457 322 q 536 171 536 235 q 474 35 536 88 q 314 -17 411 -17 q 176 8 239 -17 q 89 58 114 33 l 63 83 m 276 -92 l 343 -92 q 351 -157 351 -128 q 321 -278 351 -208 l 267 -278 q 292 -169 292 -212 q 276 -92 292 -132 z "},"Ț":{"ha":807,"x_min":11,"x_max":796,"o":"m 374 0 l 374 917 l 11 917 l 11 972 l 796 972 l 796 917 l 433 917 l 433 0 l 374 0 m 371 -92 l 438 -92 q 446 -157 446 -126 q 415 -278 446 -208 l 361 -278 q 386 -169 386 -212 q 371 -92 386 -132 z "},"ț":{"ha":436,"x_min":53,"x_max":400,"o":"m 144 251 l 144 638 l 53 638 l 53 690 l 144 690 l 144 888 l 203 888 l 203 690 l 385 690 l 385 638 l 203 638 l 203 256 q 220 147 203 192 q 265 83 238 103 q 317 56 293 63 q 368 49 342 49 l 400 51 l 400 -3 q 365 -6 386 -6 q 314 -1 339 -6 q 257 19 289 3 q 201 61 225 35 q 161 137 178 88 q 144 251 144 186 m 256 -92 l 322 -92 q 331 -157 331 -128 q 300 -278 331 -208 l 246 -278 q 271 -169 271 -212 q 256 -92 271 -132 z "},"ˆ":{"ha":706,"x_min":206,"x_max":500,"o":"m 206 1042 l 317 1196 l 389 1196 l 500 1042 l 432 1042 l 354 1153 l 351 1153 l 274 1042 l 206 1042 z "},"ˇ":{"ha":706,"x_min":206,"x_max":500,"o":"m 317 1042 l 206 1196 l 274 1196 l 351 1085 l 354 1085 l 432 1196 l 500 1196 l 389 1042 l 317 1042 z "},"˘":{"ha":708,"x_min":214,"x_max":494,"o":"m 453 1073 q 432 1055 453 1073 q 354 1038 411 1038 q 256 1073 297 1038 q 214 1174 214 1108 l 214 1196 l 269 1196 l 269 1176 q 293 1112 269 1133 q 354 1090 317 1090 q 415 1112 390 1090 q 439 1178 439 1133 l 439 1196 l 494 1196 l 494 1174 q 453 1073 494 1108 z "},"˙":{"ha":708,"x_min":322,"x_max":386,"o":"m 322 1094 l 322 1196 l 386 1196 l 386 1094 l 322 1094 z "},"˚":{"ha":708,"x_min":261,"x_max":447,"o":"m 421 1054 q 408 1041 421 1054 q 354 1028 394 1028 q 288 1054 314 1028 q 261 1121 261 1081 q 288 1188 261 1161 q 354 1214 314 1214 q 421 1188 394 1214 q 447 1121 447 1161 q 421 1054 447 1081 m 322 1089 q 328 1083 322 1089 q 354 1076 335 1076 q 386 1089 374 1076 q 399 1121 399 1101 q 386 1154 399 1142 q 354 1167 374 1167 q 322 1154 335 1167 q 310 1121 310 1142 q 322 1089 310 1101 z "},"˛":{"ha":707,"x_min":260,"x_max":447,"o":"m 260 -157 q 274 -96 260 -126 q 307 -44 288 -65 q 346 -6 326 -22 q 379 19 365 11 l 393 28 l 447 10 q 413 -15 433 0 q 357 -73 392 -31 q 322 -151 322 -115 q 346 -201 322 -182 q 393 -225 369 -221 l 417 -229 l 404 -283 q 389 -282 399 -283 q 354 -273 379 -281 q 310 -253 329 -265 q 275 -215 290 -240 q 260 -157 260 -190 z "},"˜":{"ha":707,"x_min":153,"x_max":554,"o":"m 153 1046 q 268 1196 153 1196 q 326 1180 300 1196 q 366 1144 351 1164 q 401 1109 381 1125 q 443 1093 422 1093 q 499 1192 499 1093 l 554 1192 q 439 1042 554 1042 q 381 1058 407 1042 q 341 1093 356 1074 q 306 1128 326 1113 q 264 1144 285 1144 q 208 1046 208 1144 l 153 1046 z "},"˝":{"ha":707,"x_min":189,"x_max":519,"o":"m 349 1042 l 442 1196 l 519 1196 l 410 1042 l 349 1042 m 189 1042 l 275 1196 l 344 1196 l 254 1042 l 189 1042 z "},"ẞ":{"ha":921,"x_min":139,"x_max":838,"o":"m 139 0 l 139 729 q 210 901 139 831 q 382 972 281 972 l 797 972 l 797 931 l 557 594 l 519 544 l 519 542 l 569 542 q 759 463 681 542 q 838 272 838 383 q 759 80 838 160 q 569 0 681 0 l 332 0 l 332 56 l 567 56 q 715 119 656 56 q 775 272 775 182 q 716 424 775 361 q 569 486 657 486 l 440 486 l 440 531 l 657 836 l 718 917 l 718 919 q 660 917 710 917 l 390 917 q 253 863 307 917 q 199 729 199 808 l 199 0 l 139 0 z "}," ":{"ha":14,"x_min":0,"x_max":0,"o":""},"–":{"ha":772,"x_min":56,"x_max":717,"o":"m 56 365 l 56 421 l 717 421 l 717 365 l 56 365 z "},"—":{"ha":1050,"x_min":56,"x_max":994,"o":"m 56 365 l 56 421 l 994 421 l 994 365 l 56 365 z "},"‘":{"ha":278,"x_min":83,"x_max":204,"o":"m 83 774 l 150 983 l 204 983 l 156 774 l 83 774 z "},"’":{"ha":274,"x_min":88,"x_max":208,"o":"m 88 774 l 136 983 l 208 983 l 142 774 l 88 774 z "},"‚":{"ha":326,"x_min":83,"x_max":204,"o":"m 83 -125 l 132 85 l 204 85 l 138 -125 l 83 -125 z "},"“":{"ha":417,"x_min":83,"x_max":343,"o":"m 222 774 l 289 983 l 343 983 l 294 774 l 222 774 m 83 774 l 150 983 l 204 983 l 156 774 l 83 774 z "},"”":{"ha":413,"x_min":88,"x_max":347,"o":"m 226 774 l 275 983 l 347 983 l 281 774 l 226 774 m 88 774 l 136 983 l 208 983 l 142 774 l 88 774 z "},"„":{"ha":465,"x_min":83,"x_max":343,"o":"m 222 -125 l 271 85 l 343 85 l 276 -125 l 222 -125 m 83 -125 l 132 85 l 204 85 l 138 -125 l 83 -125 z "},"†":{"ha":517,"x_min":68,"x_max":450,"o":"m 226 -69 l 226 639 l 68 639 l 68 694 l 226 694 l 226 972 l 285 972 l 285 694 l 450 694 l 450 639 l 285 639 l 285 -69 l 226 -69 z "},"‡":{"ha":568,"x_min":93,"x_max":475,"o":"m 93 258 l 93 314 l 251 314 l 251 639 l 93 639 l 93 694 l 251 694 l 251 972 l 310 972 l 310 694 l 475 694 l 475 639 l 310 639 l 310 314 l 475 314 l 475 258 l 310 258 l 310 -69 l 251 -69 l 251 258 l 93 258 z "},"•":{"ha":542,"x_min":88,"x_max":454,"o":"m 401 274 q 374 248 401 274 q 271 221 347 221 q 141 274 194 221 q 88 404 88 328 q 141 534 88 481 q 271 588 194 588 q 401 534 347 588 q 454 404 454 481 q 401 274 454 328 z "},"…":{"ha":921,"x_min":122,"x_max":799,"o":"m 122 0 l 122 88 l 207 88 l 207 0 l 122 0 m 418 0 l 418 88 l 503 88 l 503 0 l 418 0 m 714 0 l 714 88 l 799 88 l 799 0 l 714 0 z "},"‰":{"ha":1413,"x_min":85,"x_max":1333,"o":"m 397 679 q 370 653 397 679 q 268 626 343 626 q 140 679 193 626 q 88 807 88 732 q 140 935 88 882 q 268 989 193 989 q 397 935 343 989 q 450 807 450 882 q 397 679 450 732 m 85 0 l 822 972 l 894 972 l 157 0 l 85 0 m 182 718 q 199 700 182 718 q 268 682 217 682 q 355 718 319 682 q 390 807 390 754 q 355 897 390 860 q 268 933 319 933 q 182 897 217 933 q 147 807 147 860 q 182 718 147 754 m 1024 36 q 997 63 1024 36 q 971 164 971 89 q 1024 292 971 239 q 1151 346 1076 346 q 1280 292 1226 346 q 1333 164 1333 239 q 1280 36 1333 89 q 1151 -17 1226 -17 q 1024 36 1076 -17 m 579 36 q 553 63 579 36 q 526 164 526 89 q 579 292 526 239 q 707 346 632 346 q 835 292 782 346 q 889 164 889 239 q 835 36 889 89 q 707 -17 782 -17 q 579 36 632 -17 m 1065 253 q 1048 235 1065 253 q 1031 164 1031 217 q 1065 75 1031 111 q 1151 39 1100 39 q 1238 75 1203 39 q 1274 164 1274 111 q 1238 253 1274 217 q 1151 290 1203 290 q 1065 253 1100 290 m 621 253 q 603 235 621 253 q 586 164 586 217 q 621 75 586 111 q 707 39 656 39 q 794 75 758 39 q 829 164 829 111 q 794 253 829 217 q 707 290 758 290 q 621 253 656 290 z "},"‹":{"ha":460,"x_min":75,"x_max":376,"o":"m 303 107 l 75 392 l 303 678 l 376 678 l 149 392 l 376 107 l 303 107 z "},"›":{"ha":460,"x_min":83,"x_max":385,"o":"m 83 107 l 311 392 l 83 678 l 157 678 l 385 392 l 157 107 l 83 107 z "},"⁄":{"ha":207,"x_min":-160,"x_max":367,"o":"m -99 0 l -160 0 l 307 972 l 367 972 l -99 0 z "},"⁰":{"ha":522,"x_min":56,"x_max":467,"o":"m 467 889 q 467 731 467 889 q 261 574 467 574 q 56 889 56 574 q 261 1204 56 1204 q 467 889 467 1204 m 110 889 q 110 756 110 889 q 261 624 110 624 q 413 889 413 624 q 261 1154 413 1154 q 110 889 110 1154 z "},"⁴":{"ha":522,"x_min":36,"x_max":482,"o":"m 335 588 l 335 756 l 36 756 l 36 792 l 344 1190 l 388 1190 l 388 806 l 482 806 l 482 756 l 388 756 l 388 588 l 335 588 m 113 806 l 335 806 l 335 1010 l 339 1100 l 336 1100 q 288 1031 313 1063 l 113 808 l 113 806 z "},"⁵":{"ha":522,"x_min":68,"x_max":457,"o":"m 247 574 q 149 598 193 574 q 86 647 104 622 l 68 671 l 113 700 q 126 679 117 692 q 172 645 136 667 q 247 624 207 624 q 358 667 313 624 q 403 774 403 710 q 357 879 403 835 q 247 924 311 924 q 190 915 218 924 q 149 896 163 906 l 135 886 l 99 900 l 135 1190 l 421 1190 l 421 1140 l 179 1140 l 165 1014 l 156 954 l 158 954 q 249 974 196 974 q 397 915 338 974 q 457 774 457 857 q 396 632 457 690 q 247 574 335 574 z "},"⁶":{"ha":522,"x_min":64,"x_max":467,"o":"m 275 574 q 120 652 176 574 q 64 850 64 731 q 78 969 64 910 q 122 1083 93 1029 q 203 1171 151 1138 q 322 1204 256 1204 q 379 1197 350 1204 q 422 1183 408 1190 l 438 1176 l 411 1132 q 321 1154 369 1154 q 185 1082 238 1154 q 119 907 132 1010 l 122 907 q 190 955 146 936 q 275 974 233 974 q 413 920 358 974 q 467 779 467 867 q 412 628 467 682 q 275 574 357 574 m 275 624 q 376 668 339 624 q 413 779 413 713 q 374 884 413 844 q 274 924 335 924 q 167 889 214 924 q 121 815 121 854 q 165 686 121 749 q 275 624 208 624 z "},"⁷":{"ha":522,"x_min":68,"x_max":456,"o":"m 99 588 l 340 1050 l 392 1140 l 392 1143 q 315 1140 364 1140 l 68 1140 l 68 1190 l 456 1190 l 456 1154 l 158 588 l 99 588 z "},"⁸":{"ha":522,"x_min":57,"x_max":460,"o":"m 57 758 q 164 925 57 856 q 88 1053 88 972 q 141 1164 88 1124 q 268 1204 194 1204 q 396 1163 342 1204 q 450 1049 450 1122 q 431 969 450 1010 q 395 910 411 929 q 367 882 379 892 q 460 744 460 828 q 402 624 460 674 q 261 574 344 574 q 118 623 179 574 q 57 758 57 672 m 406 743 q 394 788 406 768 q 360 824 383 808 q 316 851 336 840 q 260 877 296 861 q 206 901 224 893 q 111 758 111 846 q 156 660 111 697 q 261 624 200 624 q 361 658 317 624 q 406 743 406 693 m 142 1053 q 150 1016 142 1033 q 168 987 158 999 q 201 962 178 975 q 238 942 225 949 q 281 922 250 936 q 324 904 313 908 q 396 1049 396 971 q 358 1126 396 1099 q 267 1154 319 1154 q 178 1128 215 1154 q 142 1053 142 1101 z "},"⁹":{"ha":522,"x_min":56,"x_max":458,"o":"m 56 999 q 110 1150 56 1096 q 247 1204 165 1204 q 402 1126 346 1204 q 458 928 458 1047 q 444 808 458 868 q 400 694 429 749 q 319 607 371 640 q 200 574 267 574 q 143 581 172 574 q 100 594 114 588 l 85 601 l 111 646 q 201 624 153 624 q 338 696 285 624 q 403 871 390 768 l 400 871 q 333 823 376 842 q 247 804 289 804 q 110 858 164 804 q 56 999 56 911 m 110 999 q 149 894 110 933 q 249 854 188 854 q 355 889 308 854 q 401 963 401 924 q 358 1092 401 1029 q 247 1154 314 1154 q 147 1110 183 1154 q 110 999 110 1065 z "},"₀":{"ha":522,"x_min":56,"x_max":467,"o":"m 467 83 q 467 -74 467 83 q 261 -232 467 -232 q 56 83 56 -232 q 261 399 56 399 q 467 83 467 399 m 110 83 q 110 -49 110 83 q 261 -182 110 -182 q 413 83 413 -182 q 261 349 413 349 q 110 83 110 349 z "},"₁":{"ha":522,"x_min":107,"x_max":422,"o":"m 107 -218 l 107 -168 l 240 -168 l 240 283 l 242 314 l 240 314 q 208 276 235 303 l 147 217 l 111 254 l 240 385 l 293 385 l 293 -168 l 422 -168 l 422 -218 l 107 -218 z "},"₂":{"ha":522,"x_min":74,"x_max":446,"o":"m 76 -218 q 74 -181 74 -193 q 106 -69 74 -118 q 183 13 138 -19 q 272 74 228 44 q 349 142 317 103 q 381 228 381 181 q 345 313 381 278 q 254 349 310 349 q 187 331 219 349 q 139 297 154 314 l 124 279 l 90 315 q 110 339 97 325 q 165 376 122 353 q 254 399 207 399 q 388 349 340 399 q 435 228 435 300 q 403 126 435 171 q 328 50 372 81 q 238 -9 283 19 q 161 -78 193 -37 q 128 -168 129 -118 l 446 -168 l 446 -218 l 76 -218 z "},"₃":{"ha":522,"x_min":64,"x_max":454,"o":"m 256 -233 q 185 -224 218 -233 q 131 -202 151 -215 q 94 -175 110 -189 q 71 -153 78 -161 l 64 -143 l 103 -107 q 119 -128 108 -115 q 170 -162 131 -140 q 257 -183 210 -183 q 356 -142 311 -183 q 400 -43 400 -101 q 355 53 400 17 q 251 90 310 90 l 207 90 l 192 124 l 342 300 l 376 335 l 376 338 q 324 333 351 333 l 96 333 l 96 383 l 450 383 l 450 347 l 272 139 q 399 90 343 133 q 454 -43 454 47 q 395 -178 454 -122 q 256 -233 336 -233 z "},"₄":{"ha":522,"x_min":36,"x_max":482,"o":"m 335 -218 l 335 -50 l 36 -50 l 36 -14 l 344 385 l 388 385 l 388 0 l 482 0 l 482 -50 l 388 -50 l 388 -218 l 335 -218 m 113 0 l 335 0 l 335 204 l 339 294 l 336 294 q 288 225 313 257 l 113 3 l 113 0 z "},"₅":{"ha":522,"x_min":68,"x_max":457,"o":"m 247 -232 q 149 -208 193 -232 q 86 -158 104 -183 l 68 -135 l 113 -106 q 126 -126 117 -114 q 172 -160 136 -139 q 247 -182 207 -182 q 358 -139 313 -182 q 403 -32 403 -96 q 357 74 403 29 q 247 118 311 118 q 190 109 218 118 q 149 90 163 100 l 135 81 l 99 94 l 135 385 l 421 385 l 421 335 l 179 335 l 165 208 l 156 149 l 158 149 q 249 168 196 168 q 397 110 338 168 q 457 -32 457 51 q 396 -174 457 -115 q 247 -232 335 -232 z "},"₆":{"ha":522,"x_min":64,"x_max":467,"o":"m 275 -232 q 120 -153 176 -232 q 64 44 64 -75 q 78 164 64 104 q 122 278 93 224 q 203 365 151 332 q 322 399 256 399 q 379 392 350 399 q 422 378 408 385 l 438 371 l 411 326 q 321 349 369 349 q 185 276 238 349 q 119 101 132 204 l 122 101 q 190 149 146 131 q 275 168 233 168 q 413 115 358 168 q 467 -26 467 61 q 412 -178 467 -124 q 275 -232 357 -232 m 275 -182 q 376 -137 339 -182 q 413 -26 413 -93 q 374 78 413 39 q 274 118 335 118 q 167 83 214 118 q 121 10 121 49 q 165 -119 121 -57 q 275 -182 208 -182 z "},"₇":{"ha":522,"x_min":68,"x_max":456,"o":"m 99 -219 l 340 243 l 392 333 l 392 336 q 315 333 364 333 l 68 333 l 68 383 l 456 383 l 456 347 l 158 -219 l 99 -219 z "},"₈":{"ha":522,"x_min":57,"x_max":460,"o":"m 57 -46 q 164 121 57 51 q 88 249 88 168 q 141 360 88 319 q 268 400 194 400 q 396 359 342 400 q 450 244 450 318 q 431 165 450 206 q 395 106 411 125 q 367 78 379 88 q 460 -60 460 24 q 402 -181 460 -131 q 261 -231 344 -231 q 118 -181 179 -231 q 57 -46 57 -132 m 406 -61 q 394 -16 406 -36 q 360 20 383 4 q 316 47 336 36 q 260 73 296 57 q 206 97 224 89 q 111 -46 111 42 q 156 -144 111 -107 q 261 -181 200 -181 q 361 -146 317 -181 q 406 -61 406 -111 m 142 249 q 150 212 142 229 q 168 183 158 194 q 201 158 178 171 q 238 138 225 144 q 281 118 250 132 q 324 100 313 104 q 396 244 396 167 q 358 322 396 294 q 267 350 319 350 q 178 324 215 350 q 142 249 142 297 z "},"₉":{"ha":522,"x_min":56,"x_max":458,"o":"m 56 193 q 110 344 56 290 q 247 399 165 399 q 402 320 346 399 q 458 122 458 242 q 444 3 458 63 q 400 -111 429 -57 q 319 -199 371 -165 q 200 -232 267 -232 q 143 -225 172 -232 q 100 -211 114 -218 l 85 -204 l 111 -160 q 201 -182 153 -182 q 338 -110 285 -182 q 403 65 390 -37 l 400 65 q 333 17 376 36 q 247 -1 289 -1 q 110 52 164 -1 q 56 193 56 106 m 110 193 q 149 88 110 128 q 249 49 188 49 q 355 83 308 49 q 401 157 401 118 q 358 286 401 224 q 247 349 314 349 q 147 304 183 349 q 110 193 110 260 z "},"€":{"ha":818,"x_min":63,"x_max":750,"o":"m 63 379 l 63 435 l 138 435 q 135 494 135 454 q 139 558 135 533 l 63 558 l 63 614 l 149 614 q 315 884 188 779 q 611 989 442 989 q 674 985 643 989 q 719 978 706 981 l 735 974 l 721 915 q 611 931 671 931 q 357 844 464 931 q 213 614 250 757 l 668 614 l 657 558 l 201 558 q 199 435 192 504 l 635 435 l 625 379 l 207 379 q 349 135 239 229 q 611 42 458 42 q 674 46 643 42 q 719 56 704 50 l 733 60 l 750 3 q 611 -17 690 -17 q 307 94 436 -17 q 144 379 178 204 l 63 379 z "},"™":{"ha":1281,"x_min":39,"x_max":1182,"o":"m 596 367 l 644 972 l 693 972 l 868 597 l 888 542 l 890 542 q 910 597 897 569 l 1085 972 l 1133 972 l 1182 367 l 1129 367 l 1090 822 l 1092 861 l 1089 861 l 913 481 l 865 481 l 689 861 l 686 861 l 688 822 l 649 367 l 596 367 m 261 367 l 261 919 l 39 919 l 39 972 l 539 972 l 539 919 l 315 919 l 315 367 l 261 367 z "},"−":{"ha":833,"x_min":72,"x_max":761,"o":"m 72 365 l 72 421 l 761 421 l 761 365 l 72 365 z "},"∞":{"ha":682,"x_min":113,"x_max":569,"o":"m 503 323 q 469 289 503 323 q 342 256 436 256 q 180 323 247 256 q 113 485 113 390 q 180 646 113 579 q 342 713 247 713 q 503 646 436 713 q 569 485 569 579 q 503 323 569 390 z "},"≈":{"ha":833,"x_min":83,"x_max":750,"o":"m 118 446 l 83 488 q 279 579 172 579 q 428 531 349 579 q 554 482 508 482 q 715 560 638 482 l 750 518 q 554 426 661 426 q 405 475 485 426 q 279 524 325 524 q 118 446 196 524 m 118 224 l 83 265 q 279 357 172 357 q 428 308 349 357 q 554 260 508 260 q 715 338 638 260 l 750 296 q 554 204 661 204 q 405 253 485 204 q 279 301 325 301 q 118 224 196 301 z "},"≠":{"ha":833,"x_min":100,"x_max":733,"o":"m 181 128 l 275 254 l 100 254 l 100 310 l 317 310 l 443 476 l 100 476 l 100 532 l 485 532 l 610 697 l 656 663 l 557 532 l 733 532 l 733 476 l 515 476 l 389 310 l 733 310 l 733 254 l 347 254 l 226 93 l 181 128 z "},"≤":{"ha":833,"x_min":100,"x_max":710,"o":"m 100 368 l 100 418 l 710 692 l 710 625 l 186 394 l 186 392 l 710 161 l 710 94 l 100 368 m 100 -157 l 710 -157 l 710 -212 l 100 -212 l 100 -157 z "},"≥":{"ha":833,"x_min":124,"x_max":735,"o":"m 125 94 l 125 161 l 649 392 l 649 394 l 125 625 l 125 692 l 735 418 l 735 368 l 125 94 m 124 -157 l 733 -157 l 733 -212 l 124 -212 l 124 -157 z "},"ﬀ":{"ha":847,"x_min":64,"x_max":831,"o":"m 575 0 l 575 642 l 210 642 l 210 0 l 151 0 l 151 642 l 64 642 l 64 694 l 151 694 l 151 722 q 175 858 151 803 q 237 938 199 914 q 306 970 275 961 q 371 979 338 979 l 407 976 l 407 922 q 375 925 394 925 q 325 918 349 925 q 273 892 301 911 q 227 830 244 874 q 210 724 210 786 l 210 694 l 575 694 l 575 722 q 599 858 575 803 q 660 938 622 914 q 730 970 699 961 q 794 979 761 979 l 831 976 l 831 922 q 799 925 818 925 q 749 918 772 925 q 697 892 725 911 q 651 830 668 874 q 633 724 633 786 l 633 694 l 824 694 l 824 642 l 633 642 l 633 0 l 575 0 z "},"ﬁ":{"ha":726,"x_min":64,"x_max":610,"o":"m 546 0 l 546 642 l 210 642 l 210 0 l 151 0 l 151 642 l 64 642 l 64 694 l 151 694 l 151 722 q 175 858 151 803 q 237 938 199 914 q 306 970 275 961 q 371 979 338 979 l 407 976 l 407 922 q 375 925 394 925 q 325 918 349 925 q 273 892 301 911 q 227 830 244 874 q 210 724 210 786 l 210 694 l 604 694 l 604 0 l 546 0 m 540 871 l 540 972 l 610 972 l 610 871 l 540 871 z "},"ﬂ":{"ha":743,"x_min":64,"x_max":700,"o":"m 151 0 l 151 638 l 64 638 l 64 690 l 151 690 l 151 722 q 175 858 151 803 q 237 938 199 914 q 306 970 275 961 q 371 979 338 979 l 407 976 l 407 922 q 375 925 394 925 q 325 918 349 925 q 273 892 301 911 q 227 830 244 874 q 210 724 210 786 l 210 690 l 400 690 l 400 638 l 210 638 l 210 0 l 151 0 m 539 140 l 539 972 l 597 972 l 597 158 q 679 50 597 50 l 700 51 l 700 -3 q 675 -6 688 -6 q 636 -1 656 -6 q 592 18 617 4 q 553 63 568 32 q 539 140 539 94 z "},"ﬃ":{"ha":1150,"x_min":64,"x_max":1033,"o":"m 969 0 l 969 642 l 633 642 l 633 0 l 575 0 l 575 642 l 210 642 l 210 0 l 151 0 l 151 642 l 64 642 l 64 694 l 151 694 l 151 722 q 175 858 151 803 q 237 938 199 914 q 306 970 275 961 q 371 979 338 979 l 407 976 l 407 922 q 375 925 394 925 q 325 918 349 925 q 273 892 301 911 q 227 830 244 874 q 210 724 210 786 l 210 694 l 575 694 l 575 722 q 599 858 575 803 q 660 938 622 914 q 730 970 699 961 q 794 979 761 979 l 831 976 l 831 922 q 799 925 818 925 q 749 918 772 925 q 697 892 725 911 q 651 830 668 874 q 633 724 633 786 l 633 694 l 1028 694 l 1028 0 l 969 0 m 964 871 l 964 972 l 1033 972 l 1033 871 l 964 871 z "},"ﬄ":{"ha":1167,"x_min":64,"x_max":1124,"o":"m 575 0 l 575 642 l 210 642 l 210 0 l 151 0 l 151 642 l 64 642 l 64 694 l 151 694 l 151 722 q 175 858 151 803 q 237 938 199 914 q 306 970 275 961 q 371 979 338 979 l 407 976 l 407 922 q 375 925 394 925 q 325 918 349 925 q 273 892 301 911 q 227 830 244 874 q 210 724 210 786 l 210 694 l 575 694 l 575 722 q 599 858 575 803 q 660 938 622 914 q 730 970 699 961 q 794 979 761 979 l 831 976 l 831 922 q 799 925 818 925 q 749 918 772 925 q 697 892 725 911 q 651 830 668 874 q 633 724 633 786 l 633 694 l 824 694 l 824 642 l 633 642 l 633 0 l 575 0 m 963 140 l 963 972 l 1021 972 l 1021 158 q 1103 50 1021 50 l 1124 51 l 1124 -3 q 1099 -6 1111 -6 q 1060 -1 1079 -6 q 1016 18 1040 4 q 977 63 992 32 q 963 140 963 94 z "}}}
